<?xml version="1.0" encoding="UTF-8" standalone="no"?>
<!DOCTYPE svg PUBLIC "-//W3C//DTD SVG 1.1//EN" "http://www.w3.org/Graphics/SVG/1.1/DTD/svg11.dtd">

<!-- Created with Vectornator (http://vectornator.io/) -->
<svg height="100%" stroke-miterlimit="10" style="fill-rule:nonzero;clip-rule:evenodd;stroke-linecap:round;stroke-linejoin:round;" version="1.1" viewBox="0 0 100 100" width="100%" xml:space="preserve" xmlns="http://www.w3.org/2000/svg" xmlns:vectornator="http://vectornator.io" xmlns:xlink="http://www.w3.org/1999/xlink">
<metadata>
<vectornator:setting key="IsTimeLapseWatermarkDisabled" value="false"/>
<vectornator:setting key="UndoHistoryDisabled" value="true"/>
<vectornator:setting key="VNDimensionsVisible" value="true"/>
<vectornator:setting key="VNSnapToGuides" value="true"/>
<vectornator:setting key="WDCMYKEnabledKey" value="false"/>
<vectornator:setting key="WDDisplayWhiteBackground" value="false"/>
<vectornator:setting key="WDDynamicGuides" value="false"/>
<vectornator:setting key="WDGuidesVisible" value="true"/>
<vectornator:setting key="WDIsolateActiveLayer" value="false"/>
<vectornator:setting key="WDOutlineMode" value="false"/>
<vectornator:setting key="WDRulersVisible" value="true"/>
<vectornator:setting key="WDSnapToEdges" value="false"/>
<vectornator:setting key="WDSnapToGrid" value="false"/>
<vectornator:setting key="WDSnapToPoints" value="false"/>
<vectornator:setting key="WDUnits" value="Points"/>
</metadata>
<defs>
<radialGradient cx="-11.7051" cy="49.9935" gradientTransform="matrix(1 0 0 1 0 0)" gradientUnits="userSpaceOnUse" id="RadialGradient" r="138.243">
<stop offset="0" stop-color="#ffffff" stop-opacity="0.188337"/>
<stop offset="0.27686" stop-color="#c5c0b9" stop-opacity="0"/>
<stop offset="0.578512" stop-color="#000000" stop-opacity="0.743241"/>
<stop offset="0.690083" stop-color="#000000"/>
</radialGradient>
</defs>
<g id="Layer-1" vectornator:layerName="Layer 1" visibility="hidden">
<path d="M0 50C0 22.3858 22.3858 0 50 0C77.6142 0 100 22.3858 100 50C100 77.6142 77.6142 100 50 100C22.3858 100 0 77.6142 0 50Z" fill="#ffe3bd" fill-rule="evenodd" opacity="1" stroke="none"/>
</g>
<clipPath id="ArtboardFrame">
<rect height="100" width="100" x="0" y="0"/>
</clipPath>
<g clip-path="url(#ArtboardFrame)" id="Layer-1-copy" vectornator:layerName="Layer 1 copy" visibility="hidden">
<path d="M0 50C0 22.3858 22.3858 0 50 0C77.6142 0 100 22.3858 100 50C100 77.6142 77.6142 100 50 100C22.3858 100 0 77.6142 0 50Z" fill="#e9d9c2" fill-rule="evenodd" opacity="1" stroke="none"/>
<path d="M52.9045 72.3165C52.4717 72.3814 52.0406 72.1879 51.9901 72.3898C51.9846 72.4119 51.0541 72.3739 50.9512 72.3898C50.0786 72.524 49.2217 72.7465 48.3539 72.9092C46.6806 73.223 44.9323 73.7762 43.5057 74.7273C40.6092 76.6583 40.9085 80.2762 40.9085 83.2982C40.9085 84.1713 40.6818 85.3043 41.1682 86.0687C42.5098 88.1769 45.225 88.0558 47.4016 88.1465C49.9498 88.2526 52.5025 87.9201 55.0202 87.8002C58.902 87.6153 62.8325 88.077 66.7079 87.8002C68.7255 87.656 71.0288 86.8055 72.2487 85.1163C76.1973 79.6491 70.704 71.9311 64.9764 70.6583C62.6635 70.1443 60.4599 70.7381 58.2235 71.2643C56.7585 71.609 55.2389 72.13 53.7216 72.13C53.1072 72.13 53.3374 72.2516 52.9045 72.3165Z" fill="#ffe3bd" fill-rule="evenodd" opacity="1" stroke="none"/>
<path d="M20.7073 23.8637C20.1976 24.3787 20.0829 24.7556 20.0829 24.7556C20.0829 24.7556 19.8658 25.0661 19.6879 25.5966C19.51 26.1271 19.4776 26.315 19.2646 26.7646C18.7322 27.8886 18.1961 28.833 17.8794 30.0544C17.1482 32.8751 17.1492 35.8738 16.4942 38.712C15.9878 40.9067 15.3688 43.0008 15.3688 45.2917C15.3688 49.3107 20.5031 51.3193 23.3337 53.17C26.3194 55.1223 28.737 57.8392 31.5583 60.0095C34.7278 62.4475 38.4086 64.5597 42.0339 66.2429C44.8151 67.5342 48.3124 68.5504 51.1244 66.6758C54.5647 64.3822 55.3816 59.0427 54.4142 55.3344C53.9172 53.4291 52.9206 51.7654 52.1633 49.9668C50.6058 46.2678 48.9757 42.6252 47.315 38.9717C46.4005 36.9597 45.1222 35.1234 44.4581 32.998C43.1879 28.9335 45.0934 26.0125 46.103 22.1761C46.4156 20.9882 47.1656 18.868 46.4493 17.6742C44.8667 15.0366 40.5117 16.4506 38.3112 17.1547C33.9924 18.5367 29.699 19.7577 25.5846 21.6566C24.4639 22.1739 23.2255 22.1436 22.1216 22.6955C21.0857 23.2135 21.2169 23.3486 20.7073 23.8637Z" fill="#ffe3bd" fill-rule="evenodd" opacity="1" stroke="none"/>
<path d="M14.44 58.1573C13.2658 58.8643 13.289 58.9721 12.8581 59.3169C11.5297 60.3796 8.84863 63.2395 10.5205 65.0309C12.5607 67.2168 16.1298 67.373 18.7452 68.4939C20.5912 69.285 22.7323 71.8731 24.7189 69.7059C28.2878 65.8126 23.3372 61.5709 20.5633 59.1437C19.9357 58.5946 18.8082 57.4941 17.966 57.3257C16.6622 57.0649 15.6846 57.4078 14.44 58.1573Z" fill="#ffe3bd" fill-rule="evenodd" opacity="1" stroke="none"/>
<path d="M66.3183 27.8035C65.645 29.4148 66.5068 30.5883 66.7945 32.2188C67.0603 33.725 66.9445 35.4576 66.8811 36.9805C66.736 40.4616 66.4848 45.883 68.7857 48.8413C72.4138 53.506 83.571 53.0583 88.7846 51.6983C90.7995 51.1726 92.9801 50.12 94.8449 49.1876C96.5477 48.3362 97.6915 46.9271 99.6931 46.6769C100.787 46.5401 102.532 51.5342 103.329 52.6506C103.405 52.7567 104.526 54.3973 104.714 54.2089C104.806 54.1177 104.589 53.9825 104.541 53.8626C104.078 52.7047 103.66 51.2725 103.416 50.0533C103.199 48.9687 103.584 47.8302 103.762 46.7635C103.88 46.0571 103.589 45.3063 103.589 44.5991C103.589 39.2126 103.451 33.3889 99.9528 29.0155C99.4876 28.434 99.5432 27.7472 98.8273 27.1109C97.2108 25.674 94.89 24.8419 92.9402 23.9942C88.3333 21.9912 82.9164 21.7422 77.9627 22.0029C75.8742 22.1129 73.3032 21.6803 71.2964 22.3492C69.4225 22.9739 67.048 26.0574 66.3183 27.8035Z" fill="#ffe3bd" fill-rule="evenodd" opacity="1" stroke="none"/>
<path d="M53.8565 33.3653C53.7389 34.0667 53.8237 33.8216 53.8247 34.7497C53.8258 35.6778 54.0962 35.2918 53.9539 37.1794C53.8116 39.0669 53.2555 40.1561 53.2555 42.3001C53.2555 46.7368 52.9874 54.3546 59.483 53.3802C60.3444 53.251 61.3803 52.8213 62.1519 52.4097C64.365 51.2294 65.502 48.6422 66.1149 46.3439C68.044 39.1099 65.8405 34.1128 60.13 29.4406C58.0929 27.7739 56.2778 28.219 55.2184 30.1613C54.6506 31.2022 54.5463 31.3014 54.2952 31.9441C54.0441 32.5868 53.9742 32.6639 53.8565 33.3653Z" fill="#756f67" fill-rule="evenodd" opacity="1" stroke="none"/>
<path d="M8.75943 39.1277C8.71108 39.6305 8.35906 40.9907 8.36543 42.3967C8.37238 43.9309 8.74138 45.5104 8.77304 45.8587C9.06397 49.0588 13.6619 56.5217 17.5887 53.3802C18.9476 52.2931 15.597 49.948 15.0815 49.1746C14.4922 48.2908 13.9971 47.3654 13.383 46.5057C12.9366 45.8806 12.8358 44.883 12.6551 44.1602C12.3398 42.8988 12.8197 42.8307 12.5823 41.4481C12.3449 40.0654 12.1789 38.8052 11.2671 38.1286C10.3552 37.4519 9.77822 37.3733 8.9348 38.7415" fill="#756f67" fill-rule="evenodd" opacity="1" stroke="none"/>
<path d="M72.9374 57.8772C71.1985 58.4636 67.3787 60.1839 66.8428 61.7915C66.3527 63.2617 67.7531 65.1701 68.5412 66.2397C70.4955 68.8919 74.7266 71.7398 78.1656 70.9306C82.4309 69.927 84.7242 65.3681 83.0991 61.468C81.9479 58.7049 79.7748 55.5511 76.3054 56.9388" fill="#756f67" fill-rule="evenodd" opacity="1" stroke="none"/>
<path d="M11.7655 87.0251C11.5985 86.7747 13.7805 87.2435 14.4344 87.2678C16.6905 87.3513 18.8323 87.3675 21.0664 87.6721C27.1937 88.5077 33.1741 90.4739 39.3446 90.9881C44.5656 91.4232 49.4993 90.9628 54.7112 90.5837C57.9851 90.3456 61.2983 90.5083 64.5783 90.422C68.6761 90.3141 72.9453 89.781 76.9525 90.8263C79.1172 91.3911 87.0073 93.5183 87.5474 96.0025C87.8459 97.3758 83.5496 98.983 82.6139 99.3184C77.5512 101.133 72.4126 101.641 67.1663 102.554C54.79 104.706 43.4632 108.94 31.4995 102.958C29.2046 101.81 27.3011 100.193 25.272 98.6714C22.6532 96.7074 19.7544 95.1436 17.2651 93.01C16.5964 92.4368 15.8852 91.8676 15.4858 91.069C15.0619 90.221 15.2329 88.8818 14.2727 88.5618" fill="#fffcf8" fill-rule="evenodd" opacity="1" stroke="none"/>
<path d="M44.9802-9.12116C44.6978-10.2508 42.3539-4.67836 42.0881-4.14673C40.2167-0.403893 39.5173 4.39831 41.1626 8.34716C41.5005 9.15822 41.6257 10.2369 42.4351 10.7765C44.229 11.9724 46.21 11.8385 48.1037 12.6275C54.0316 15.0975 63.3401 16.2931 69.7366 15.8666C72.8035 15.6622 75.4786 13.5865 78.6443 13.7843C79.9933 13.8686 81.3432 13.825 82.6932 13.9C86.7557 14.1257 91.2565 16.0928 93.6832 11.2393C96.4811 5.64361 91.8898-1.71136 88.4775-5.882C81.7142-14.1482 70.7453-15.9676 60.7132-16.5249C56.0724-16.7828 52.1868-16.9609 47.7566-15.1367" fill="#756f67" fill-rule="evenodd" opacity="1" stroke="none"/>
</g>
<g id="Layer-1-copy-copy" vectornator:layerName="Layer 1 copy copy">
<path d="M49.5 0C46.2882 7.94728e-08 43.1673 0.347358 40.1259 0.9375C17.2799 5.37051 0 25.63 0 50C0 64.9899 6.67182 78.2733 17.0156 87.4375C25.7271 95.1555 37.0019 100 49.5 100C59.8858 100 69.5071 96.7398 77.4675 91.2188C90.4608 82.2071 99 67.1235 99 50C99 48.9266 98.9113 47.8691 98.8453 46.8125C98.3199 38.3986 95.6551 30.619 91.5131 23.8438C89.3297 20.2723 86.7842 16.994 83.8097 14.0938C74.9059 5.41245 62.8524 0 49.5 0Z" fill="#e9d9c2" fill-rule="evenodd" opacity="1" stroke="none"/>
</g>
<g id="Layer-1-copy-copy-copy" vectornator:layerName="Layer 1 copy copy copy">
<path d="M83.8097 14.0938C83.151 14.003 82.5072 13.9425 81.8606 13.9062C80.524 13.8312 79.2052 13.8656 77.8697 13.7812C74.7356 13.5834 72.0887 15.6705 69.0525 15.875C62.7199 16.3014 53.4815 15.095 47.6128 12.625C45.7381 11.836 43.789 11.9771 42.0131 10.7812C41.2117 10.2416 41.0792 9.15481 40.7447 8.34375C39.7904 6.03032 39.7202 3.4521 40.1259 0.9375C17.2799 5.37051 0 25.63 0 50C0 64.9899 6.67182 78.2733 17.0156 87.4375C18.2879 87.4895 19.5579 87.5093 20.8519 87.6875C26.9179 88.523 32.8415 90.4858 38.9503 91C44.1191 91.4351 49.0117 90.9728 54.1716 90.5938C57.4127 90.3557 60.7006 90.5238 63.9478 90.4375C68.0046 90.3297 72.201 89.7671 76.1681 90.8125C76.4057 90.8751 77.1082 91.1194 77.4675 91.2188C90.4608 82.2071 99 67.1235 99 50C99 48.9266 98.9113 47.8691 98.8453 46.8125C98.7973 46.8006 98.7365 46.6817 98.6906 46.6875C96.7091 46.9377 95.5811 48.3361 93.8953 49.1875C92.0492 50.1199 89.8882 51.1619 87.8934 51.6875C82.7319 53.0476 71.6852 53.5084 68.0934 48.8438C65.8155 45.8854 66.0627 40.4499 66.2062 36.9688C66.2691 35.4459 66.3766 33.725 66.1134 32.2188C65.8286 30.5882 64.9828 29.4238 65.6494 27.8125C66.3718 26.0664 68.7133 22.9684 70.5684 22.3438C72.5551 21.6748 75.1214 22.1099 77.1891 22C81.9236 21.7483 87.058 22.0258 91.5131 23.8438C89.3297 20.2723 86.7842 16.994 83.8097 14.0938Z" fill="#e9d9c2" fill-rule="evenodd" opacity="1" stroke="none"/>
<path d="M42.1987 16.1562C43.7448 16.0444 45.1898 16.3687 45.9731 17.6875C46.6822 18.8813 45.9423 20.9996 45.6328 22.1875C44.6333 26.0239 42.7666 28.9355 44.0241 33C44.6816 35.1254 45.934 36.9568 46.8394 38.9688C48.4835 42.6223 50.0928 46.2698 51.6347 49.9688C52.3845 51.7674 53.3701 53.4385 53.8622 55.3438C54.8199 59.0521 54.0197 64.3939 50.6137 66.6875C47.8299 68.5621 44.3643 67.5412 41.6109 66.25C38.0219 64.5668 34.3846 62.4381 31.2469 60C28.4538 57.8298 26.0662 55.1085 23.1103 53.1562C20.3081 51.3055 15.2212 49.3003 15.2212 45.2812C15.2212 42.9903 15.8336 40.9134 16.335 38.7188C16.9834 35.8805 16.9723 32.8832 17.6962 30.0625C18.0097 28.8411 18.5304 27.874 19.0575 26.75C19.2683 26.3004 19.3145 26.1243 19.4906 25.5938C19.6667 25.0632 19.8928 24.75 19.8928 24.75C19.8928 24.75 20.007 24.39 20.5116 23.875C21.0161 23.36 20.8781 23.2055 21.9037 22.6875C22.9966 22.1356 24.2283 22.1735 25.3378 21.6562C29.411 19.7573 33.6538 18.5383 37.9294 17.1562C39.0186 16.8042 40.6527 16.2681 42.1987 16.1562Z" fill="#ffe3bd" fill-rule="evenodd" opacity="1" stroke="none"/>
<path d="M56.7394 28.4375C57.5718 28.2918 58.5154 28.6041 59.5237 29.4375C65.1771 34.1097 67.3735 39.1097 65.4638 46.3438C64.857 48.6421 63.7256 51.226 61.5347 52.4062C60.7708 52.8178 59.7268 53.2458 58.8741 53.375C52.4434 54.3493 52.7175 46.7493 52.7175 42.3125C52.7175 40.1685 53.2882 39.0751 53.4291 37.1875C53.57 35.2999 53.2755 35.6781 53.2744 34.75C53.2733 33.8219 53.1889 34.0764 53.3053 33.375C53.4218 32.6736 53.4899 32.5802 53.7384 31.9375C53.987 31.2948 54.1045 31.1971 54.6666 30.1562C55.191 29.1851 55.9069 28.5832 56.7394 28.4375Z" fill="#756f67" fill-rule="evenodd" opacity="1" stroke="none"/>
<path d="M9.96187 37.6562C10.3219 37.5895 10.7171 37.7867 11.1684 38.125C12.0712 38.8016 12.2328 40.0548 12.4678 41.4375C12.7029 42.8202 12.2175 42.8948 12.5297 44.1562C12.7086 44.879 12.7992 45.8749 13.2412 46.5C13.8492 47.3597 14.3595 48.3037 14.9428 49.1875C15.4532 49.9609 18.7631 52.2879 17.4178 53.375C13.5303 56.5164 8.98145 49.0439 8.69344 45.8438C8.66209 45.4955 8.29813 43.9404 8.29125 42.4062C8.28494 41.0002 8.61464 39.6278 8.6625 39.125L8.84812 38.75C9.26562 38.0659 9.60186 37.723 9.96187 37.6562Z" fill="#756f67" fill-rule="evenodd" opacity="1" stroke="none"/>
<path d="M77.8697 56.6875C79.9772 57.1186 81.408 59.3965 82.2628 61.4688C83.8716 65.3689 81.5973 69.9339 77.3747 70.9375C73.97 71.7467 69.7806 68.9021 67.8459 66.25C67.0657 65.1804 65.6901 63.2515 66.1753 61.7812C66.7058 60.1737 70.4867 58.4614 72.2081 57.875L75.5494 56.9375C76.4081 56.5906 77.1672 56.5438 77.8697 56.6875Z" fill="#756f67" fill-rule="evenodd" opacity="1" stroke="none"/>
<path d="M17.7891 57.3125C18.6228 57.4809 19.7355 58.6071 20.3569 59.1562C23.103 61.5834 28.0047 65.8254 24.4716 69.7188C22.5049 71.8859 20.39 69.2911 18.5625 68.5C15.9732 67.3791 12.4457 67.2171 10.4259 65.0312C8.77074 63.2399 11.4002 60.3752 12.7153 59.3125C13.1419 58.9677 13.1307 58.8633 14.2931 58.1562C15.5253 57.4068 16.4983 57.0517 17.7891 57.3125Z" fill="#ffe3bd" fill-rule="evenodd" opacity="1" stroke="none"/>
<path d="M60.9469 70.5625C62.0552 70.4125 63.1742 70.3993 64.3191 70.6562C69.9894 71.9291 75.4365 79.6578 71.5275 85.125C70.3198 86.8141 68.049 87.6684 66.0516 87.8125C62.2149 88.0893 58.3238 87.6277 54.4809 87.8125C51.9883 87.9324 49.4548 88.2624 46.9322 88.1562C44.7773 88.0656 42.0729 88.1707 40.7447 86.0625C40.2631 85.2981 40.4972 84.1856 40.4972 83.3125C40.4972 80.2904 40.1975 76.6497 43.065 74.7188C44.4773 73.7677 46.2037 73.22 47.8603 72.9062C48.7194 72.7435 49.5642 72.5093 50.4281 72.375C50.53 72.3592 51.4745 72.3972 51.48 72.375C51.53 72.1731 51.9486 72.3774 52.3772 72.3125C52.8057 72.2476 52.5733 72.125 53.1816 72.125C54.6837 72.125 56.1862 71.5947 57.6366 71.25C58.7436 70.9869 59.8385 70.7125 60.9469 70.5625Z" fill="#ffe3bd" fill-rule="evenodd" opacity="1" stroke="none"/>
<path d="M49.5 0C46.2882 7.94729e-08 43.1673 0.347358 40.1259 0.9375C39.7202 3.4521 39.7904 6.03032 40.7447 8.34375C41.0792 9.15481 41.2117 10.2416 42.0131 10.7812C43.789 11.9771 45.7381 11.836 47.6128 12.625C53.4815 15.095 62.7199 16.3014 69.0525 15.875C72.0887 15.6705 74.7356 13.5834 77.8697 13.7812C79.2052 13.8656 80.524 13.8312 81.8606 13.9062C82.5072 13.9425 83.151 14.003 83.8097 14.0938C74.9059 5.41245 62.8524 0 49.5 0Z" fill="#756f67" fill-rule="evenodd" opacity="1" stroke="none"/>
<path d="M42.1987 16.1562C40.6527 16.2681 39.0186 16.8042 37.9294 17.1562C33.6538 18.5383 29.411 19.7573 25.3378 21.6562C24.2283 22.1735 22.9966 22.1356 21.9037 22.6875C20.8781 23.2055 21.0161 23.36 20.5116 23.875C20.007 24.39 19.8928 24.75 19.8928 24.75C19.8928 24.75 19.6667 25.0632 19.4906 25.5938C19.3145 26.1243 19.2683 26.3004 19.0575 26.75C18.5304 27.874 18.0097 28.8411 17.6962 30.0625C16.9723 32.8832 16.9834 35.8805 16.335 38.7188C15.8336 40.9134 15.2212 42.9903 15.2212 45.2812C15.2212 49.3003 20.3081 51.3055 23.1103 53.1562C26.0662 55.1085 28.4538 57.8298 31.2469 60C34.3846 62.438 38.0219 64.5668 41.6109 66.25C44.3643 67.5412 47.8299 68.5621 50.6137 66.6875C54.0197 64.3939 54.8199 59.0521 53.8622 55.3438C53.3701 53.4385 52.3845 51.7674 51.6347 49.9688C50.0928 46.2697 48.4835 42.6223 46.8394 38.9688C45.934 36.9568 44.6816 35.1254 44.0241 33C42.7666 28.9355 44.6333 26.0239 45.6328 22.1875C45.9423 20.9996 46.6822 18.8813 45.9731 17.6875C45.1898 16.3687 43.7448 16.0444 42.1987 16.1562Z" fill="#ffe3bd" fill-rule="evenodd" opacity="1" stroke="none"/>
<path d="M73.8478 21.9688C72.6994 21.9573 71.5618 22.0093 70.5684 22.3438C68.7133 22.9684 66.3718 26.0664 65.6494 27.8125C64.9828 29.4238 65.8286 30.5882 66.1134 32.2188C66.3766 33.725 66.2691 35.4459 66.2062 36.9688C66.0627 40.4499 65.8155 45.8854 68.0934 48.8438C71.6852 53.5084 82.7319 53.0476 87.8934 51.6875C89.8882 51.1619 92.0492 50.1199 93.8953 49.1875C95.5811 48.3361 96.7091 46.9377 98.6906 46.6875C98.7365 46.6817 98.7973 46.8006 98.8453 46.8125C98.3199 38.3986 95.6551 30.619 91.5131 23.8438C87.058 22.0258 81.9236 21.7483 77.1891 22C76.1552 22.055 74.9962 21.9802 73.8478 21.9688Z" fill="#ffe3bd" fill-rule="evenodd" opacity="1" stroke="none"/>
<path d="M56.7394 28.4375C55.9069 28.5832 55.191 29.1851 54.6666 30.1562C54.1045 31.1971 53.987 31.2948 53.7384 31.9375C53.4899 32.5802 53.4218 32.6736 53.3053 33.375C53.1889 34.0764 53.2733 33.8219 53.2744 34.75C53.2754 35.6781 53.57 35.2999 53.4291 37.1875C53.2882 39.0751 52.7175 40.1685 52.7175 42.3125C52.7175 46.7493 52.4434 54.3493 58.8741 53.375C59.7268 53.2458 60.7708 52.8178 61.5347 52.4062C63.7256 51.2259 64.857 48.6421 65.4638 46.3438C67.3735 39.1097 65.1771 34.1097 59.5237 29.4375C58.5154 28.6042 57.5718 28.2918 56.7394 28.4375Z" fill="#756f67" fill-rule="evenodd" opacity="1" stroke="none"/>
<path d="M9.96187 37.6562C9.60186 37.723 9.26562 38.0659 8.84812 38.75L8.6625 39.125C8.61464 39.6278 8.28494 41.0002 8.29125 42.4062C8.29813 43.9404 8.66209 45.4955 8.69344 45.8438C8.98145 49.0439 13.5303 56.5164 17.4178 53.375C18.7631 52.2879 15.4532 49.9609 14.9428 49.1875C14.3595 48.3037 13.8492 47.3597 13.2412 46.5C12.7992 45.8749 12.7086 44.879 12.5297 44.1562C12.2175 42.8948 12.7029 42.8202 12.4678 41.4375C12.2328 40.0548 12.0712 38.8016 11.1684 38.125C10.7171 37.7867 10.3219 37.5895 9.96187 37.6562Z" fill="#756f67" fill-rule="evenodd" opacity="1" stroke="none"/>
<path d="M77.8697 56.6875C77.1672 56.5438 76.4081 56.5906 75.5494 56.9375L72.2081 57.875C70.4867 58.4614 66.7058 60.1737 66.1753 61.7812C65.6901 63.2515 67.0657 65.1804 67.8459 66.25C69.7806 68.9022 73.97 71.7467 77.3747 70.9375C81.5973 69.9339 83.8716 65.3689 82.2628 61.4688C81.408 59.3965 79.9772 57.1186 77.8697 56.6875Z" fill="#756f67" fill-rule="evenodd" opacity="1" stroke="none"/>
<path d="M17.7891 57.3125C16.4983 57.0517 15.5253 57.4068 14.2931 58.1562C13.1307 58.8633 13.1419 58.9677 12.7153 59.3125C11.4002 60.3752 8.77074 63.2399 10.4259 65.0312C12.4457 67.2171 15.9732 67.3791 18.5625 68.5C20.39 69.2911 22.5049 71.8859 24.4716 69.7188C28.0047 65.8254 23.103 61.5834 20.3569 59.1562C19.7355 58.6071 18.6228 57.4809 17.7891 57.3125Z" fill="#ffe3bd" fill-rule="evenodd" opacity="1" stroke="none"/>
<path d="M60.9469 70.5625C59.8385 70.7125 58.7436 70.9869 57.6366 71.25C56.1862 71.5947 54.6837 72.125 53.1816 72.125C52.5733 72.125 52.8057 72.2476 52.3772 72.3125C51.9486 72.3774 51.53 72.1731 51.48 72.375C51.4745 72.3972 50.53 72.3592 50.4281 72.375C49.5642 72.5092 48.7194 72.7435 47.8603 72.9062C46.2037 73.22 44.4773 73.7677 43.065 74.7188C40.1975 76.6497 40.4972 80.2904 40.4972 83.3125C40.4972 84.1856 40.2631 85.2981 40.7447 86.0625C42.0729 88.1707 44.7773 88.0656 46.9322 88.1562C49.4548 88.2624 51.9883 87.9324 54.4809 87.8125C58.3238 87.6277 62.2149 88.0893 66.0516 87.8125C68.049 87.6684 70.3198 86.8141 71.5275 85.125C75.4365 79.6578 69.9894 71.9291 64.3191 70.6562C63.1742 70.3993 62.0552 70.4125 60.9469 70.5625Z" fill="#ffe3bd" fill-rule="evenodd" opacity="1" stroke="none"/>
<path d="M17.0156 87.4375C25.7271 95.1555 37.0019 100 49.5 100C59.8858 100 69.5071 96.7397 77.4675 91.2188C77.1082 91.1194 76.4057 90.8751 76.1681 90.8125C72.201 89.7671 68.0046 90.3297 63.9478 90.4375C60.7007 90.5238 57.4127 90.3557 54.1716 90.5938C49.0117 90.9728 44.1191 91.4351 38.9503 91C32.8415 90.4858 26.9179 88.523 20.8519 87.6875C19.5579 87.5093 18.2879 87.4895 17.0156 87.4375Z" fill="#fffcf8" fill-rule="evenodd" opacity="1" stroke="none"/>
</g>
<g id="Layer-1-copy-copy-copy_2" vectornator:layerName="Layer 1 copy copy copy">
<path d="M50 0C46.7558 7.94728e-08 43.6033 0.347358 40.5312 0.9375C17.4544 5.37051 0 25.63 0 50C0 64.9899 6.73921 78.2733 17.1875 87.4375C25.9869 95.1555 37.3757 100 50 100C60.4908 100 70.2092 96.7398 78.25 91.2188C91.3746 82.2071 100 67.1235 100 50C100 48.9266 99.9104 47.8691 99.8438 46.8125C99.3131 38.3986 96.6213 30.619 92.4375 23.8438C90.2321 20.2723 87.6608 16.994 84.6562 14.0938C75.6625 5.41245 63.4873 0 50 0Z" fill="url(#RadialGradient)" fill-rule="evenodd" opacity="1" stroke="none"/>
</g>
</svg>
