<?xml version="1.0" encoding="UTF-8" standalone="no"?>
<!DOCTYPE svg PUBLIC "-//W3C//DTD SVG 1.1//EN" "http://www.w3.org/Graphics/SVG/1.1/DTD/svg11.dtd">

<!-- Created with Vectornator (http://vectornator.io/) -->
<svg height="100%" stroke-miterlimit="10" style="fill-rule:nonzero;clip-rule:evenodd;stroke-linecap:round;stroke-linejoin:round;" version="1.1" viewBox="0 0 100 100" width="100%" xml:space="preserve" xmlns="http://www.w3.org/2000/svg" xmlns:vectornator="http://vectornator.io" xmlns:xlink="http://www.w3.org/1999/xlink">
<metadata>
<vectornator:setting key="IsTimeLapseWatermarkDisabled" value="false"/>
<vectornator:setting key="UndoHistoryDisabled" value="true"/>
<vectornator:setting key="VNDimensionsVisible" value="true"/>
<vectornator:setting key="VNSnapToGuides" value="true"/>
<vectornator:setting key="WDCMYKEnabledKey" value="false"/>
<vectornator:setting key="WDDisplayWhiteBackground" value="false"/>
<vectornator:setting key="WDDynamicGuides" value="false"/>
<vectornator:setting key="WDGuidesVisible" value="true"/>
<vectornator:setting key="WDIsolateActiveLayer" value="false"/>
<vectornator:setting key="WDOutlineMode" value="false"/>
<vectornator:setting key="WDRulersVisible" value="true"/>
<vectornator:setting key="WDSnapToEdges" value="false"/>
<vectornator:setting key="WDSnapToGrid" value="false"/>
<vectornator:setting key="WDSnapToPoints" value="false"/>
<vectornator:setting key="WDUnits" value="Points"/>
</metadata>
<defs>
<radialGradient cx="-20.0108" cy="51.6034" gradientTransform="matrix(1 0 0 1 0 0)" gradientUnits="userSpaceOnUse" id="RadialGradient" r="162.94">
<stop offset="0" stop-color="#ffffff" stop-opacity="0.188337"/>
<stop offset="0.27686" stop-color="#c5c0b9" stop-opacity="0"/>
<stop offset="0.578512" stop-color="#000000" stop-opacity="0.743241"/>
<stop offset="0.690083" stop-color="#000000"/>
</radialGradient>
</defs>
<clipPath id="ArtboardFrame">
<rect height="100" width="100" x="0" y="0"/>
</clipPath>
<g clip-path="url(#ArtboardFrame)" id="Layer-1" vectornator:layerName="Layer 1" visibility="hidden">
<path d="M-1.42109e-14 50C-1.42109e-14 22.3858 22.3858 7.10543e-15 50 7.10543e-15C77.6142 7.10543e-15 100 22.3858 100 50C100 77.6142 77.6142 100 50 100C22.3858 100-1.42109e-14 77.6142-1.42109e-14 50Z" fill="#c5c0b9" fill-rule="evenodd" opacity="1" stroke="none"/>
</g>
<g id="Layer-1-copy-copy" vectornator:layerName="Layer 1 copy copy">
<path d="M50 0C38.0067 0 27.1465 4.3978 18.5312 11.4375C17.1021 12.6053 15.6348 13.7148 14.3438 15.0312C13.0059 16.3953 11.8631 17.9279 10.6875 19.4375C10.0681 20.2329 9.32133 20.9172 8.75 21.75C7.34268 23.8014 6.24994 26.0562 5.15625 28.3125C4.33615 30.0044 3.6284 31.7395 3 33.5312C1.18293 38.7121 0 44.1984 0 50C0 51.8891 0.108461 53.7591 0.3125 55.5938C0.486153 57.1552 0.748421 58.6728 1.0625 60.1875C1.64066 62.9757 2.5411 65.653 3.5625 68.25C3.80996 68.8792 4.04057 69.5086 4.3125 70.125C5.15358 72.0316 6.18652 73.821 7.25 75.5938C8.11436 77.0346 9.03062 78.4082 10.0312 79.75C13.2382 84.0504 17.0057 87.8919 21.4062 90.9688C24.6036 93.2044 28.0969 94.991 31.7812 96.4375C37.4392 98.6589 43.554 100 50 100C53.5211 100 56.9345 99.5986 60.25 98.9062C66.1256 97.6793 71.5797 95.3417 76.5 92.25C81.0263 89.4059 84.9476 85.8193 88.3438 81.7188C91.284 78.1687 93.8723 74.3387 95.75 70.0625C95.7746 70.0065 95.8194 69.9623 95.8438 69.9062C96.5625 68.2528 96.9918 66.4593 97.5312 64.7188C98.9828 60.0355 100 55.1603 100 50C100 49.358 99.9302 48.7298 99.9062 48.0938C99.829 46.046 99.6288 44.04 99.3125 42.0625C99.1531 41.0662 98.9361 40.1008 98.7188 39.125C98.2927 37.2121 97.6383 35.3859 97 33.5625C95.2255 28.4933 92.7125 23.831 89.5 19.6562C87.4196 16.9527 85.0806 14.5068 82.5 12.2812C80.2834 10.3697 77.9364 8.6597 75.4062 7.15625C74.105 6.38305 72.7801 5.65499 71.4062 5C64.8958 1.89621 57.693 0 50 0Z" fill="#c5c0b9" fill-rule="evenodd" opacity="1" stroke="none"/>
</g>
<g id="Layer-1-copy-copy-copy" vectornator:layerName="Layer 1 copy copy copy">
<path d="M50 0C38.0067 0 27.1465 4.3978 18.5312 11.4375C20.3596 11.4212 21.9086 10.5086 23.7188 10.25C25.7739 9.95641 28.4806 10.3159 30.4375 10.875C31.051 11.0503 34.5364 12.7449 33.4688 13.8125C32.771 14.5102 31.6063 14.5053 30.75 14.75C28.1201 15.5014 25.8518 15.5937 23.0938 15.5938C20.1562 15.5938 17.2528 15.352 14.3438 15.0312C13.0059 16.3953 11.8631 17.9279 10.6875 19.4375C10.7599 19.4402 10.9041 19.4688 10.9688 19.4688C13.4307 19.4688 16.0816 19.6745 18.5 19.1562C21.1508 18.5882 23.721 17.9345 26.4375 17.6875C30.1601 17.3491 34.1606 17.2679 37.8438 16.5312C39.3243 16.2351 40.8333 15.7016 42.3438 15.5938C44.6796 15.4269 47.0477 15.833 49.375 15.6875C50.5991 15.611 51.9227 15.2944 53.1562 15.5C54.2174 15.6769 55.1712 16.2175 56.2812 16.125C62.4631 15.6098 68.5506 14.0607 74.7188 13.5C76.9385 13.2982 79.1028 12.4955 81.3125 12.25C81.7269 12.204 82.0978 12.2807 82.5 12.2812C80.2834 10.3697 77.9364 8.6597 75.4062 7.15625C74.4945 7.23031 73.5731 7.28715 72.7188 7.53125C70.606 8.13491 68.7504 9.30927 66.6562 9.9375C64.7782 10.5009 62.7031 9.91602 60.7812 10.1562C57.4827 10.5686 55.0152 11.5 51.5625 11.5C49.2954 11.5 40.1876 10.4686 43.1875 6.46875C44.941 4.13073 47.4726 5.34375 49.9062 5.34375C53.9446 5.34375 57.8344 4.41687 61.8438 5.21875C63.0505 5.46009 64.3508 5.01159 65.5938 5.21875C67.2383 5.49285 69.4431 5.29236 71.4062 5C64.8958 1.89621 57.693 0 50 0Z" fill="#c5c0b9" fill-rule="evenodd" opacity="1" stroke="none"/>
<path d="M89.5 19.6562C89.2287 19.7187 88.9382 19.8476 88.7188 19.875C85.2561 20.3078 81.9492 21.701 78.4688 21.9688C70.3603 22.5925 62.3594 20.7693 54.1875 21.25C50.029 21.4946 45.9236 23.07 41.8438 23.75C40.1214 24.0371 38.245 23.875 36.5 23.875C32.5172 23.875 28.533 23.6581 24.5625 23.4375C22.6527 23.3314 20.8078 22.6189 18.9062 22.5C15.6761 22.2981 12.5627 22.2735 9.375 21.875C9.19878 21.853 8.93738 21.7801 8.75 21.75C7.34268 23.8014 6.24993 26.0562 5.15625 28.3125C5.62971 28.5759 6.05314 28.924 6.5625 29.0938C11.1419 30.6202 12.6715 30.8699 17.3438 29.3125C19.7381 28.5144 22.2642 28.2489 24.6562 27.5312C27.7657 26.5984 31.1358 25.5305 34.4062 25.3125C35.5633 25.2354 36.6186 25.5221 37.75 25.625C40.9819 25.9188 44.1794 25.6997 47.375 26.1562C49.465 26.4548 51.4362 26.2005 53.4688 26.7812C55.8069 27.4493 58.5867 28.0625 61 28.0625C61.3564 28.0625 63.1875 28.0229 63.1875 28.4688C63.1875 29.2864 59.8735 30.2035 59.3125 30.3438C55.3473 31.3351 51.2742 30.9283 47.2812 31.5938C44.6324 32.0352 40.8661 32.1014 38.1875 31.7188C36.5957 31.4914 35.2361 30.5017 33.6562 30.3438C32.1993 30.1981 30.7219 30.7309 29.2812 30.875C25.0608 31.297 20.7984 31.2869 16.5938 31.8125C13.629 32.1831 10.547 34.3125 7.59375 34.3125C6.65207 34.3125 4.73714 34.0315 3 33.5312C1.18293 38.7121 0 44.1984 0 50C0 51.8891 0.108461 53.7591 0.3125 55.5938C0.402784 55.5876 0.508967 55.5746 0.59375 55.5625C2.08862 55.3489 3.52725 54.8057 5 54.4375C6.87991 53.9675 8.89462 54.1499 10.8438 53.9062C15.0212 53.3841 19.2802 52.5626 23.5312 52.0312C25.1007 51.8351 26.8224 52.1839 28.3438 52.4375C30.1208 52.7337 32.1931 52.5312 34 52.5312C39.9874 52.5313 45.3639 51.2399 50.7188 48.5625C51.6437 48.1 52.3203 47.3385 53.1562 46.7812C55.5383 45.1932 58.6269 44.239 61.3125 43.3438C67.5896 41.2514 73.9174 39.5873 80.25 37.6875C84.223 36.4956 87.9898 35.1692 92.0938 34.6562C93.7429 34.4501 95.3676 33.9831 97 33.5625C95.2255 28.4933 92.7125 23.831 89.5 19.6562Z" fill="#c5c0b9" fill-rule="evenodd" opacity="1" stroke="none"/>
<path d="M98.7188 39.125C97.4976 39.5465 96.2564 39.9362 95 40.1875C94.0351 40.3805 92.9344 40.1433 91.9688 40.2812C90.7948 40.4489 89.801 41.082 88.625 41.25C86.2422 41.5904 83.7741 41.318 81.4062 41.6562C77.7642 42.1765 74.4942 43.9909 70.9375 44.7812C66.6873 45.7257 62.1037 45.3244 57.9688 46.875C55.4498 47.8196 53.013 49.4984 50.7188 50.875C48.8699 51.9843 46.7326 52.3757 44.7812 53.1562C42.3977 54.1096 40.3318 55.5697 37.75 56C34.5593 56.5318 31.4049 57.7018 28.125 58C26.0745 58.1864 23.3314 58.3365 21.3125 58C19.4243 57.6853 17.3128 57.0625 15.3438 57.3438C14.0041 57.5351 12.6212 57.3711 11.2812 57.5625C8.45135 57.9668 5.5634 59.0061 2.78125 59.5625C2.36747 59.6453 1.70142 59.9382 1.0625 60.1875C1.64066 62.9757 2.5411 65.653 3.5625 68.25C5.19133 68.71 7.37337 68.8439 9.0625 68.6562C14.8954 68.0081 20.7508 66.7706 26.3438 64.9062C30.6603 63.4674 34.5942 63.8437 39 63.8438C42.2932 63.8437 45.79 63.5165 49.0625 63.8438C50.2928 63.9668 51.4832 64.4702 52.7188 64.5938C54.8953 64.8114 57.1287 64.4482 59.3125 64.5938C61.9692 64.7709 64.5999 65.7312 67.2812 65.9375C71.2529 66.243 75.6872 65.3558 79.5312 64.4688C80.8147 64.1726 81.9986 63.3582 83.2812 63.125C84.8262 62.8441 86.4349 62.678 87.9062 62.1875C88.796 61.8909 90.0806 61.5916 91.0312 61.75C91.7154 61.864 92.4216 63.0311 93.125 63.3125C93.9875 63.6575 96.0688 64.4542 96.9062 64.5938C97.0978 64.6257 97.3173 64.6932 97.5312 64.7188C98.9828 60.0355 100 55.1603 100 50C100 49.358 99.9302 48.7298 99.9062 48.0938C96.4408 48.7414 92.9516 48.8342 89.375 49.2812C86.6626 49.6203 84.0292 50.6292 81.3125 50.9688C77.8736 51.3986 74.3353 51.3693 70.9375 52.2188C67.5944 53.0545 64.301 53.6335 60.875 53.0625C60.068 52.928 58.0213 52.6314 57.6562 51.7188C57.1398 50.4276 58.9516 49.5484 59.625 48.875C61.6798 46.8202 65.4366 46.8064 68.2188 46.25C70.2148 45.8508 72.2606 46.3151 74.2812 46.0625C77.9908 45.5988 81.8617 45.936 85.5938 45.625C87.7281 45.4471 89.4818 44.3226 91.5625 44.0625C94.0311 43.7539 96.7056 42.9855 99.3125 42.0625C99.1531 41.0662 98.9361 40.1008 98.7188 39.125Z" fill="#c5c0b9" fill-rule="evenodd" opacity="1" stroke="none"/>
<path d="M88.3438 81.7188C86.8923 81.6675 85.4563 81.4662 84.0312 81.6562C82.399 81.8739 80.9256 82.8603 79.3125 83.2188C77.3861 83.6468 75.3886 83.2874 73.4375 83.5312C69.565 84.0153 65.8186 83.8582 61.9375 84.0625C59.1626 84.2085 56.6075 85.3112 53.7812 84.7812C50.2445 84.1181 46.2767 83.3469 42.875 82.1562C38.3164 80.5608 33.9164 78.1111 28.9688 77.7812C24.6445 77.493 20.4499 78.676 16.1875 79.0312C14.126 79.203 12.0835 79.4645 10.0312 79.75C13.2382 84.0504 17.0057 87.8919 21.4062 90.9688C23.8986 90.0508 28.4666 89.1445 30.9375 89.5938C34.4685 90.2358 37.8865 92.2275 41.5312 92.5312C51.8407 93.3904 62.7556 89.2339 72.8125 91.4688C74.0889 91.7524 75.3076 91.9706 76.5 92.25C81.0263 89.4059 84.9476 85.8193 88.3438 81.7188Z" fill="#c5c0b9" fill-rule="evenodd" opacity="1" stroke="none"/>
<path d="M60.25 98.9062C59.8313 98.8817 59.4141 98.9408 59 98.9062C57.0037 98.7399 55.2709 99.9184 53.25 99.75C51.5197 99.6058 49.8288 98.8408 48.125 98.5C45.7232 98.0196 43.1368 97.9326 40.7812 97.3438C39.6539 97.0619 38.6959 96.2393 37.5312 96.0938C35.6153 95.8543 33.6854 96.1397 31.7812 96.4375C37.4392 98.6589 43.554 100 50 100C53.5211 100 56.9345 99.5986 60.25 98.9062Z" fill="#c5c0b9" fill-rule="evenodd" opacity="1" stroke="none"/>
<path d="M7.25 75.5938C8.84012 74.9657 10.3864 73.5099 11.9062 72.75C15.08 71.1631 18.8002 72.5822 22.0625 73.2812C26.4523 74.2219 30.9329 74.8361 35.3438 75.7812C38.7887 76.5195 41.4017 77.3221 44.9688 76.8125C54.5948 75.4374 64.1158 72.4631 73.875 71.8125C77.9138 71.5432 81.9344 72.6252 86 72.3125C87.2476 72.2165 88.3271 71.5016 89.4688 71.0625C89.8661 70.9097 90.3198 70.814 90.75 70.6875C88.7812 70.6776 86.8228 70.5313 84.6562 70.5312C81.9458 70.5312 79.4533 71.2266 76.8125 69.9062C75.0437 69.0219 73.7103 67.5299 71.6562 67.1875C66.3969 66.3109 59.1683 67.0709 53.9688 67.9375C52.0953 68.2497 50.5841 68.9688 48.625 68.9688C43.9681 68.9688 39.3786 66.3618 34.625 67.3125C31.4865 67.9402 28.4782 69.9808 25.2812 70.4375C23.4677 70.6966 21.4979 70.75 19.6562 70.75C18.2854 70.75 16.7001 70.5375 15.3438 70.3438C13.1413 70.0291 10.7414 70.7795 8.5625 70.3438C7.20697 70.0726 5.74343 70.0276 4.3125 70.125C5.15358 72.0316 6.18652 73.821 7.25 75.5938Z" fill="#c5c0b9" fill-rule="evenodd" opacity="1" stroke="none"/>
<path d="M90.75 70.6875C92.1061 70.6943 93.4537 70.7069 94.9062 70.3438C95.1601 70.2803 95.4687 70.1337 95.75 70.0625C95.7746 70.0065 95.8194 69.9623 95.8438 69.9062C95.7375 69.9109 95.6348 69.9062 95.5312 69.9062C93.9895 69.9062 92.3088 70.2292 90.75 70.6875Z" fill="#727272" fill-rule="evenodd" opacity="1" stroke="none"/>
<path d="M60 32.5625C60.6118 32.4389 61.3248 32.4239 62.1562 32.5625C62.8893 32.6847 67.4239 33.6386 66.2188 34.8438C65.2323 35.8302 60.936 37.0881 59.4375 37.6875C56.5253 38.8524 53.9463 40.9668 50.8438 41.6562C48.8558 42.098 46.8485 41.7336 44.875 42.0625C41.0237 42.7044 37.0161 42.5754 33.1562 43.2188C31.1893 43.5466 29.1425 42.8457 27.1875 43.125C25.1363 43.418 22.6977 44.3194 20.5938 43.9688C19.5902 43.8015 18.5799 43.4891 17.5625 43.3438C15.6866 43.0758 13.616 43.2808 13.25 40.7188C12.8418 37.8611 17.27 36.6483 19.125 35.9062C21.0539 35.1347 23.7452 35.6711 25.7188 36C27.6662 36.3246 29.6401 35.9441 31.5625 36.2188C34.4668 36.6337 37.1423 37.9711 40.1562 37.4688C42.6037 37.0608 44.9193 36.1321 47.375 35.7812C48.3025 35.6488 49.139 35.7118 50 35.2812C50.1912 35.1857 50.396 35.0053 50.625 35.0625C50.6794 35.0761 50.6936 35.1024 50.7812 35.125C50.6677 34.8559 51.6012 35.1562 52.0938 35.1562C53.0336 35.1562 53.9776 34.686 54.9062 34.5312C57.0304 34.1772 58.1647 32.9333 60 32.5625Z" fill="#727272" fill-rule="evenodd" opacity="1" stroke="none"/>
<path d="M55.875 4.96875C53.8966 5.10023 51.9254 5.34375 49.9062 5.34375C47.4726 5.34375 44.941 4.13073 43.1875 6.46875C40.1876 10.4686 49.2954 11.5 51.5625 11.5C55.0152 11.5 57.4827 10.5686 60.7812 10.1562C62.7031 9.91602 64.7782 10.5009 66.6562 9.9375C68.7504 9.30927 70.606 8.13491 72.7188 7.53125C73.5731 7.28715 74.4945 7.23031 75.4062 7.15625C74.105 6.38305 72.7801 5.65499 71.4062 5C69.4431 5.29236 67.2383 5.49285 65.5938 5.21875C64.3508 5.01159 63.0505 5.46009 61.8438 5.21875C59.8391 4.81781 57.8534 4.83727 55.875 4.96875Z" fill="#727272" fill-rule="evenodd" opacity="1" stroke="none"/>
<path d="M23.7188 10.25C21.9086 10.5086 20.3596 11.4212 18.5312 11.4375C17.1021 12.6053 15.6348 13.7148 14.3438 15.0312C17.2528 15.352 20.1562 15.5938 23.0938 15.5938C25.8518 15.5937 28.1201 15.5014 30.75 14.75C31.6063 14.5053 32.771 14.5102 33.4688 13.8125C34.5364 12.7449 31.051 11.0503 30.4375 10.875C28.4806 10.3159 25.7739 9.95641 23.7188 10.25Z" fill="#d8d8d8" fill-rule="evenodd" opacity="1" stroke="none"/>
<path d="M81.3125 12.25C79.1028 12.4955 76.9385 13.2982 74.7188 13.5C68.5506 14.0607 62.4631 15.6098 56.2812 16.125C55.1712 16.2175 54.2174 15.6769 53.1562 15.5C51.9227 15.2944 50.5991 15.611 49.375 15.6875C47.0477 15.833 44.6796 15.4269 42.3438 15.5938C40.8333 15.7016 39.3243 16.2351 37.8438 16.5312C34.1606 17.2679 30.1601 17.3491 26.4375 17.6875C23.721 17.9345 21.1508 18.5882 18.5 19.1562C16.0816 19.6745 13.4307 19.4688 10.9688 19.4688C10.9041 19.4688 10.7599 19.4402 10.6875 19.4375C10.0681 20.2329 9.32133 20.9172 8.75 21.75C8.93738 21.7801 9.19878 21.853 9.375 21.875C12.5627 22.2735 15.6761 22.2981 18.9062 22.5C20.8078 22.6189 22.6527 23.3314 24.5625 23.4375C28.533 23.6581 32.5172 23.875 36.5 23.875C38.245 23.875 40.1214 24.0371 41.8438 23.75C45.9236 23.07 50.029 21.4946 54.1875 21.25C62.3594 20.7693 70.3603 22.5925 78.4688 21.9688C81.9492 21.701 85.2561 20.3078 88.7188 19.875C88.9382 19.8476 89.2287 19.7187 89.5 19.6562C87.4196 16.9527 85.0806 14.5068 82.5 12.2812C82.0978 12.2807 81.7269 12.204 81.3125 12.25Z" fill="#cacaca" fill-rule="evenodd" opacity="1" stroke="none"/>
<path d="M34.4062 25.3125C31.1358 25.5305 27.7657 26.5984 24.6562 27.5312C22.2642 28.2489 19.7381 28.5144 17.3438 29.3125C12.6715 30.8699 11.1419 30.6202 6.5625 29.0938C6.05314 28.924 5.62971 28.5759 5.15625 28.3125C4.33615 30.0044 3.6284 31.7395 3 33.5312C4.73714 34.0315 6.65207 34.3125 7.59375 34.3125C10.547 34.3125 13.629 32.1831 16.5938 31.8125C20.7984 31.2869 25.0608 31.297 29.2812 30.875C30.7219 30.7309 32.1993 30.1981 33.6562 30.3438C35.2361 30.5017 36.5957 31.4914 38.1875 31.7188C40.8661 32.1014 44.6324 32.0352 47.2812 31.5938C51.2741 30.9283 55.3473 31.3351 59.3125 30.3438C59.8735 30.2035 63.1875 29.2864 63.1875 28.4688C63.1875 28.0229 61.3564 28.0625 61 28.0625C58.5867 28.0625 55.8069 27.4493 53.4688 26.7812C51.4361 26.2005 49.465 26.4548 47.375 26.1562C44.1794 25.6997 40.9819 25.9188 37.75 25.625C36.6186 25.5221 35.5633 25.2354 34.4062 25.3125Z" fill="#bebebe" fill-rule="evenodd" opacity="1" stroke="none"/>
<path d="M60 32.5625C58.1647 32.9333 57.0304 34.1772 54.9062 34.5312C53.9776 34.686 53.0336 35.1562 52.0938 35.1562C51.6012 35.1562 51.5844 34.9493 51.2117 34.8961C50.839 34.8429 50.9059 34.8471 50.603 34.9434C50.3001 35.0397 50.1912 35.1857 50 35.2812C49.139 35.7118 48.3025 35.6488 47.375 35.7812C44.9193 36.1321 42.6037 37.0608 40.1562 37.4688C37.1423 37.9711 34.4668 36.6337 31.5625 36.2188C29.6401 35.9441 27.6662 36.3246 25.7188 36C23.7452 35.6711 21.0539 35.1347 19.125 35.9062C17.27 36.6483 12.8418 37.8611 13.25 40.7188C13.616 43.2808 15.6866 43.0758 17.5625 43.3438C18.5799 43.4891 19.5902 43.8015 20.5938 43.9688C22.6977 44.3194 25.1363 43.418 27.1875 43.125C29.1425 42.8457 31.1893 43.5466 33.1562 43.2188C37.0161 42.5754 41.0237 42.7044 44.875 42.0625C46.8485 41.7336 48.8558 42.098 50.8438 41.6562C53.9463 40.9668 56.5253 38.8524 59.4375 37.6875C60.936 37.0881 65.2323 35.8302 66.2188 34.8438C67.4239 33.6386 62.8893 32.6847 62.1562 32.5625C61.3249 32.4239 60.6118 32.4389 60 32.5625Z" fill="#727272" fill-rule="evenodd" opacity="1" stroke="none"/>
<path d="M97 33.5625C95.3676 33.9831 93.7429 34.4501 92.0938 34.6562C87.9898 35.1692 84.223 36.4956 80.25 37.6875C73.9174 39.5873 67.5896 41.2514 61.3125 43.3438C58.6269 44.239 55.5383 45.1932 53.1562 46.7812C52.3203 47.3385 51.6437 48.1 50.7188 48.5625C45.3639 51.2399 39.9874 52.5313 34 52.5312C32.1931 52.5312 30.1208 52.7337 28.3438 52.4375C26.8224 52.1839 25.1007 51.8351 23.5312 52.0312C19.2802 52.5626 15.0212 53.3841 10.8438 53.9062C8.89462 54.1499 6.87991 53.9675 5 54.4375C3.52725 54.8057 2.08862 55.3489 0.59375 55.5625C0.508967 55.5746 0.402784 55.5876 0.3125 55.5938C0.486153 57.1552 0.748421 58.6728 1.0625 60.1875C1.70142 59.9382 2.36747 59.6453 2.78125 59.5625C5.5634 59.0061 8.45135 57.9668 11.2812 57.5625C12.6212 57.3711 14.0041 57.5351 15.3438 57.3438C17.3128 57.0625 19.4243 57.6853 21.3125 58C23.3314 58.3365 26.0745 58.1864 28.125 58C31.4049 57.7018 34.5593 56.5318 37.75 56C40.3318 55.5697 42.3977 54.1096 44.7812 53.1562C46.7326 52.3757 48.8699 51.9843 50.7188 50.875C53.013 49.4984 55.4498 47.8196 57.9688 46.875C62.1037 45.3244 66.6873 45.7257 70.9375 44.7812C74.4942 43.9909 77.7642 42.1765 81.4062 41.6562C83.774 41.318 86.2422 41.5904 88.625 41.25C89.801 41.082 90.7948 40.4489 91.9688 40.2812C92.9344 40.1433 94.0351 40.3805 95 40.1875C96.2564 39.9362 97.4976 39.5465 98.7188 39.125C98.2927 37.2121 97.6383 35.3859 97 33.5625Z" fill="#d8d8d8" fill-rule="evenodd" opacity="1" stroke="none"/>
<path d="M99.3125 42.0625C96.7057 42.9855 94.0311 43.7539 91.5625 44.0625C89.4818 44.3226 87.7281 45.4471 85.5938 45.625C81.8617 45.936 77.9908 45.5988 74.2812 46.0625C72.2606 46.3151 70.2148 45.8508 68.2188 46.25C65.4366 46.8064 61.6798 46.8202 59.625 48.875C58.9516 49.5484 57.1398 50.4276 57.6562 51.7188C58.0213 52.6314 60.068 52.928 60.875 53.0625C64.301 53.6335 67.5944 53.0545 70.9375 52.2188C74.3353 51.3693 77.8736 51.3986 81.3125 50.9688C84.0292 50.6292 86.6626 49.6203 89.375 49.2812C92.9516 48.8342 96.4408 48.7414 99.9062 48.0938C99.829 46.046 99.6288 44.04 99.3125 42.0625Z" fill="#bebebe" fill-rule="evenodd" opacity="1" stroke="none"/>
<path d="M91.0312 61.75C90.0806 61.5915 88.796 61.8909 87.9062 62.1875C86.4349 62.678 84.8262 62.8441 83.2812 63.125C81.9986 63.3582 80.8147 64.1726 79.5312 64.4688C75.6872 65.3558 71.2529 66.243 67.2812 65.9375C64.5999 65.7312 61.9692 64.7709 59.3125 64.5938C57.1287 64.4482 54.8953 64.8114 52.7188 64.5938C51.4832 64.4702 50.2928 63.9668 49.0625 63.8438C45.79 63.5165 42.2932 63.8437 39 63.8438C34.5942 63.8437 30.6603 63.4674 26.3438 64.9062C20.7508 66.7706 14.8954 68.0081 9.0625 68.6562C7.37337 68.8439 5.19133 68.71 3.5625 68.25C3.80996 68.8792 4.04056 69.5086 4.3125 70.125C5.74343 70.0276 7.20697 70.0726 8.5625 70.3438C10.7414 70.7795 13.1413 70.0291 15.3438 70.3438C16.7001 70.5375 18.2854 70.75 19.6562 70.75C21.4979 70.75 23.4677 70.6966 25.2812 70.4375C28.4783 69.9808 31.4865 67.9402 34.625 67.3125C39.3786 66.3618 43.9681 68.9688 48.625 68.9688C50.5841 68.9687 52.0953 68.2497 53.9688 67.9375C59.1683 67.0709 66.3969 66.3109 71.6562 67.1875C73.7103 67.5299 75.0437 69.0219 76.8125 69.9062C79.4533 71.2266 81.9458 70.5312 84.6562 70.5312C86.8228 70.5313 88.7812 70.6776 90.75 70.6875C92.3088 70.2292 93.9895 69.9062 95.5312 69.9062C95.6348 69.9063 95.7375 69.9109 95.8438 69.9062C96.5625 68.2528 96.9918 66.4593 97.5312 64.7188C97.3173 64.6932 97.0978 64.6257 96.9062 64.5938C96.0688 64.4542 93.9875 63.6575 93.125 63.3125C92.4216 63.0311 91.7154 61.864 91.0312 61.75Z" fill="#727272" fill-rule="evenodd" opacity="1" stroke="none"/>
<path d="M95.75 70.0625C95.4687 70.1337 95.1601 70.2803 94.9062 70.3438C93.4537 70.7069 92.1061 70.6943 90.75 70.6875C90.3198 70.814 89.8661 70.9097 89.4688 71.0625C88.3271 71.5016 87.2476 72.2165 86 72.3125C81.9344 72.6252 77.9138 71.5432 73.875 71.8125C64.1158 72.4631 54.5948 75.4374 44.9688 76.8125C41.4017 77.3221 38.7887 76.5195 35.3438 75.7812C30.9329 74.8361 26.4523 74.2219 22.0625 73.2812C18.8002 72.5822 15.08 71.1631 11.9062 72.75C10.3864 73.5099 8.84012 74.9657 7.25 75.5938C8.11436 77.0346 9.03062 78.4082 10.0312 79.75C12.0835 79.4645 14.126 79.203 16.1875 79.0312C20.4499 78.676 24.6445 77.493 28.9688 77.7812C33.9164 78.1111 38.3164 80.5608 42.875 82.1562C46.2767 83.3469 50.2445 84.1181 53.7812 84.7812C56.6075 85.3112 59.1626 84.2085 61.9375 84.0625C65.8186 83.8582 69.565 84.0153 73.4375 83.5312C75.3886 83.2874 77.3861 83.6468 79.3125 83.2188C80.9256 82.8603 82.399 81.8739 84.0312 81.6562C85.4563 81.4662 86.8923 81.6675 88.3438 81.7188C91.284 78.1687 93.8723 74.3387 95.75 70.0625Z" fill="#cacaca" fill-rule="evenodd" opacity="1" stroke="none"/>
<path d="M30.9375 89.5938C28.4666 89.1445 23.8986 90.0508 21.4062 90.9688C24.6036 93.2044 28.0969 94.991 31.7812 96.4375C33.6854 96.1397 35.6153 95.8543 37.5312 96.0938C38.6959 96.2393 39.6539 97.0619 40.7812 97.3438C43.1368 97.9326 45.7232 98.0196 48.125 98.5C49.8288 98.8408 51.5197 99.6058 53.25 99.75C55.2709 99.9184 57.0037 98.7399 59 98.9062C59.4141 98.9408 59.8313 98.8817 60.25 98.9062C66.1256 97.6793 71.5797 95.3417 76.5 92.25C75.3076 91.9706 74.0889 91.7524 72.8125 91.4688C62.7556 89.2339 51.8407 93.3904 41.5312 92.5312C37.8865 92.2275 34.4685 90.2358 30.9375 89.5938Z" fill="#d8d8d8" fill-rule="evenodd" opacity="1" stroke="none"/>
</g>
<g id="Layer-1-copy-copy-copy_2" vectornator:layerName="Layer 1 copy copy copy">
<path d="M50 0C38.0067 0 27.1465 4.3978 18.5312 11.4375C17.1021 12.6053 15.6348 13.7148 14.3438 15.0312C13.0059 16.3953 11.8631 17.9279 10.6875 19.4375C10.0681 20.2329 9.32133 20.9172 8.75 21.75C7.34268 23.8014 6.24994 26.0562 5.15625 28.3125C4.33615 30.0044 3.6284 31.7395 3 33.5312C1.18293 38.7121 0 44.1984 0 50C0 51.8891 0.108461 53.7591 0.3125 55.5938C0.486153 57.1552 0.748421 58.6728 1.0625 60.1875C1.64066 62.9757 2.5411 65.653 3.5625 68.25C3.80996 68.8792 4.04057 69.5086 4.3125 70.125C5.15358 72.0316 6.18652 73.821 7.25 75.5938C8.11436 77.0346 9.03062 78.4082 10.0312 79.75C13.2382 84.0504 17.0057 87.8919 21.4063 90.9688C24.6036 93.2044 28.0969 94.991 31.7812 96.4375C37.4392 98.6589 43.554 100 50 100C53.5211 100 56.9345 99.5986 60.25 98.9062C66.1256 97.6793 71.5797 95.3417 76.5 92.25C81.0263 89.4059 84.9476 85.8193 88.3438 81.7188C91.284 78.1687 93.8723 74.3387 95.75 70.0625C95.7746 70.0065 95.8194 69.9623 95.8438 69.9062C96.5625 68.2528 96.9918 66.4593 97.5312 64.7188C98.9828 60.0355 100 55.1603 100 50C100 49.358 99.9302 48.7298 99.9062 48.0938C99.829 46.046 99.6288 44.04 99.3125 42.0625C99.1531 41.0662 98.9361 40.1008 98.7188 39.125C98.2927 37.2121 97.6383 35.3859 97 33.5625C95.2255 28.4933 92.7125 23.831 89.5 19.6562C87.4196 16.9527 85.0806 14.5068 82.5 12.2812C80.2834 10.3697 77.9364 8.6597 75.4062 7.15625C74.105 6.38305 72.7801 5.65499 71.4062 5C64.8958 1.89621 57.693 0 50 0Z" fill="url(#RadialGradient)" fill-rule="evenodd" opacity="1" stroke="none"/>
</g>
<g clip-path="url(#ArtboardFrame)" id="Layer-1-copy-copy-copy_3" vectornator:layerName="Layer 1 copy copy copy" visibility="hidden">
<path d="M-1.42109e-14 50C-1.42109e-14 22.3858 22.3858 0 50 0C77.6142 0 100 22.3858 100 50C100 77.6142 77.6142 100 50 100C22.3858 100-1.42109e-14 77.6142-1.42109e-14 50Z" fill="#c5c0b9" fill-rule="evenodd" opacity="1" stroke="none"/>
<path d="M5.40749 17.3696C6.12827 18.8112 9.53589 19.4632 10.9555 19.4632C13.4174 19.4632 16.074 19.6674 18.4924 19.1492C21.1432 18.5811 23.7315 17.9306 26.448 17.6837C30.1706 17.3453 34.1749 17.2688 37.8581 16.5322C39.3386 16.2361 40.8488 15.698 42.3593 15.5901C44.6951 15.4232 47.0455 15.8402 49.3728 15.6948C50.5969 15.6183 51.9077 15.2798 53.1412 15.4854C54.2024 15.6623 55.1716 16.206 56.2816 16.1135C62.4634 15.5983 68.537 14.0572 74.7051 13.4965C76.9249 13.2947 79.0902 12.4859 81.2999 12.2403C85.6627 11.7556 89.4023 13.8946 91.3491 17.7883C92.0458 19.1816 89.856 19.7415 88.7322 19.8819C85.2696 20.3148 81.954 21.7078 78.4736 21.9755C70.3651 22.5992 62.3599 20.7621 54.188 21.2428C50.0296 21.4874 45.9157 23.0751 41.8359 23.7551C40.1136 24.0421 38.2422 23.8597 36.4972 23.8597C32.5144 23.8597 28.5343 23.6616 24.5638 23.441C22.654 23.3349 20.8127 22.6178 18.9111 22.4989C15.6809 22.297 12.573 22.2693 9.3853 21.8708C6.3476 21.4911 1.5448 19.7703-1.29198 21.6615" fill="#cacaca" fill-rule="evenodd" opacity="1" stroke="none"/>
<path d="M3.10455 77.0368C3.10455 75.2422 5.49673 76.1935 6.873 75.7806C8.59539 75.2639 10.2592 73.5641 11.8976 72.7449C15.0713 71.1581 18.7891 72.5693 22.0515 73.2683C26.4413 74.209 30.9349 74.8355 35.3458 75.7806C38.7907 76.5189 41.4092 77.337 44.9762 76.8274C54.6023 75.4523 64.1085 72.4534 73.8677 71.8028C77.9065 71.5336 81.9449 72.639 86.0105 72.3262C87.2581 72.2303 88.3232 71.5092 89.4649 71.0701C91.302 70.3635 93.5691 69.9186 95.5363 69.9186C96.8623 69.9186 98.4719 69.4315 98.6767 71.0701C99.2588 75.7266 97.0932 78.3751 93.1287 80.1772C92.0842 80.6519 91.0145 81.5589 89.8836 81.7474C87.9249 82.0738 85.9491 81.3857 84.0216 81.6427C82.3893 81.8603 80.9241 82.8544 79.311 83.2129C77.3846 83.641 75.4001 83.283 73.449 83.5269C69.5765 84.011 65.8154 83.846 61.9343 84.0503C59.1593 84.1964 56.5955 85.313 53.7693 84.7831C50.2325 84.1199 46.2844 83.3567 42.8827 82.1661C38.3241 80.5706 33.9079 78.0994 28.9603 77.7696C24.6361 77.4813 20.4518 78.6705 16.1895 79.0257C10.558 79.495 4.94414 80.3715-0.559223 81.7474" fill="#cacaca" fill-rule="evenodd" opacity="1" stroke="none"/>
<path d="M50.7336 35.1651C50.8548 35.2954 51.0791 35.2698 51.257 35.2698C51.4777 35.2698 50.843 35.1139 50.6289 35.0604C50.4 35.0032 50.192 35.1742 50.0008 35.2698C49.1398 35.7003 48.3114 35.6607 47.3839 35.7932C44.9282 36.144 42.6085 37.0601 40.161 37.468C37.1471 37.9704 34.4816 36.6268 31.5773 36.2119C29.6549 35.9373 27.6627 36.3271 25.7153 36.0025C23.7417 35.6736 21.0494 35.1263 19.1205 35.8979C17.2654 36.6399 12.8502 37.8554 13.2584 40.7131C13.6244 43.2752 15.6744 43.0621 17.5503 43.3301C18.5677 43.4754 19.5825 43.7909 20.586 43.9582C22.69 44.3088 25.1296 43.4138 27.1808 43.1207C29.1358 42.8414 31.1806 43.5532 33.1475 43.2254C37.0074 42.5821 41.0203 42.7158 44.8716 42.0739C46.8451 41.745 48.8503 42.097 50.8383 41.6552C53.9408 40.9658 56.5098 38.8423 59.422 37.6774C60.9205 37.078 65.2396 35.8376 66.2261 34.8511C67.4313 33.6459 62.8766 32.6703 62.1436 32.5481C58.818 31.9938 57.7529 34.065 54.9208 34.537C53.9922 34.6918 53.0343 35.1651 52.0944 35.1651C51.5472 35.1651 50.2922 34.6905 50.7336 35.1651Z" fill="#727272" fill-rule="evenodd" opacity="1" stroke="none"/>
<path d="M76.5894 3.86601C76.5894 2.81008 74.278 4.5167 73.3443 4.70344C71.1836 5.13558 67.7975 5.59342 65.5981 5.22684C64.3551 5.01968 63.0363 5.46818 61.8296 5.22684C57.8202 4.42496 53.9345 5.33152 49.8962 5.33152C47.4625 5.33152 44.9502 4.14498 43.1967 6.48299C40.1968 10.4829 49.304 11.5076 51.571 11.5076C55.0237 11.5076 57.4843 10.5591 60.7828 10.1468C62.7046 9.90654 64.7668 10.5008 66.6448 9.93741C68.739 9.30917 70.6034 8.13344 72.7162 7.52978C74.1174 7.12944 75.7331 7.3616 77.1128 6.90171C77.9931 6.60825 78.685 6.01159 79.6251 5.85492C80.1614 5.76553 80.6822 5.84456 81.0906 5.4362" fill="#727272" fill-rule="evenodd" opacity="1" stroke="none"/>
<path d="M1.42968 66.9876C1.35945 66.9525 2.76211 68.0263 3.52327 68.2437C5.1547 68.7099 7.37273 68.8512 9.07127 68.6625C14.9042 68.0144 20.7504 66.7583 26.3433 64.894C30.6599 63.4552 34.6038 63.8472 39.0095 63.8472C42.3027 63.8472 45.7862 63.52 49.0587 63.8472C50.289 63.9702 51.4869 64.4564 52.7225 64.58C54.8991 64.7976 57.1335 64.4344 59.3173 64.58C61.974 64.7571 64.5916 65.7345 67.2729 65.9408C71.2446 66.2463 75.6763 65.3624 79.5204 64.4753C80.8039 64.1791 82.0062 63.3477 83.2888 63.1145C84.8338 62.8336 86.4234 62.6628 87.8947 62.1723C88.7845 61.8758 90.0844 61.5952 91.0351 61.7536C91.7193 61.8677 92.4253 63.0425 93.1287 63.3238C93.9912 63.6688 96.0597 64.4404 96.8971 64.58C98.2533 64.806 100.404 64.6836 100.038 66.8829C99.6327 69.3118 96.7813 69.8691 94.9082 70.3373C91.3468 71.2277 88.3086 70.5467 84.6497 70.5467C81.9393 70.5467 79.4395 71.239 76.7987 69.9186C75.03 69.0342 73.7235 67.5393 71.6695 67.1969C66.4101 66.3204 59.1782 67.0631 53.9787 67.9297C52.1052 68.2419 50.5991 68.9765 48.64 68.9765C43.9831 68.9765 39.3666 66.3509 34.613 67.3016C31.4745 67.9293 28.4935 69.9853 25.2965 70.442C23.483 70.7011 21.4855 70.756 19.6439 70.756C18.2731 70.756 16.7084 70.5311 15.352 70.3373C13.1496 70.0227 10.7267 70.7731 8.54787 70.3373C6.39833 69.9074 3.95844 69.9145 1.8484 70.442C0.268711 70.8369-1.36206 70.6168-2.54813 71.8028" fill="#727272" fill-rule="evenodd" opacity="1" stroke="none"/>
<path d="M104.434 39.9803C100.696 41.8495 95.7288 43.5415 91.5585 44.0628C89.4778 44.3229 87.7261 45.4552 85.5918 45.633C81.8597 45.944 77.996 45.5881 74.2864 46.0517C72.2658 46.3043 70.2111 45.8619 68.215 46.2611C65.4328 46.8175 61.6862 46.8233 59.6313 48.8781C58.958 49.5515 57.126 50.4133 57.6424 51.7044C58.0075 52.617 60.0805 52.9308 60.8875 53.0653C64.3135 53.6362 67.5936 53.0636 70.9367 52.2278C74.3345 51.3784 77.8611 51.4015 81.2999 50.9717C84.0167 50.6321 86.6479 49.6358 89.3602 49.2968C93.4852 48.7812 97.5214 48.8267 101.503 47.8313C104.717 47.0277 108.792 41.2256 107.679 37.8868" fill="#bebebe" fill-rule="evenodd" opacity="1" stroke="none"/>
<path d="M1.42968 26.7908C1.0427 26.5973 2.74078 26.8749 3.20923 27.2095C4.24121 27.9466 5.34513 28.6891 6.55897 29.0937C11.1384 30.6202 12.6687 30.8605 17.3409 29.3031C19.7353 28.505 22.2764 28.2411 24.6685 27.5235C27.7779 26.5907 31.1332 25.5433 34.4036 25.3253C35.5607 25.2481 36.622 25.5364 37.7534 25.6393C40.9852 25.9331 44.1882 25.7062 47.3839 26.1627C49.4739 26.4613 51.4227 26.21 53.4553 26.7908C55.7934 27.4588 58.5789 28.0469 60.9922 28.0469C61.3486 28.0469 63.1904 28.0197 63.1904 28.4656C63.1904 29.2832 59.8783 30.2096 59.3173 30.3499C55.3521 31.3412 51.2721 30.9405 47.2792 31.606C44.6303 32.0475 40.8507 32.0933 38.1721 31.7107C36.5803 31.4833 35.2507 30.5078 33.6709 30.3499C32.214 30.2042 30.715 30.7292 29.2744 30.8733C25.0539 31.2953 20.8128 31.2898 16.6082 31.8154C13.6434 32.186 10.559 34.3277 7.60576 34.3277C5.86836 34.3277 0.714914 33.4155-0.245185 31.8154C-0.882354 30.7534-1.1873 28.8057-1.1873 27.6282" fill="#bebebe" fill-rule="evenodd" opacity="1" stroke="none"/>
<path d="M14.8286 93.4714C14.3129 92.4399 20.346 91.3273 21.0047 91.0638C23.4006 90.1055 28.3725 89.1298 30.9492 89.5983C34.4803 90.2403 37.877 92.2256 41.5218 92.5293C51.8313 93.3884 62.764 89.2477 72.8209 91.4825C75.5482 92.0886 78.0557 92.2812 80.4625 93.7855C80.7037 93.9362 81.6915 94.177 81.8233 94.3089C82.2003 94.6859 80.9737 95.1853 80.7765 95.251C79.0828 95.8155 77.6309 96.5721 75.9613 97.2399C74.4736 97.835 70.2683 98.4229 68.6338 98.2867C67.5054 98.1927 66.4425 97.658 65.284 97.7633C64.2246 97.8596 63.3932 98.7067 62.353 98.9148C61.2447 99.1364 60.1111 99.0071 59.0033 98.9148C57.007 98.7484 55.2668 99.9206 53.2459 99.7522C51.5156 99.608 49.8205 98.8368 48.1166 98.496C45.7148 98.0157 43.1446 97.9335 40.7891 97.3446C39.6618 97.0627 38.7086 96.234 37.544 96.0884C35.0304 95.7742 32.4568 96.4103 30.0071 96.7165C28.2433 96.937 27.1494 95.5396 25.5059 95.7744C23.9707 95.9937 22.4845 96.6299 21.0047 96.9259C19.7211 97.1826 18.1174 96.9259 16.8175 96.9259" fill="#d8d8d8" fill-rule="evenodd" opacity="1" stroke="none"/>
<path d="M104.329 32.3388C100.159 32.3388 96.1765 34.1299 92.0819 34.6417C87.978 35.1547 84.2261 36.4855 80.2531 37.6774C73.9205 39.5772 67.5833 41.2377 61.3062 43.3301C58.6206 44.2253 55.5233 45.1964 53.1412 46.7845C52.3053 47.3418 51.6586 48.1015 50.7336 48.564C45.3788 51.2415 39.9724 52.5419 33.9849 52.5419C32.1781 52.5419 30.1093 52.7334 28.3322 52.4372C26.8109 52.1836 25.0865 51.8223 23.517 52.0185C19.266 52.5498 15.0282 53.3805 10.8508 53.9027C8.90168 54.1463 6.86868 53.9561 4.98878 54.4261C3.51603 54.7943 2.08712 55.364 0.592249 55.5776C-0.159351 55.6849-1.16075 55.5053-1.81537 55.9963C-3.05277 56.9243-3.26229 59.4908-1.92005 60.4975C-0.853936 61.2971 1.64999 59.7835 2.79051 59.5554C5.57266 58.9989 8.43963 57.9707 11.2695 57.5665C12.6095 57.375 14.0124 57.5485 15.352 57.3571C17.3211 57.0758 19.4306 57.6705 21.3187 57.9852C23.3376 58.3217 26.0724 58.1716 28.1229 57.9852C31.4028 57.687 34.5627 56.5281 37.7534 55.9963C40.3351 55.566 42.3834 54.1233 44.7669 53.1699C46.7183 52.3894 48.8847 51.9763 50.7336 50.867C53.0279 49.4904 55.4375 47.8338 57.9565 46.8892C62.0914 45.3386 66.6865 45.7401 70.9367 44.7956C74.4934 44.0052 77.7625 42.1755 81.4046 41.6552C83.7724 41.317 86.2447 41.5769 88.6275 41.2365C89.8035 41.0685 90.8033 40.4621 91.9772 40.2944C92.9428 40.1564 94.048 40.3827 95.0129 40.1897C97.8855 39.6152 100.645 38.3821 103.387 37.468C105.496 36.7651 108.852 36.3363 110.191 34.3277" fill="#d8d8d8" fill-rule="evenodd" opacity="1" stroke="none"/>
<path d="M15.9801 9.09997C13.9238 8.41453 16.8426 11.3957 18.0737 11.5076C20.128 11.6944 21.756 10.5329 23.7264 10.2514C25.7815 9.95785 28.4689 10.3204 30.4258 10.8795C31.0394 11.0548 34.5291 12.7429 33.4615 13.8105C32.7638 14.5083 31.5962 14.508 30.7399 14.7527C28.1099 15.5041 25.8564 15.5901 23.0983 15.5901C18.5279 15.5901 13.9981 15.0826 9.48998 14.4386C6.42541 14.0008 3.43048 14.5155 0.38289 13.6012C-1.46867 13.0457-2.93803 11.522-4.64171 10.6702" fill="#d8d8d8" fill-rule="evenodd" opacity="1" stroke="none"/>
</g>
</svg>
