<?xml version="1.0" encoding="UTF-8" standalone="no"?>
<!DOCTYPE svg PUBLIC "-//W3C//DTD SVG 1.1//EN" "http://www.w3.org/Graphics/SVG/1.1/DTD/svg11.dtd">
<!-- © 2022 Rik Rosseel -->
<!-- Created with Vectornator (http://vectornator.io/) -->
<svg height="100%" stroke-miterlimit="10" style="fill-rule:nonzero;clip-rule:evenodd;stroke-linecap:round;stroke-linejoin:round;" version="1.1" viewBox="0 0 100 100" width="100%" xml:space="preserve" xmlns="http://www.w3.org/2000/svg" xmlns:vectornator="http://vectornator.io" xmlns:xlink="http://www.w3.org/1999/xlink">
<metadata>
<vectornator:setting key="IsTimeLapseWatermarkDisabled" value="false"/>
<vectornator:setting key="UndoHistoryDisabled" value="true"/>
<vectornator:setting key="VNDimensionsVisible" value="true"/>
<vectornator:setting key="VNSnapToGuides" value="true"/>
<vectornator:setting key="WDCMYKEnabledKey" value="false"/>
<vectornator:setting key="WDDisplayWhiteBackground" value="false"/>
<vectornator:setting key="WDDynamicGuides" value="false"/>
<vectornator:setting key="WDGuidesVisible" value="true"/>
<vectornator:setting key="WDIsolateActiveLayer" value="false"/>
<vectornator:setting key="WDOutlineMode" value="false"/>
<vectornator:setting key="WDRulersVisible" value="true"/>
<vectornator:setting key="WDSnapToEdges" value="false"/>
<vectornator:setting key="WDSnapToGrid" value="false"/>
<vectornator:setting key="WDSnapToPoints" value="false"/>
<vectornator:setting key="WDUnits" value="Points"/>
</metadata>
<defs>
<radialGradient cx="-20.0108" cy="51.6034" gradientTransform="matrix(1 0 0 1 0 0)" gradientUnits="userSpaceOnUse" id="RadialGradient" r="162.94">
<stop offset="0" stop-color="#ffffff" stop-opacity="0.188337"/>
<stop offset="0.27686" stop-color="#c5c0b9" stop-opacity="0"/>
<stop offset="0.578512" stop-color="#000000" stop-opacity="0.743241"/>
<stop offset="0.690083" stop-color="#000000"/>
</radialGradient>
</defs>
<clipPath id="ArtboardFrame">
<rect height="100" width="100" x="0" y="0"/>
</clipPath>
<g clip-path="url(#ArtboardFrame)" id="Layer-1" vectornator:layerName="Layer 1" visibility="hidden">
<path d="M-1.42109e-14 50C-1.42109e-14 22.3858 22.3858 7.10543e-15 50 7.10543e-15C77.6142 7.10543e-15 100 22.3858 100 50C100 77.6142 77.6142 100 50 100C22.3858 100-1.42109e-14 77.6142-1.42109e-14 50Z" fill="#c5c0b9" fill-rule="evenodd" opacity="1" stroke="none"/>
</g>
<g id="Layer-1-copy-copy" vectornator:layerName="Layer 1 copy copy">
<path d="M49.5 0C37.6266 0 26.875 4.3978 18.3459 11.4375C16.9311 12.6053 15.4785 13.7148 14.2003 15.0312C12.8759 16.3953 11.7444 17.9279 10.5806 19.4375C9.96741 20.2329 9.22812 20.9172 8.6625 21.75C7.26925 23.8014 6.18744 26.0562 5.10469 28.3125C4.29278 30.0044 3.59211 31.7395 2.97 33.5312C1.1711 38.7121 0 44.1984 0 50C0 51.8891 0.107376 53.7591 0.309375 55.5938C0.481291 57.1552 0.740937 58.6728 1.05187 60.1875C1.62425 62.9757 2.51569 65.653 3.52687 68.25C3.77186 68.8792 4.00016 69.5086 4.26938 70.125C5.10205 72.0316 6.12466 73.821 7.1775 75.5938C8.03322 77.0346 8.94031 78.4082 9.93094 79.75C13.1058 84.0504 16.8356 87.8919 21.1922 90.9688C24.3576 93.2044 27.816 94.991 31.4634 96.4375C37.0648 98.6589 43.1185 100 49.5 100C52.9858 100 56.3652 99.5986 59.6475 98.9062C65.4644 97.6793 70.8639 95.3417 75.735 92.25C80.216 89.4059 84.0981 85.8193 87.4603 81.7188C90.3712 78.1687 92.9336 74.3387 94.7925 70.0625C94.8168 70.0065 94.8612 69.9623 94.8853 69.9062C95.5969 68.2528 96.0219 66.4593 96.5559 64.7188C97.9929 60.0355 99 55.1603 99 50C99 49.358 98.9309 48.7298 98.9072 48.0938C98.8308 46.046 98.6325 44.04 98.3194 42.0625C98.1616 41.0662 97.9467 40.1008 97.7316 39.125C97.3098 37.2121 96.6619 35.3859 96.03 33.5625C94.2732 28.4933 91.7854 23.831 88.605 19.6562C86.5454 16.9527 84.2298 14.5068 81.675 12.2812C79.4806 10.3697 77.157 8.6597 74.6522 7.15625C73.364 6.38305 72.0523 5.65499 70.6922 5C64.2469 1.89621 57.116 0 49.5 0Z" fill="#c5c0b9" fill-rule="evenodd" opacity="1" stroke="none"/>
</g>
<g id="Layer-1-copy-copy-copy" vectornator:layerName="Layer 1 copy copy copy">
<path d="M49.5 0C37.6266 0 26.875 4.3978 18.3459 11.4375C20.156 11.4212 21.6895 10.5086 23.4816 10.25C25.5162 9.95641 28.1958 10.3159 30.1331 10.875C30.7405 11.0503 34.191 12.7449 33.1341 13.8125C32.4433 14.5102 31.2902 14.5053 30.4425 14.75C27.8389 15.5014 25.5933 15.5937 22.8628 15.5938C19.9546 15.5938 17.0803 15.352 14.2003 15.0312C12.8759 16.3953 11.7444 17.9279 10.5806 19.4375C10.6523 19.4402 10.7951 19.4688 10.8591 19.4688C13.2964 19.4688 15.9208 19.6745 18.315 19.1562C20.9393 18.5882 23.4838 17.9345 26.1731 17.6875C29.8585 17.3491 33.819 17.2679 37.4653 16.5312C38.9311 16.2351 40.425 15.7016 41.9203 15.5938C44.2328 15.4269 46.5772 15.833 48.8812 15.6875C50.0931 15.611 51.4035 15.2944 52.6247 15.5C53.6752 15.6769 54.6195 16.2175 55.7184 16.125C61.8385 15.6098 67.8651 14.0607 73.9716 13.5C76.1691 13.2982 78.3118 12.4955 80.4994 12.25C80.9097 12.204 81.2769 12.2807 81.675 12.2812C79.4806 10.3697 77.157 8.6597 74.6522 7.15625C73.7496 7.23031 72.8374 7.28715 71.9916 7.53125C69.8999 8.13491 68.0629 9.30927 65.9897 9.9375C64.1304 10.5009 62.076 9.91602 60.1734 10.1562C56.9079 10.5686 54.465 11.5 51.0469 11.5C48.8025 11.5 39.7857 10.4686 42.7556 6.46875C44.4916 4.13073 46.9979 5.34375 49.4072 5.34375C53.4052 5.34375 57.256 4.41687 61.2253 5.21875C62.4199 5.46009 63.7073 5.01159 64.9378 5.21875C66.566 5.49285 68.7487 5.29236 70.6922 5C64.2469 1.89621 57.116 0 49.5 0Z" fill="#c5c0b9" fill-rule="evenodd" opacity="1" stroke="none"/>
<path d="M88.605 19.6562C88.3364 19.7187 88.0488 19.8476 87.8316 19.875C84.4036 20.3078 81.1297 21.701 77.6841 21.9688C69.6567 22.5925 61.7358 20.7693 53.6456 21.25C49.5288 21.4946 45.4644 23.07 41.4253 23.75C39.7202 24.0371 37.8626 23.875 36.135 23.875C32.192 23.875 28.2477 23.6581 24.3169 23.4375C22.4262 23.3314 20.5998 22.6189 18.7172 22.5C15.5193 22.2981 12.437 22.2735 9.28125 21.875C9.10679 21.853 8.848 21.7801 8.6625 21.75C7.26925 23.8014 6.18744 26.0562 5.10469 28.3125C5.57341 28.5759 5.99261 28.924 6.49688 29.0938C11.0305 30.6202 12.5448 30.8699 17.1703 29.3125C19.5407 28.5144 22.0415 28.2489 24.4097 27.5312C27.488 26.5984 30.8244 25.5305 34.0622 25.3125C35.2077 25.2354 36.2524 25.5221 37.3725 25.625C40.572 25.9188 43.7376 25.6997 46.9012 26.1562C48.9703 26.4548 50.9218 26.2005 52.9341 26.7812C55.2488 27.4493 58.0008 28.0625 60.39 28.0625C60.7429 28.0625 62.5556 28.0229 62.5556 28.4688C62.5556 29.2864 59.2748 30.2035 58.7194 30.3438C54.7938 31.3351 50.7614 30.9283 46.8084 31.5938C44.1861 32.0352 40.4575 32.1014 37.8056 31.7188C36.2298 31.4914 34.8837 30.5017 33.3197 30.3438C31.8773 30.1981 30.4147 30.7309 28.9884 30.875C24.8102 31.297 20.5904 31.2869 16.4278 31.8125C13.4927 32.1831 10.4415 34.3125 7.51781 34.3125C6.58555 34.3125 4.68977 34.0315 2.97 33.5312C1.1711 38.7121 0 44.1984 0 50C0 51.8891 0.107376 53.7591 0.309375 55.5938C0.398756 55.5876 0.503878 55.5746 0.587812 55.5625C2.06774 55.3489 3.49198 54.8057 4.95 54.4375C6.81111 53.9675 8.80567 54.1499 10.7353 53.9062C14.871 53.3841 19.0874 52.5626 23.2959 52.0312C24.8497 51.8351 26.5542 52.1839 28.0603 52.4375C29.8196 52.7337 31.8712 52.5312 33.66 52.5312C39.5876 52.5313 44.9103 51.2399 50.2116 48.5625C51.1273 48.1 51.7971 47.3385 52.6247 46.7812C54.983 45.1932 58.0406 44.239 60.6994 43.3438C66.9137 41.2514 73.1782 39.5873 79.4475 37.6875C83.3808 36.4956 87.1099 35.1692 91.1728 34.6562C92.8055 34.4501 94.4139 33.9831 96.03 33.5625C94.2732 28.4933 91.7854 23.831 88.605 19.6562Z" fill="#c5c0b9" fill-rule="evenodd" opacity="1" stroke="none"/>
<path d="M97.7316 39.125C96.5226 39.5465 95.2938 39.9362 94.05 40.1875C93.0948 40.3805 92.005 40.1433 91.0491 40.2812C89.8869 40.4489 88.903 41.082 87.7387 41.25C85.3798 41.5904 82.9363 41.318 80.5922 41.6562C76.9865 42.1765 73.7493 43.9909 70.2281 44.7812C66.0204 45.7257 61.4827 45.3244 57.3891 46.875C54.8953 47.8196 52.4829 49.4984 50.2116 50.875C48.3812 51.9843 46.2653 52.3757 44.3334 53.1562C41.9738 54.1096 39.9284 55.5697 37.3725 56C34.2137 56.5318 31.0908 57.7018 27.8438 58C25.8138 58.1864 23.098 58.3365 21.0994 58C19.2301 57.6853 17.1397 57.0625 15.1903 57.3438C13.864 57.5351 12.495 57.3711 11.1684 57.5625C8.36684 57.9668 5.50777 59.0061 2.75344 59.5625C2.3438 59.6453 1.68441 59.9382 1.05187 60.1875C1.62425 62.9757 2.51569 65.653 3.52687 68.25C5.13941 68.71 7.29964 68.8439 8.97188 68.6562C14.7465 68.0081 20.5433 66.7706 26.0803 64.9062C30.3537 63.4674 34.2483 63.8437 38.61 63.8438C41.8703 63.8437 45.3321 63.5165 48.5719 63.8438C49.7898 63.9668 50.9683 64.4702 52.1916 64.5938C54.3464 64.8114 56.5574 64.4482 58.7194 64.5938C61.3495 64.7709 63.9539 65.7312 66.6084 65.9375C70.5404 66.243 74.9303 65.3558 78.7359 64.4688C80.0066 64.1726 81.1786 63.3582 82.4484 63.125C83.978 62.8441 85.5705 62.678 87.0272 62.1875C87.9081 61.8909 89.1798 61.5916 90.1209 61.75C90.7983 61.864 91.4974 63.0311 92.1937 63.3125C93.0476 63.6575 95.1081 64.4542 95.9372 64.5938C96.1268 64.6257 96.3441 64.6932 96.5559 64.7188C97.9929 60.0355 99 55.1603 99 50C99 49.358 98.9309 48.7298 98.9072 48.0938C95.4764 48.7414 92.0221 48.8342 88.4812 49.2812C85.796 49.6203 83.1889 50.6292 80.4994 50.9688C77.0949 51.3986 73.5919 51.3693 70.2281 52.2188C66.9185 53.0545 63.658 53.6335 60.2662 53.0625C59.4673 52.928 57.4411 52.6314 57.0797 51.7188C56.5684 50.4276 58.3621 49.5484 59.0288 48.875C61.063 46.8202 64.7822 46.8064 67.5366 46.25C69.5126 45.8508 71.538 46.3151 73.5384 46.0625C77.2109 45.5988 81.0431 45.936 84.7378 45.625C86.8508 45.4471 88.587 44.3226 90.6469 44.0625C93.0908 43.7539 95.7386 42.9855 98.3194 42.0625C98.1616 41.0662 97.9467 40.1008 97.7316 39.125Z" fill="#c5c0b9" fill-rule="evenodd" opacity="1" stroke="none"/>
<path d="M87.4603 81.7188C86.0234 81.6675 84.6018 81.4662 83.1909 81.6562C81.575 81.8739 80.1163 82.8603 78.5194 83.2188C76.6122 83.6468 74.6348 83.2874 72.7031 83.5312C68.8694 84.0153 65.1604 83.8582 61.3181 84.0625C58.5709 84.2085 56.0414 85.3112 53.2434 84.7812C49.742 84.1181 45.8139 83.3469 42.4462 82.1562C37.9333 80.5608 33.5772 78.1111 28.6791 77.7812C24.398 77.493 20.2454 78.676 16.0256 79.0312C13.9847 79.203 11.9627 79.4645 9.93094 79.75C13.1058 84.0504 16.8356 87.8919 21.1922 90.9688C23.6596 90.0508 28.1819 89.1445 30.6281 89.5938C34.1239 90.2358 37.5076 92.2275 41.1159 92.5312C51.3223 93.3904 62.128 89.2339 72.0844 91.4688C73.348 91.7524 74.5546 91.9706 75.735 92.25C80.216 89.4059 84.0981 85.8193 87.4603 81.7188Z" fill="#c5c0b9" fill-rule="evenodd" opacity="1" stroke="none"/>
<path d="M59.6475 98.9062C59.233 98.8817 58.82 98.9408 58.41 98.9062C56.4337 98.7399 54.7182 99.9184 52.7175 99.75C51.0045 99.6058 49.3305 98.8408 47.6437 98.5C45.266 98.0196 42.7054 97.9326 40.3734 97.3438C39.2574 97.0619 38.3089 96.2393 37.1559 96.0938C35.2591 95.8543 33.3486 96.1397 31.4634 96.4375C37.0648 98.6589 43.1184 100 49.5 100C52.9858 100 56.3652 99.5986 59.6475 98.9062Z" fill="#c5c0b9" fill-rule="evenodd" opacity="1" stroke="none"/>
<path d="M7.1775 75.5938C8.75172 74.9657 10.2825 73.5099 11.7872 72.75C14.9292 71.1631 18.6122 72.5822 21.8419 73.2812C26.1878 74.2219 30.6236 74.8361 34.9903 75.7812C38.4008 76.5195 40.9877 77.3221 44.5191 76.8125C54.0488 75.4374 63.4746 72.4631 73.1363 71.8125C77.1347 71.5432 81.115 72.6252 85.14 72.3125C86.3751 72.2165 87.4438 71.5016 88.5741 71.0625C88.9674 70.9097 89.4167 70.814 89.8425 70.6875C87.8934 70.6776 85.9546 70.5313 83.8097 70.5312C81.1264 70.5312 78.6588 71.2266 76.0444 69.9062C74.2933 69.0219 72.9732 67.5299 70.9397 67.1875C65.733 66.3109 58.5766 67.0709 53.4291 67.9375C51.5744 68.2497 50.0782 68.9688 48.1388 68.9688C43.5284 68.9688 38.9848 66.3618 34.2788 67.3125C31.1716 67.9402 28.1935 69.9808 25.0284 70.4375C23.233 70.6966 21.2829 70.75 19.4597 70.75C18.1026 70.75 16.5331 70.5375 15.1903 70.3438C13.0099 70.0291 10.634 70.7795 8.47687 70.3438C7.1349 70.0726 5.686 70.0276 4.26938 70.125C5.10205 72.0316 6.12466 73.821 7.1775 75.5938Z" fill="#c5c0b9" fill-rule="evenodd" opacity="1" stroke="none"/>
<path d="M89.8425 70.6875C91.1851 70.6943 92.5191 70.7069 93.9572 70.3438C94.2085 70.2803 94.5141 70.1337 94.7925 70.0625C94.8168 70.0065 94.8612 69.9623 94.8853 69.9062C94.7802 69.9109 94.6785 69.9062 94.5759 69.9062C93.0496 69.9062 91.3857 70.2292 89.8425 70.6875Z" fill="#727272" fill-rule="evenodd" opacity="1" stroke="none"/>
<path d="M59.4 32.5625C60.0057 32.4389 60.7116 32.4239 61.5347 32.5625C62.2604 32.6847 66.7496 33.6386 65.5566 34.8438C64.5799 35.8302 60.3267 37.0881 58.8431 37.6875C55.9601 38.8524 53.4068 40.9668 50.3353 41.6562C48.3672 42.098 46.38 41.7336 44.4262 42.0625C40.6135 42.7044 36.646 42.5754 32.8247 43.2188C30.8774 43.5466 28.8511 42.8457 26.9156 43.125C24.8849 43.418 22.4707 44.3194 20.3878 43.9688C19.3943 43.8015 18.3941 43.4891 17.3869 43.3438C15.5297 43.0758 13.4799 43.2808 13.1175 40.7188C12.7133 37.8611 17.0973 36.6483 18.9337 35.9062C20.8433 35.1347 23.5078 35.6711 25.4616 36C27.3895 36.3246 29.3437 35.9441 31.2469 36.2188C34.1222 36.6337 36.7709 37.9711 39.7547 37.4688C42.1777 37.0608 44.4701 36.1321 46.9012 35.7812C47.8195 35.6488 48.6476 35.7118 49.5 35.2812C49.6893 35.1857 49.8921 35.0053 50.1187 35.0625C50.1726 35.0761 50.1866 35.1024 50.2734 35.125C50.161 34.8559 51.0852 35.1562 51.5728 35.1562C52.5033 35.1562 53.4379 34.686 54.3572 34.5312C56.4601 34.1772 57.583 32.9333 59.4 32.5625Z" fill="#727272" fill-rule="evenodd" opacity="1" stroke="none"/>
<path d="M55.3162 4.96875C53.3576 5.10023 51.4062 5.34375 49.4072 5.34375C46.9979 5.34375 44.4916 4.13073 42.7556 6.46875C39.7857 10.4686 48.8025 11.5 51.0469 11.5C54.465 11.5 56.9079 10.5686 60.1734 10.1562C62.076 9.91602 64.1304 10.5009 65.9897 9.9375C68.0629 9.30927 69.8999 8.13491 71.9916 7.53125C72.8374 7.28715 73.7496 7.23031 74.6522 7.15625C73.364 6.38305 72.0523 5.65499 70.6922 5C68.7487 5.29236 66.566 5.49285 64.9378 5.21875C63.7073 5.01159 62.4199 5.46009 61.2253 5.21875C59.2407 4.81781 57.2749 4.83727 55.3162 4.96875Z" fill="#727272" fill-rule="evenodd" opacity="1" stroke="none"/>
<path d="M23.4816 10.25C21.6895 10.5086 20.156 11.4212 18.3459 11.4375C16.9311 12.6053 15.4785 13.7148 14.2003 15.0312C17.0803 15.352 19.9546 15.5938 22.8628 15.5938C25.5933 15.5937 27.8389 15.5014 30.4425 14.75C31.2902 14.5053 32.4433 14.5102 33.1341 13.8125C34.191 12.7449 30.7405 11.0503 30.1331 10.875C28.1958 10.3159 25.5162 9.95641 23.4816 10.25Z" fill="#d8d8d8" fill-rule="evenodd" opacity="1" stroke="none"/>
<path d="M80.4994 12.25C78.3118 12.4955 76.1691 13.2982 73.9716 13.5C67.8651 14.0607 61.8385 15.6098 55.7184 16.125C54.6195 16.2175 53.6752 15.6769 52.6247 15.5C51.4035 15.2944 50.0931 15.611 48.8812 15.6875C46.5772 15.833 44.2328 15.4269 41.9203 15.5938C40.425 15.7016 38.9311 16.2351 37.4653 16.5312C33.819 17.2679 29.8585 17.3491 26.1731 17.6875C23.4838 17.9345 20.9393 18.5882 18.315 19.1562C15.9208 19.6745 13.2964 19.4688 10.8591 19.4688C10.7951 19.4688 10.6523 19.4402 10.5806 19.4375C9.96741 20.2329 9.22812 20.9172 8.6625 21.75C8.848 21.7801 9.10679 21.853 9.28125 21.875C12.437 22.2735 15.5193 22.2981 18.7172 22.5C20.5998 22.6189 22.4262 23.3314 24.3169 23.4375C28.2477 23.6581 32.192 23.875 36.135 23.875C37.8626 23.875 39.7202 24.0371 41.4253 23.75C45.4644 23.07 49.5288 21.4946 53.6456 21.25C61.7358 20.7693 69.6567 22.5925 77.6841 21.9688C81.1297 21.701 84.4036 20.3078 87.8316 19.875C88.0488 19.8476 88.3364 19.7187 88.605 19.6562C86.5454 16.9527 84.2298 14.5068 81.675 12.2812C81.2768 12.2807 80.9097 12.204 80.4994 12.25Z" fill="#cacaca" fill-rule="evenodd" opacity="1" stroke="none"/>
<path d="M34.0622 25.3125C30.8244 25.5305 27.488 26.5984 24.4097 27.5312C22.0415 28.2489 19.5407 28.5144 17.1703 29.3125C12.5448 30.8699 11.0305 30.6202 6.49688 29.0938C5.99261 28.924 5.57341 28.5759 5.10469 28.3125C4.29278 30.0044 3.59211 31.7395 2.97 33.5312C4.68977 34.0315 6.58555 34.3125 7.51781 34.3125C10.4415 34.3125 13.4927 32.1831 16.4278 31.8125C20.5904 31.2869 24.8102 31.297 28.9884 30.875C30.4147 30.7309 31.8773 30.1981 33.3197 30.3438C34.8837 30.5017 36.2298 31.4914 37.8056 31.7188C40.4575 32.1014 44.1861 32.0352 46.8084 31.5938C50.7614 30.9283 54.7938 31.3351 58.7194 30.3438C59.2748 30.2035 62.5556 29.2864 62.5556 28.4688C62.5556 28.0229 60.7429 28.0625 60.39 28.0625C58.0008 28.0625 55.2488 27.4493 52.9341 26.7812C50.9218 26.2005 48.9703 26.4548 46.9012 26.1562C43.7376 25.6997 40.572 25.9188 37.3725 25.625C36.2524 25.5221 35.2077 25.2354 34.0622 25.3125Z" fill="#bebebe" fill-rule="evenodd" opacity="1" stroke="none"/>
<path d="M59.4 32.5625C57.583 32.9333 56.4601 34.1772 54.3572 34.5312C53.4379 34.686 52.5033 35.1562 51.5728 35.1562C51.0852 35.1562 51.0685 34.9493 50.6996 34.8961C50.3306 34.8429 50.3968 34.8471 50.097 34.9434C49.7971 35.0397 49.6893 35.1857 49.5 35.2812C48.6476 35.7118 47.8195 35.6488 46.9012 35.7812C44.4701 36.1321 42.1777 37.0608 39.7547 37.4688C36.7709 37.9711 34.1222 36.6337 31.2469 36.2188C29.3437 35.9441 27.3895 36.3246 25.4616 36C23.5078 35.6711 20.8433 35.1347 18.9337 35.9062C17.0973 36.6483 12.7133 37.8611 13.1175 40.7188C13.4798 43.2808 15.5297 43.0758 17.3869 43.3438C18.3941 43.4891 19.3943 43.8015 20.3878 43.9688C22.4707 44.3194 24.8849 43.418 26.9156 43.125C28.8511 42.8457 30.8774 43.5466 32.8247 43.2188C36.646 42.5754 40.6135 42.7044 44.4262 42.0625C46.38 41.7336 48.3672 42.098 50.3353 41.6562C53.4068 40.9668 55.9601 38.8524 58.8431 37.6875C60.3267 37.0881 64.5799 35.8302 65.5566 34.8438C66.7496 33.6386 62.2604 32.6847 61.5347 32.5625C60.7116 32.4239 60.0057 32.4389 59.4 32.5625Z" fill="#727272" fill-rule="evenodd" opacity="1" stroke="none"/>
<path d="M96.03 33.5625C94.4139 33.9831 92.8055 34.4501 91.1728 34.6562C87.1099 35.1692 83.3808 36.4956 79.4475 37.6875C73.1782 39.5873 66.9137 41.2514 60.6994 43.3438C58.0406 44.239 54.983 45.1932 52.6247 46.7812C51.7971 47.3385 51.1273 48.1 50.2116 48.5625C44.9103 51.2399 39.5876 52.5313 33.66 52.5312C31.8712 52.5312 29.8196 52.7337 28.0603 52.4375C26.5542 52.1839 24.8497 51.8351 23.2959 52.0312C19.0874 52.5626 14.871 53.3841 10.7353 53.9062C8.80567 54.1499 6.81111 53.9675 4.95 54.4375C3.49198 54.8057 2.06774 55.3489 0.587812 55.5625C0.503878 55.5746 0.398756 55.5876 0.309375 55.5938C0.481291 57.1552 0.740937 58.6728 1.05187 60.1875C1.68441 59.9382 2.3438 59.6453 2.75344 59.5625C5.50777 59.0061 8.36684 57.9668 11.1684 57.5625C12.495 57.3711 13.864 57.5351 15.1903 57.3438C17.1397 57.0625 19.2301 57.6853 21.0994 58C23.098 58.3365 25.8138 58.1864 27.8438 58C31.0908 57.7018 34.2137 56.5318 37.3725 56C39.9284 55.5697 41.9738 54.1096 44.3334 53.1562C46.2653 52.3757 48.3812 51.9843 50.2116 50.875C52.4829 49.4984 54.8953 47.8196 57.3891 46.875C61.4827 45.3244 66.0204 45.7257 70.2281 44.7812C73.7493 43.9909 76.9865 42.1765 80.5922 41.6562C82.9363 41.318 85.3798 41.5904 87.7387 41.25C88.903 41.082 89.8869 40.4489 91.0491 40.2812C92.005 40.1433 93.0948 40.3805 94.05 40.1875C95.2938 39.9362 96.5226 39.5465 97.7316 39.125C97.3098 37.2121 96.6619 35.3859 96.03 33.5625Z" fill="#d8d8d8" fill-rule="evenodd" opacity="1" stroke="none"/>
<path d="M98.3194 42.0625C95.7386 42.9855 93.0908 43.7539 90.6469 44.0625C88.587 44.3226 86.8508 45.4471 84.7378 45.625C81.0431 45.936 77.2109 45.5988 73.5384 46.0625C71.538 46.3151 69.5126 45.8508 67.5366 46.25C64.7822 46.8064 61.063 46.8202 59.0288 48.875C58.3621 49.5484 56.5684 50.4276 57.0797 51.7188C57.4411 52.6314 59.4673 52.928 60.2662 53.0625C63.658 53.6335 66.9185 53.0545 70.2281 52.2188C73.5919 51.3693 77.0949 51.3986 80.4994 50.9688C83.1889 50.6292 85.796 49.6203 88.4812 49.2812C92.0221 48.8342 95.4764 48.7414 98.9072 48.0938C98.8308 46.046 98.6325 44.04 98.3194 42.0625Z" fill="#bebebe" fill-rule="evenodd" opacity="1" stroke="none"/>
<path d="M90.1209 61.75C89.1798 61.5915 87.9081 61.8909 87.0272 62.1875C85.5705 62.678 83.978 62.8441 82.4484 63.125C81.1786 63.3582 80.0066 64.1726 78.7359 64.4688C74.9303 65.3558 70.5404 66.243 66.6084 65.9375C63.9539 65.7312 61.3495 64.7709 58.7194 64.5938C56.5574 64.4482 54.3464 64.8114 52.1916 64.5938C50.9683 64.4702 49.7898 63.9668 48.5719 63.8438C45.3321 63.5165 41.8703 63.8437 38.61 63.8438C34.2483 63.8437 30.3537 63.4674 26.0803 64.9062C20.5433 66.7706 14.7465 68.0081 8.97188 68.6562C7.29964 68.8439 5.13941 68.71 3.52687 68.25C3.77186 68.8792 4.00016 69.5086 4.26938 70.125C5.686 70.0276 7.1349 70.0726 8.47687 70.3438C10.634 70.7795 13.0099 70.0291 15.1903 70.3438C16.5331 70.5375 18.1026 70.75 19.4597 70.75C21.2829 70.75 23.233 70.6966 25.0284 70.4375C28.1935 69.9808 31.1716 67.9402 34.2788 67.3125C38.9848 66.3618 43.5284 68.9688 48.1388 68.9688C50.0782 68.9687 51.5744 68.2497 53.4291 67.9375C58.5766 67.0709 65.733 66.3109 70.9397 67.1875C72.9732 67.5299 74.2933 69.0219 76.0444 69.9062C78.6588 71.2266 81.1264 70.5312 83.8097 70.5312C85.9546 70.5313 87.8934 70.6776 89.8425 70.6875C91.3857 70.2292 93.0496 69.9062 94.5759 69.9062C94.6785 69.9063 94.7802 69.9109 94.8853 69.9062C95.5969 68.2528 96.0219 66.4593 96.5559 64.7188C96.3441 64.6932 96.1268 64.6257 95.9372 64.5938C95.1081 64.4542 93.0476 63.6575 92.1937 63.3125C91.4974 63.0311 90.7983 61.864 90.1209 61.75Z" fill="#727272" fill-rule="evenodd" opacity="1" stroke="none"/>
<path d="M94.7925 70.0625C94.5141 70.1337 94.2085 70.2803 93.9572 70.3438C92.5191 70.7069 91.1851 70.6943 89.8425 70.6875C89.4166 70.814 88.9674 70.9097 88.5741 71.0625C87.4438 71.5016 86.3751 72.2165 85.14 72.3125C81.115 72.6252 77.1347 71.5432 73.1363 71.8125C63.4746 72.4631 54.0488 75.4374 44.5191 76.8125C40.9877 77.3221 38.4008 76.5195 34.9903 75.7812C30.6236 74.8361 26.1878 74.2219 21.8419 73.2812C18.6122 72.5822 14.9292 71.1631 11.7872 72.75C10.2825 73.5099 8.75172 74.9657 7.1775 75.5938C8.03322 77.0346 8.94031 78.4082 9.93094 79.75C11.9627 79.4645 13.9847 79.203 16.0256 79.0312C20.2454 78.676 24.398 77.493 28.6791 77.7812C33.5772 78.1111 37.9333 80.5608 42.4462 82.1562C45.8139 83.3469 49.742 84.1181 53.2434 84.7812C56.0414 85.3112 58.5709 84.2085 61.3181 84.0625C65.1604 83.8582 68.8694 84.0153 72.7031 83.5312C74.6348 83.2874 76.6122 83.6468 78.5194 83.2188C80.1163 82.8603 81.575 81.8739 83.1909 81.6562C84.6018 81.4662 86.0234 81.6675 87.4603 81.7188C90.3712 78.1687 92.9336 74.3387 94.7925 70.0625Z" fill="#cacaca" fill-rule="evenodd" opacity="1" stroke="none"/>
<path d="M30.6281 89.5938C28.1819 89.1445 23.6596 90.0508 21.1922 90.9688C24.3576 93.2044 27.816 94.991 31.4634 96.4375C33.3486 96.1397 35.2591 95.8543 37.1559 96.0938C38.3089 96.2393 39.2574 97.0619 40.3734 97.3438C42.7054 97.9326 45.266 98.0196 47.6437 98.5C49.3306 98.8408 51.0045 99.6058 52.7175 99.75C54.7182 99.9184 56.4337 98.7399 58.41 98.9062C58.82 98.9408 59.233 98.8817 59.6475 98.9062C65.4644 97.6793 70.8639 95.3417 75.735 92.25C74.5546 91.9706 73.348 91.7524 72.0844 91.4688C62.128 89.2339 51.3223 93.3904 41.1159 92.5312C37.5076 92.2275 34.1239 90.2358 30.6281 89.5938Z" fill="#d8d8d8" fill-rule="evenodd" opacity="1" stroke="none"/>
</g>
<g id="Layer-1-copy-copy-copy_2" vectornator:layerName="Layer 1 copy copy copy">
<path d="M50 0C38.0067 0 27.1465 4.3978 18.5312 11.4375C17.1021 12.6053 15.6348 13.7148 14.3438 15.0312C13.0059 16.3953 11.8631 17.9279 10.6875 19.4375C10.0681 20.2329 9.32133 20.9172 8.75 21.75C7.34268 23.8014 6.24994 26.0562 5.15625 28.3125C4.33615 30.0044 3.6284 31.7395 3 33.5312C1.18293 38.7121 0 44.1984 0 50C0 51.8891 0.108461 53.7591 0.3125 55.5938C0.486153 57.1552 0.748421 58.6728 1.0625 60.1875C1.64066 62.9757 2.5411 65.653 3.5625 68.25C3.80996 68.8792 4.04057 69.5086 4.3125 70.125C5.15358 72.0316 6.18652 73.821 7.25 75.5938C8.11436 77.0346 9.03062 78.4082 10.0312 79.75C13.2382 84.0504 17.0057 87.8919 21.4063 90.9688C24.6036 93.2044 28.0969 94.991 31.7812 96.4375C37.4392 98.6589 43.554 100 50 100C53.5211 100 56.9345 99.5986 60.25 98.9062C66.1256 97.6793 71.5797 95.3417 76.5 92.25C81.0263 89.4059 84.9476 85.8193 88.3438 81.7188C91.284 78.1687 93.8723 74.3387 95.75 70.0625C95.7746 70.0065 95.8194 69.9623 95.8438 69.9062C96.5625 68.2528 96.9918 66.4593 97.5312 64.7188C98.9828 60.0355 100 55.1603 100 50C100 49.358 99.9302 48.7298 99.9062 48.0938C99.829 46.046 99.6288 44.04 99.3125 42.0625C99.1531 41.0662 98.9361 40.1008 98.7188 39.125C98.2927 37.2121 97.6383 35.3859 97 33.5625C95.2255 28.4933 92.7125 23.831 89.5 19.6562C87.4196 16.9527 85.0806 14.5068 82.5 12.2812C80.2834 10.3697 77.9364 8.6597 75.4062 7.15625C74.105 6.38305 72.7801 5.65499 71.4062 5C64.8958 1.89621 57.693 0 50 0Z" fill="url(#RadialGradient)" fill-rule="evenodd" opacity="1" stroke="none"/>
</g>
<g clip-path="url(#ArtboardFrame)" id="Layer-1-copy-copy-copy_3" vectornator:layerName="Layer 1 copy copy copy" visibility="hidden">
<path d="M-1.42109e-14 50C-1.42109e-14 22.3858 22.3858 0 50 0C77.6142 0 100 22.3858 100 50C100 77.6142 77.6142 100 50 100C22.3858 100-1.42109e-14 77.6142-1.42109e-14 50Z" fill="#c5c0b9" fill-rule="evenodd" opacity="1" stroke="none"/>
<path d="M5.40749 17.3696C6.12827 18.8112 9.53589 19.4632 10.9555 19.4632C13.4174 19.4632 16.074 19.6674 18.4924 19.1492C21.1432 18.5811 23.7315 17.9306 26.448 17.6837C30.1706 17.3453 34.1749 17.2688 37.8581 16.5322C39.3386 16.2361 40.8488 15.698 42.3593 15.5901C44.6951 15.4232 47.0455 15.8402 49.3728 15.6948C50.5969 15.6183 51.9077 15.2798 53.1412 15.4854C54.2024 15.6623 55.1716 16.206 56.2816 16.1135C62.4634 15.5983 68.537 14.0572 74.7051 13.4965C76.9249 13.2947 79.0902 12.4859 81.2999 12.2403C85.6627 11.7556 89.4023 13.8946 91.3491 17.7883C92.0458 19.1816 89.856 19.7415 88.7322 19.8819C85.2696 20.3148 81.954 21.7078 78.4736 21.9755C70.3651 22.5992 62.3599 20.7621 54.188 21.2428C50.0296 21.4874 45.9157 23.0751 41.8359 23.7551C40.1136 24.0421 38.2422 23.8597 36.4972 23.8597C32.5144 23.8597 28.5343 23.6616 24.5638 23.441C22.654 23.3349 20.8127 22.6178 18.9111 22.4989C15.6809 22.297 12.573 22.2693 9.3853 21.8708C6.3476 21.4911 1.5448 19.7703-1.29198 21.6615" fill="#cacaca" fill-rule="evenodd" opacity="1" stroke="none"/>
<path d="M3.10455 77.0368C3.10455 75.2422 5.49673 76.1935 6.873 75.7806C8.59539 75.2639 10.2592 73.5641 11.8976 72.7449C15.0713 71.1581 18.7891 72.5693 22.0515 73.2683C26.4413 74.209 30.9349 74.8355 35.3458 75.7806C38.7907 76.5189 41.4092 77.337 44.9762 76.8274C54.6023 75.4523 64.1085 72.4534 73.8677 71.8028C77.9065 71.5336 81.9449 72.639 86.0105 72.3262C87.2581 72.2303 88.3232 71.5092 89.4649 71.0701C91.302 70.3635 93.5691 69.9186 95.5363 69.9186C96.8623 69.9186 98.4719 69.4315 98.6767 71.0701C99.2588 75.7266 97.0932 78.3751 93.1287 80.1772C92.0842 80.6519 91.0145 81.5589 89.8836 81.7474C87.9249 82.0738 85.9491 81.3857 84.0216 81.6427C82.3893 81.8603 80.9241 82.8544 79.311 83.2129C77.3846 83.641 75.4001 83.283 73.449 83.5269C69.5765 84.011 65.8154 83.846 61.9343 84.0503C59.1593 84.1964 56.5955 85.313 53.7693 84.7831C50.2325 84.1199 46.2844 83.3567 42.8827 82.1661C38.3241 80.5706 33.9079 78.0994 28.9603 77.7696C24.6361 77.4813 20.4518 78.6705 16.1895 79.0257C10.558 79.495 4.94414 80.3715-0.559223 81.7474" fill="#cacaca" fill-rule="evenodd" opacity="1" stroke="none"/>
<path d="M50.7336 35.1651C50.8548 35.2954 51.0791 35.2698 51.257 35.2698C51.4777 35.2698 50.843 35.1139 50.6289 35.0604C50.4 35.0032 50.192 35.1742 50.0008 35.2698C49.1398 35.7003 48.3114 35.6607 47.3839 35.7932C44.9282 36.144 42.6085 37.0601 40.161 37.468C37.1471 37.9704 34.4816 36.6268 31.5773 36.2119C29.6549 35.9373 27.6627 36.3271 25.7153 36.0025C23.7417 35.6736 21.0494 35.1263 19.1205 35.8979C17.2654 36.6399 12.8502 37.8554 13.2584 40.7131C13.6244 43.2752 15.6744 43.0621 17.5503 43.3301C18.5677 43.4754 19.5825 43.7909 20.586 43.9582C22.69 44.3088 25.1296 43.4138 27.1808 43.1207C29.1358 42.8414 31.1806 43.5532 33.1475 43.2254C37.0074 42.5821 41.0203 42.7158 44.8716 42.0739C46.8451 41.745 48.8503 42.097 50.8383 41.6552C53.9408 40.9658 56.5098 38.8423 59.422 37.6774C60.9205 37.078 65.2396 35.8376 66.2261 34.8511C67.4313 33.6459 62.8766 32.6703 62.1436 32.5481C58.818 31.9938 57.7529 34.065 54.9208 34.537C53.9922 34.6918 53.0343 35.1651 52.0944 35.1651C51.5472 35.1651 50.2922 34.6905 50.7336 35.1651Z" fill="#727272" fill-rule="evenodd" opacity="1" stroke="none"/>
<path d="M76.5894 3.86601C76.5894 2.81008 74.278 4.5167 73.3443 4.70344C71.1836 5.13558 67.7975 5.59342 65.5981 5.22684C64.3551 5.01968 63.0363 5.46818 61.8296 5.22684C57.8202 4.42496 53.9345 5.33152 49.8962 5.33152C47.4625 5.33152 44.9502 4.14498 43.1967 6.48299C40.1968 10.4829 49.304 11.5076 51.571 11.5076C55.0237 11.5076 57.4843 10.5591 60.7828 10.1468C62.7046 9.90654 64.7668 10.5008 66.6448 9.93741C68.739 9.30917 70.6034 8.13344 72.7162 7.52978C74.1174 7.12944 75.7331 7.3616 77.1128 6.90171C77.9931 6.60825 78.685 6.01159 79.6251 5.85492C80.1614 5.76553 80.6822 5.84456 81.0906 5.4362" fill="#727272" fill-rule="evenodd" opacity="1" stroke="none"/>
<path d="M1.42968 66.9876C1.35945 66.9525 2.76211 68.0263 3.52327 68.2437C5.1547 68.7099 7.37273 68.8512 9.07127 68.6625C14.9042 68.0144 20.7504 66.7583 26.3433 64.894C30.6599 63.4552 34.6038 63.8472 39.0095 63.8472C42.3027 63.8472 45.7862 63.52 49.0587 63.8472C50.289 63.9702 51.4869 64.4564 52.7225 64.58C54.8991 64.7976 57.1335 64.4344 59.3173 64.58C61.974 64.7571 64.5916 65.7345 67.2729 65.9408C71.2446 66.2463 75.6763 65.3624 79.5204 64.4753C80.8039 64.1791 82.0062 63.3477 83.2888 63.1145C84.8338 62.8336 86.4234 62.6628 87.8947 62.1723C88.7845 61.8758 90.0844 61.5952 91.0351 61.7536C91.7193 61.8677 92.4253 63.0425 93.1287 63.3238C93.9912 63.6688 96.0597 64.4404 96.8971 64.58C98.2533 64.806 100.404 64.6836 100.038 66.8829C99.6327 69.3118 96.7813 69.8691 94.9082 70.3373C91.3468 71.2277 88.3086 70.5467 84.6497 70.5467C81.9393 70.5467 79.4395 71.239 76.7987 69.9186C75.03 69.0342 73.7235 67.5393 71.6695 67.1969C66.4101 66.3204 59.1782 67.0631 53.9787 67.9297C52.1052 68.2419 50.5991 68.9765 48.64 68.9765C43.9831 68.9765 39.3666 66.3509 34.613 67.3016C31.4745 67.9293 28.4935 69.9853 25.2965 70.442C23.483 70.7011 21.4855 70.756 19.6439 70.756C18.2731 70.756 16.7084 70.5311 15.352 70.3373C13.1496 70.0227 10.7267 70.7731 8.54787 70.3373C6.39833 69.9074 3.95844 69.9145 1.8484 70.442C0.268711 70.8369-1.36206 70.6168-2.54813 71.8028" fill="#727272" fill-rule="evenodd" opacity="1" stroke="none"/>
<path d="M104.434 39.9803C100.696 41.8495 95.7288 43.5415 91.5585 44.0628C89.4778 44.3229 87.7261 45.4552 85.5918 45.633C81.8597 45.944 77.996 45.5881 74.2864 46.0517C72.2658 46.3043 70.2111 45.8619 68.215 46.2611C65.4328 46.8175 61.6862 46.8233 59.6313 48.8781C58.958 49.5515 57.126 50.4133 57.6424 51.7044C58.0075 52.617 60.0805 52.9308 60.8875 53.0653C64.3135 53.6362 67.5936 53.0636 70.9367 52.2278C74.3345 51.3784 77.8611 51.4015 81.2999 50.9717C84.0167 50.6321 86.6479 49.6358 89.3602 49.2968C93.4852 48.7812 97.5214 48.8267 101.503 47.8313C104.717 47.0277 108.792 41.2256 107.679 37.8868" fill="#bebebe" fill-rule="evenodd" opacity="1" stroke="none"/>
<path d="M1.42968 26.7908C1.0427 26.5973 2.74078 26.8749 3.20923 27.2095C4.24121 27.9466 5.34513 28.6891 6.55897 29.0937C11.1384 30.6202 12.6687 30.8605 17.3409 29.3031C19.7353 28.505 22.2764 28.2411 24.6685 27.5235C27.7779 26.5907 31.1332 25.5433 34.4036 25.3253C35.5607 25.2481 36.622 25.5364 37.7534 25.6393C40.9852 25.9331 44.1882 25.7062 47.3839 26.1627C49.4739 26.4613 51.4227 26.21 53.4553 26.7908C55.7934 27.4588 58.5789 28.0469 60.9922 28.0469C61.3486 28.0469 63.1904 28.0197 63.1904 28.4656C63.1904 29.2832 59.8783 30.2096 59.3173 30.3499C55.3521 31.3412 51.2721 30.9405 47.2792 31.606C44.6303 32.0475 40.8507 32.0933 38.1721 31.7107C36.5803 31.4833 35.2507 30.5078 33.6709 30.3499C32.214 30.2042 30.715 30.7292 29.2744 30.8733C25.0539 31.2953 20.8128 31.2898 16.6082 31.8154C13.6434 32.186 10.559 34.3277 7.60576 34.3277C5.86836 34.3277 0.714914 33.4155-0.245185 31.8154C-0.882354 30.7534-1.1873 28.8057-1.1873 27.6282" fill="#bebebe" fill-rule="evenodd" opacity="1" stroke="none"/>
<path d="M14.8286 93.4714C14.3129 92.4399 20.346 91.3273 21.0047 91.0638C23.4006 90.1055 28.3725 89.1298 30.9492 89.5983C34.4803 90.2403 37.877 92.2256 41.5218 92.5293C51.8313 93.3884 62.764 89.2477 72.8209 91.4825C75.5482 92.0886 78.0557 92.2812 80.4625 93.7855C80.7037 93.9362 81.6915 94.177 81.8233 94.3089C82.2003 94.6859 80.9737 95.1853 80.7765 95.251C79.0828 95.8155 77.6309 96.5721 75.9613 97.2399C74.4736 97.835 70.2683 98.4229 68.6338 98.2867C67.5054 98.1927 66.4425 97.658 65.284 97.7633C64.2246 97.8596 63.3932 98.7067 62.353 98.9148C61.2447 99.1364 60.1111 99.0071 59.0033 98.9148C57.007 98.7484 55.2668 99.9206 53.2459 99.7522C51.5156 99.608 49.8205 98.8368 48.1166 98.496C45.7148 98.0157 43.1446 97.9335 40.7891 97.3446C39.6618 97.0627 38.7086 96.234 37.544 96.0884C35.0304 95.7742 32.4568 96.4103 30.0071 96.7165C28.2433 96.937 27.1494 95.5396 25.5059 95.7744C23.9707 95.9937 22.4845 96.6299 21.0047 96.9259C19.7211 97.1826 18.1174 96.9259 16.8175 96.9259" fill="#d8d8d8" fill-rule="evenodd" opacity="1" stroke="none"/>
<path d="M104.329 32.3388C100.159 32.3388 96.1765 34.1299 92.0819 34.6417C87.978 35.1547 84.2261 36.4855 80.2531 37.6774C73.9205 39.5772 67.5833 41.2377 61.3062 43.3301C58.6206 44.2253 55.5233 45.1964 53.1412 46.7845C52.3053 47.3418 51.6586 48.1015 50.7336 48.564C45.3788 51.2415 39.9724 52.5419 33.9849 52.5419C32.1781 52.5419 30.1093 52.7334 28.3322 52.4372C26.8109 52.1836 25.0865 51.8223 23.517 52.0185C19.266 52.5498 15.0282 53.3805 10.8508 53.9027C8.90168 54.1463 6.86868 53.9561 4.98878 54.4261C3.51603 54.7943 2.08712 55.364 0.592249 55.5776C-0.159351 55.6849-1.16075 55.5053-1.81537 55.9963C-3.05277 56.9243-3.26229 59.4908-1.92005 60.4975C-0.853936 61.2971 1.64999 59.7835 2.79051 59.5554C5.57266 58.9989 8.43963 57.9707 11.2695 57.5665C12.6095 57.375 14.0124 57.5485 15.352 57.3571C17.3211 57.0758 19.4306 57.6705 21.3187 57.9852C23.3376 58.3217 26.0724 58.1716 28.1229 57.9852C31.4028 57.687 34.5627 56.5281 37.7534 55.9963C40.3351 55.566 42.3834 54.1233 44.7669 53.1699C46.7183 52.3894 48.8847 51.9763 50.7336 50.867C53.0279 49.4904 55.4375 47.8338 57.9565 46.8892C62.0914 45.3386 66.6865 45.7401 70.9367 44.7956C74.4934 44.0052 77.7625 42.1755 81.4046 41.6552C83.7724 41.317 86.2447 41.5769 88.6275 41.2365C89.8035 41.0685 90.8033 40.4621 91.9772 40.2944C92.9428 40.1564 94.048 40.3827 95.0129 40.1897C97.8855 39.6152 100.645 38.3821 103.387 37.468C105.496 36.7651 108.852 36.3363 110.191 34.3277" fill="#d8d8d8" fill-rule="evenodd" opacity="1" stroke="none"/>
<path d="M15.9801 9.09997C13.9238 8.41453 16.8426 11.3957 18.0737 11.5076C20.128 11.6944 21.756 10.5329 23.7264 10.2514C25.7815 9.95785 28.4689 10.3204 30.4258 10.8795C31.0394 11.0548 34.5291 12.7429 33.4615 13.8105C32.7638 14.5083 31.5962 14.508 30.7399 14.7527C28.1099 15.5041 25.8564 15.5901 23.0983 15.5901C18.5279 15.5901 13.9981 15.0826 9.48998 14.4386C6.42541 14.0008 3.43048 14.5155 0.38289 13.6012C-1.46867 13.0457-2.93803 11.522-4.64171 10.6702" fill="#d8d8d8" fill-rule="evenodd" opacity="1" stroke="none"/>
</g>
</svg>
