<?xml version="1.0" encoding="UTF-8" standalone="no"?>
<!DOCTYPE svg PUBLIC "-//W3C//DTD SVG 1.1//EN" "http://www.w3.org/Graphics/SVG/1.1/DTD/svg11.dtd">
<!-- © 2022 Rik Rosseel -->
<!-- Created with Vectornator (http://vectornator.io/) -->
<svg height="100%" stroke-miterlimit="10" style="fill-rule:nonzero;clip-rule:evenodd;stroke-linecap:round;stroke-linejoin:round;" version="1.1" viewBox="0 0 200 200" width="100%" xml:space="preserve" xmlns="http://www.w3.org/2000/svg" xmlns:vectornator="http://vectornator.io" xmlns:xlink="http://www.w3.org/1999/xlink">
<metadata>
<vectornator:setting key="IsTimeLapseWatermarkDisabled" value="false"/>
<vectornator:setting key="UndoHistoryDisabled" value="true"/>
<vectornator:setting key="VNDimensionsVisible" value="true"/>
<vectornator:setting key="VNSnapToGuides" value="true"/>
<vectornator:setting key="WDCMYKEnabledKey" value="false"/>
<vectornator:setting key="WDDisplayWhiteBackground" value="false"/>
<vectornator:setting key="WDDynamicGuides" value="false"/>
<vectornator:setting key="WDGuidesVisible" value="true"/>
<vectornator:setting key="WDIsolateActiveLayer" value="false"/>
<vectornator:setting key="WDOutlineMode" value="false"/>
<vectornator:setting key="WDRulersVisible" value="true"/>
<vectornator:setting key="WDSnapToEdges" value="false"/>
<vectornator:setting key="WDSnapToGrid" value="false"/>
<vectornator:setting key="WDSnapToPoints" value="false"/>
<vectornator:setting key="WDUnits" value="Points"/>
</metadata>
<defs>
<radialGradient cx="100" cy="100" gradientTransform="matrix(0.888906 -0.45809 0.152697 0.296302 -4.16025 116.179)" gradientUnits="userSpaceOnUse" id="RadialGradient" r="90">
<stop offset="0.659091" stop-color="#999ba1" stop-opacity="0"/>
<stop offset="0.696281" stop-color="#d3d7db"/>
<stop offset="0.743802" stop-color="#b5b8bc"/>
<stop offset="0.791322" stop-color="#cfd2d5"/>
<stop offset="0.859504" stop-color="#bbbec3"/>
<stop offset="0.896694" stop-color="#a9abb1" stop-opacity="0"/>
<stop offset="0.929752" stop-color="#a4a6ac" stop-opacity="0.725223"/>
<stop offset="0.979339" stop-color="#aeb0b5" stop-opacity="0.813061"/>
<stop offset="1" stop-color="#999ba1" stop-opacity="0"/>
</radialGradient>
<radialGradient cx="100" cy="100" gradientTransform="matrix(0.888906 -0.45809 0.152697 0.296302 -4.16025 116.179)" gradientUnits="userSpaceOnUse" id="RadialGradient_2" r="90">
<stop offset="0.659091" stop-color="#999ba1" stop-opacity="0"/>
<stop offset="0.696281" stop-color="#d3d7db"/>
<stop offset="0.743802" stop-color="#b5b8bc"/>
<stop offset="0.791322" stop-color="#cfd2d5"/>
<stop offset="0.859504" stop-color="#bbbec3"/>
<stop offset="0.896694" stop-color="#a9abb1" stop-opacity="0"/>
<stop offset="0.929752" stop-color="#a4a6ac" stop-opacity="0.725223"/>
<stop offset="0.979339" stop-color="#aeb0b5" stop-opacity="0.813061"/>
<stop offset="1" stop-color="#999ba1" stop-opacity="0"/>
</radialGradient>
<radialGradient cx="-12.3342" cy="49.9118" gradientTransform="matrix(1 0 0 1 50 49.9999)" gradientUnits="userSpaceOnUse" id="RadialGradient_3" r="138.074">
<stop offset="0" stop-color="#ffffff" stop-opacity="0.188337"/>
<stop offset="0.27686" stop-color="#c5c0b9" stop-opacity="0"/>
<stop offset="0.578512" stop-color="#000000" stop-opacity="0.743241"/>
<stop offset="0.690083" stop-color="#000000"/>
</radialGradient>
<radialGradient cx="-12.3342" cy="49.9118" gradientTransform="matrix(1 0 0 1 50 49.9999)" gradientUnits="userSpaceOnUse" id="RadialGradient_4" r="138.074">
<stop offset="0" stop-color="#ffffff" stop-opacity="0.188337"/>
<stop offset="0.27686" stop-color="#c5c0b9" stop-opacity="0"/>
<stop offset="0.578512" stop-color="#000000" stop-opacity="0.743241"/>
<stop offset="0.690083" stop-color="#000000"/>
</radialGradient>
<radialGradient cx="100" cy="100" gradientTransform="matrix(0.888906 -0.45809 0.152697 0.296302 -4.16025 116.179)" gradientUnits="userSpaceOnUse" id="RadialGradient_5" r="90">
<stop offset="0.659091" stop-color="#999ba1" stop-opacity="0"/>
<stop offset="0.696281" stop-color="#d3d7db"/>
<stop offset="0.743802" stop-color="#b5b8bc"/>
<stop offset="0.791322" stop-color="#cfd2d5"/>
<stop offset="0.859504" stop-color="#bbbec3"/>
<stop offset="0.896694" stop-color="#a9abb1" stop-opacity="0"/>
<stop offset="0.929752" stop-color="#a4a6ac" stop-opacity="0.725223"/>
<stop offset="0.979339" stop-color="#aeb0b5" stop-opacity="0.813061"/>
<stop offset="1" stop-color="#999ba1" stop-opacity="0"/>
</radialGradient>
<radialGradient cx="178.432" cy="104.539" gradientTransform="matrix(0.888906 -0.45809 0.152697 0.296302 -4.16025 116.179)" gradientUnits="userSpaceOnUse" id="RadialGradient_6" r="88.8104">
<stop offset="0.227273" stop-color="#000000"/>
<stop offset="0.553719" stop-color="#000000" stop-opacity="0.729728"/>
<stop offset="0.803719" stop-color="#000000" stop-opacity="0"/>
</radialGradient>
<radialGradient cx="-12.3342" cy="49.9118" gradientTransform="matrix(1 0 0 1 0 0)" gradientUnits="userSpaceOnUse" id="RadialGradient_7" r="138.074">
<stop offset="0" stop-color="#ffffff" stop-opacity="0.188337"/>
<stop offset="0.27686" stop-color="#c5c0b9" stop-opacity="0"/>
<stop offset="0.578512" stop-color="#000000" stop-opacity="0.743241"/>
<stop offset="0.690083" stop-color="#000000"/>
</radialGradient>
</defs>
<g id="Layer-1" vectornator:layerName="Layer 1" visibility="hidden">
<path d="M0 50C0 22.3858 22.3858 0 50 0C77.6142 0 100 22.3858 100 50C100 77.6142 77.6142 100 50 100C22.3858 100 0 77.6142 0 50Z" fill="#999ba1" fill-rule="evenodd" opacity="1" stroke="none"/>
</g>
<clipPath id="ArtboardFrame">
<rect height="200" width="200" x="0" y="0"/>
</clipPath>
<g clip-path="url(#ArtboardFrame)" id="Layer-1-copy" vectornator:layerName="Layer 1 copy" visibility="hidden">
<path d="M0 50C0 22.3858 22.3858 0 50 0C77.6142 0 100 22.3858 100 50C100 77.6142 77.6142 100 50 100C22.3858 100 0 77.6142 0 50Z" fill="#bc956a" fill-rule="evenodd" opacity="1" stroke="none"/>
<path d="M107.018 17.8917C107.018 17.2925 106.556 18.3004 106.03 18.7385C105.235 19.4012 104.271 19.9356 103.349 20.4321C100.339 22.0528 97.0021 23.2152 93.8931 24.6661C90.0866 26.4425 85.9239 27.4515 82.038 29.0412C77.1102 31.0571 72.382 33.668 67.5015 35.8155C53.9306 41.7866 40.2802 47.6718 26.5732 53.3158C24.5415 54.1524 22.2905 54.4119 20.2223 55.1505C14.8577 57.0665 9.36642 59.6603 4.41555 62.4894C-0.123378 65.0831-4.79953 67.9852-7.72178 72.3686C-8.53565 73.5894-9.78181 75.5965-8.7097 77.026C-6.70919 79.6933-1.55386 77.8646 0.887258 77.1671C10.3242 74.4708 17.6607 68.4174 26.4321 64.3241C40.0676 57.9609 52.7364 49.4965 66.0901 42.4487C68.6137 41.1168 71.0653 39.4453 73.7113 38.3559C90.9764 31.2467 108.887 24.7022 124.942 15.0691" fill="#edd290" fill-rule="evenodd" opacity="1" stroke="none"/>
<path d="M110.97 35.8155C110.97 35.3099 108.19 37.4565 107.442 37.9325C105.076 39.4377 102.54 40.7736 100.103 42.1664C92.3013 46.6245 84.0479 50.8488 75.8282 54.4449C63.106 60.0108 51.3959 67.2961 38.9928 73.4977C30.0895 77.9493 20.4455 80.4871 12.6012 86.9052C7.85947 90.7848 4.6833 95.1067 3.2865 101.159C2.87435 102.945 2.29733 105.721 3.2865 107.369C4.73705 109.787 10.433 107.841 12.3189 107.369C15.8776 106.48 18.9955 104.42 22.1982 102.712C26.9282 100.189 31.6948 97.8326 36.5936 95.6554C42.2549 93.1392 47.3536 89.7315 52.6826 86.6229C63.9051 80.0765 74.8394 73.1004 86.272 66.8645C87.8739 65.9907 89.31 64.7104 90.9293 63.9007C108.313 55.209 126.203 47.3655 142.866 37.3679" fill="#edd290" fill-rule="evenodd" opacity="1" stroke="none"/>
<path d="M-11.9557 43.7189C-10.2377 44.5779-4.87905 43.6843-3.06443 43.2955C4.80608 41.6089 11.837 39.6467 18.9521 35.8155C23.4598 33.3883 28.6816 32.0654 33.3476 29.8879C45.0765 24.4145 56.6458 18.3692 68.6305 13.3755C73.4796 11.3551 77.9751 8.53985 83.026 7.02459C84.6619 6.53382 86.7788 5.68642 88.5301 6.03667C89.7654 6.28374 86.9336 8.37286 86.6954 8.57704C84.3172 10.6155 81.3668 12.9525 78.5097 14.2223C73.5367 16.4326 68.7143 19.0447 63.6909 21.1378C61.1793 22.1843 58.7216 23.1427 56.3521 24.5249C53.8256 25.9987 51.3922 27.7993 49.0132 29.4645C46.3329 31.3408 43.124 32.5614 40.263 34.1219C35.9231 36.4892 31.5438 38.7689 26.8555 40.3317C19.642 42.7362 11.8685 43.3045 4.69782 45.6947C1.87113 46.6369-0.844011 48.2092-3.77009 48.9407C-6.48017 49.6183-9.40762 50.0659-11.9557 51.34" fill="#edd290" fill-rule="evenodd" opacity="1" stroke="none"/>
<path d="M64.82-0.45539C64.82-0.741547 64.9611-1.58834 64.9611-1.30218C64.9611-0.398419 60.6675 2.35332 59.8803 2.79064C56.3549 4.74922 52.9354 6.9031 49.5777 9.14157C43.1959 13.3961 37.0034 17.9821 30.8072 22.408C29.0867 23.6369 26.9309 24.873 25.4442 26.3596C25.3698 26.434 25.2698 26.5421 25.3031 26.6419C25.549 27.3797 29.6813 25.1775 30.1015 24.9483C34.641 22.4722 38.8932 19.0889 43.6502 17.1861C47.9079 15.483 51.5592 12.3142 55.6464 10.2706C61.8486 7.16954 67.8544 4.29598 73.7113 0.391401C75.5657-0.844894 77.7201-1.66262 79.4977-2.99576" fill="#edd290" fill-rule="evenodd" opacity="1" stroke="none"/>
<path d="M35.2793 109.302C35.2381 107.672 37.7124 106.896 39.0172 106.383C43.1986 104.742 46.4851 101.695 50.4218 99.6002C53.929 97.7341 57.0707 94.8865 60.4121 92.7117C71.197 85.6921 81.8846 78.4798 92.1882 70.8712C96.0456 68.0228 99.9065 65.4776 104.136 63.2273C105.309 62.6031 107.725 61.3501 108.781 62.6861C110.133 64.3966 108.073 67.4952 107.101 68.7992C103.824 73.1946 99.7275 76.8487 95.8245 80.6615C91.8963 84.499 87.6972 88.1209 83.5395 91.7022C80.1706 94.6041 75.9024 96.5876 72.1456 98.9086C69.2153 100.719 66.3971 102.808 63.2447 104.216C59.2564 105.998 55.2256 107.554 51.3811 109.599C49.8117 110.434 47.899 110.732 46.4967 111.841C45.0469 112.987 43.1892 112.536 42.0427 114.354" fill="#675c57" fill-rule="evenodd" opacity="1" stroke="none"/>
<path d="M-7.29839 35.3921C-7.65005 34.6888-2.04834 33.4022-1.22972 32.9928C2.55275 31.1016 5.63411 28.2563 9.4963 26.5008C10.8519 25.8846 12.0237 24.9426 13.3069 24.2427C15.5399 23.0246 18.0256 22.1735 20.2223 20.8555C30.0387 14.9657 39.5278 8.03914 48.0253 0.391401C50.7438-2.05529 53.1762-4.87051 55.9287-7.22972C56.1017-7.37802 58.1896-9.13067 58.0456-9.34669C57.4479-10.2432 54.167-8.30835 53.5294-8.07651C48.8775-6.3849 44.7439-3.39326 40.263-1.30218C37.3887 0.0391604 34.3904 1.05926 31.5129 2.36725C28.8724 3.56747 26.4077 5.34457 23.8917 6.74233C20.2009 8.79283 16.0174 9.8749 12.4601 12.2465C8.79826 14.6877 5.60953 17.5942 2.29858 20.4321C-0.629369 22.9418-6.15569 27.6026-7.86291 31.017" fill="#675c57" fill-rule="evenodd" opacity="1" stroke="none"/>
<path d="M108.43 4.90762C102.651 6.83377 97.6786 11.3461 92.0584 13.9401C88.4626 15.5996 84.6382 16.5431 81.0501 18.174C74.0896 21.3379 68.1062 26.1984 61.2917 29.6057C52.5566 33.9732 43.7132 37.7643 34.7589 41.6019C23.9931 46.2158 13.4137 51.1329 2.72197 55.7151C0.509123 56.6634-1.64138 58.2437-3.3467 59.949C-3.53913 60.1415-5.34456 61.3927-4.75801 61.7837C-4.36566 62.0453 1.25315 58.5098 2.01631 58.2554C8.91433 55.9561 15.6712 53.1878 22.4804 50.6343C27.1149 48.8964 31.7876 47.2818 36.3113 45.2713C39.0568 44.0511 41.4975 42.245 44.2147 41.0374C46.378 40.0759 48.7015 39.4726 50.8479 38.497C57.4151 35.5119 64.0182 32.1235 70.4652 28.9C74.6968 26.7842 78.5292 23.9507 82.7437 21.8434C84.6471 20.8917 86.6903 20.094 88.5301 19.0208C95.1858 15.1383 101.393 10.5693 108.006 6.6012C110.6 5.04499 113.462 2.82854 116.474 2.22611" fill="#675c57" fill-rule="evenodd" opacity="1" stroke="none"/>
<path d="M1.59292 83.8003C4.13945 83.8003 8.08691 79.9588 10.7665 79.0018C14.49 77.672 17.9823 75.8658 21.6336 74.3445C24.3661 73.2059 27.2401 72.3207 29.8193 70.8162C34.146 68.2922 38.0814 65.0686 42.38 62.4894C44.7348 61.0765 47.2566 59.6687 49.4366 57.9732C53.1719 55.068 57.332 52.0496 61.5739 49.9287C62.3858 49.5227 65.1573 48.0509 66.0901 48.5173C66.359 48.6518 66.1977 48.9475 66.0901 49.0819C64.9934 50.4527 63.4592 51.5956 62.1385 52.7513C57.8812 56.4764 52.9209 59.6888 47.8841 62.2071C40.0459 66.1262 32.6535 70.6886 25.0208 75.0501C23.4541 75.9453 22.166 77.2428 20.6457 78.155C17.6562 79.9487 14.4226 81.6905 11.331 83.3769C9.85565 84.1816 7.97948 84.9759 6.95593 86.3407" fill="#675c57" fill-rule="evenodd" opacity="1" stroke="none"/>
</g>
<g id="Layer-1-copy-copy" vectornator:layerName="Layer 1 copy copy" visibility="hidden">
<path d="M19.9985 141.228C12.4086 126.5 42.0737 96.1025 86.2573 73.3328C130.441 50.5632 172.412 44.044 180.002 58.7719C187.591 73.4998 157.926 103.898 113.743 126.667C69.5591 149.437 27.5884 155.956 19.9985 141.228Z" fill="url(#RadialGradient)" fill-rule="evenodd" opacity="1" stroke="none"/>
</g>
<g id="Layer-1-copy-copy-copy" vectornator:layerName="Layer 1 copy copy copy" visibility="hidden">
<path d="M19.9985 141.228C12.4086 126.5 42.0737 96.1025 86.2573 73.3328C130.441 50.5632 172.412 44.044 180.002 58.7719C187.591 73.4998 157.926 103.898 113.743 126.667C69.5591 149.437 27.5884 155.956 19.9985 141.228Z" fill="url(#RadialGradient_2)" fill-rule="evenodd" opacity="1" stroke="none"/>
</g>
<g id="Layer-1-copy-copy-copy_2" vectornator:layerName="Layer 1 copy copy copy" visibility="hidden">
<g opacity="1">
<path d="M100 49.9999C99.4525 49.9999 98.9182 50.0762 98.375 50.0937C78.8093 50.7227 62.171 62.5733 54.5312 79.4374C52.7 83.4797 51.3573 87.7823 50.6562 92.3124C50.3907 94.0282 50.2114 95.7624 50.125 97.5312C50.0849 98.3527 50 99.1685 50 99.9999C50 102.37 50.2124 104.687 50.5312 106.969C50.6224 107.621 50.7276 108.262 50.8438 108.906C51.1547 110.632 51.7356 112.247 52.2188 113.906C53.3473 117.781 54.8957 121.451 56.875 124.875C57.8074 126.488 58.7428 128.07 59.8438 129.562C60.6625 130.673 61.5942 131.681 62.5 132.719C63.2801 133.612 63.9403 134.602 64.7812 135.437C70.0593 140.683 76.5651 144.579 83.75 147.062C88.8045 148.809 94.1386 149.976 99.7812 150C99.8547 150 99.9265 150 100 150C121.307 150 139.363 136.617 146.562 117.844C147.535 115.309 148.417 112.714 148.969 110C149.627 106.764 150 103.43 150 99.9999C150 97.4546 149.742 94.9743 149.375 92.5312C148.683 87.9214 147.33 83.545 145.469 79.4374C144.766 77.8867 143.914 76.4301 143.062 74.9687C141.801 72.8023 140.375 70.7873 138.812 68.8437C138.06 67.9071 137.348 66.9418 136.531 66.0624C135.18 64.6089 133.701 63.3157 132.188 62.0312C130.945 60.9766 129.78 59.837 128.438 58.9062C125.312 56.7396 121.9 55.0102 118.312 53.5937C116.2 52.7596 113.992 52.1057 111.75 51.5624C107.96 50.6439 104.072 49.9999 100 49.9999Z" fill="#edd290" fill-rule="evenodd" opacity="1" stroke="none"/>
<path d="M98.375 50.0937C98.261 50.1984 98.1462 50.3027 98.0312 50.4062C89.5338 58.0539 80.0351 64.9539 70.2188 70.8437C68.0221 72.1617 65.5456 73.0319 63.3125 74.2499C62.0294 74.9498 60.8556 75.8837 59.5 76.4999C57.7239 77.3072 56.1212 78.368 54.5312 79.4374C52.7 83.4797 51.3573 87.7823 50.6562 92.3124C57.0183 90.7919 62.9959 89.0118 68.9375 85.8124C73.4452 83.3852 78.6778 82.0524 83.3438 79.8749C95.0727 74.4014 106.64 68.3686 118.625 63.3749C121.944 61.9919 125.158 60.3621 128.438 58.9062C125.312 56.7396 121.9 55.0102 118.312 53.5937C114.17 55.956 109.973 58.1228 105.656 60.2812C101.569 62.3248 97.914 65.4843 93.6562 67.1874C88.8993 69.0902 84.6332 72.4613 80.0938 74.9374C79.6735 75.1666 75.5584 77.3939 75.3125 76.6562C75.2792 76.5564 75.3631 76.4493 75.4375 76.3749C76.9242 74.8883 79.092 73.6351 80.8125 72.4062C87.0088 67.9803 93.1806 63.4108 99.5625 59.1562C102.92 56.9177 106.35 54.7398 109.875 52.7812C110.133 52.6376 111.012 52.0575 111.75 51.5624C107.96 50.6439 104.072 49.9999 100 49.9999C99.4525 49.9999 98.9182 50.0762 98.375 50.0937Z" fill="#bc956a" fill-rule="evenodd" opacity="1" stroke="none"/>
<path d="M132.188 62.0312C130.975 62.8657 129.732 63.6713 128.5 64.2187C123.527 66.4289 118.711 69.0319 113.688 71.1249C111.176 72.1714 108.713 73.1489 106.344 74.5312C103.817 76.0049 101.379 77.8034 99 79.4687C96.3197 81.3449 93.111 82.5644 90.25 84.1249C85.91 86.4922 81.5321 88.7809 76.8438 90.3437C69.6302 92.7482 61.8582 93.2972 54.6875 95.6874C53.1513 96.1995 51.6471 96.883 50.125 97.5312C50.0849 98.3527 50 99.1685 50 99.9999C50 102.37 50.2124 104.687 50.5312 106.969C51.2534 106.521 51.9673 106.041 52.7188 105.719C63.4105 101.136 73.9842 96.2076 84.75 91.5937C93.7043 87.7561 102.546 83.9612 111.281 79.5937C118.096 76.1864 124.102 71.3513 131.062 68.1874C132.848 67.376 134.686 66.7064 136.531 66.0624C135.18 64.6089 133.701 63.3157 132.188 62.0312Z" fill="#bc956a" fill-rule="evenodd" opacity="1" stroke="none"/>
<path d="M138.812 68.8437C138.715 68.9008 138.629 68.9744 138.531 69.0312C136.691 70.1044 134.653 70.892 132.75 71.8437C128.536 73.9509 124.7 76.7904 120.469 78.9062C114.022 82.1297 107.411 85.5149 100.844 88.4999C98.6974 89.4756 96.382 90.0697 94.2188 91.0312C91.5015 92.2389 89.0579 94.061 86.3125 95.2812C81.7888 97.2917 77.1032 98.887 72.4688 100.625C65.6595 103.178 58.9293 105.951 52.0312 108.25C51.9032 108.293 51.1976 108.712 50.8438 108.906C51.1547 110.632 51.7356 112.247 52.2188 113.906C52.9651 113.457 53.6589 112.927 54.4062 112.5C59.3571 109.671 64.8542 107.072 70.2188 105.156C72.2869 104.418 74.5308 104.149 76.5625 103.312C90.2695 97.6684 103.929 91.7836 117.5 85.8124C122.381 83.665 127.103 81.0471 132.031 79.0312C135.641 77.5544 139.482 76.5239 143.062 74.9687C141.801 72.8023 140.375 70.7873 138.812 68.8437Z" fill="#bc956a" fill-rule="evenodd" opacity="1" stroke="none"/>
<path d="M145.469 79.4374C138.223 82.4719 130.921 85.3779 123.719 88.3437C121.073 89.4332 118.617 91.1055 116.094 92.4374C102.74 99.4853 90.073 107.949 76.4375 114.312C69.6157 117.496 63.6241 121.822 56.875 124.875C57.8074 126.488 58.7428 128.07 59.8438 129.562C60.1378 129.414 60.5104 129.097 60.7812 129C64.5047 127.67 67.9737 125.865 71.625 124.344C74.3575 123.205 77.2334 122.317 79.8125 120.812C84.1393 118.288 88.0764 115.079 92.375 112.5C94.7298 111.087 97.2575 109.664 99.4375 107.969C103.173 105.063 107.321 102.058 111.562 99.9374C112.374 99.5315 115.161 98.0648 116.094 98.5312C116.363 98.6656 116.201 98.9593 116.094 99.0937C114.997 100.465 113.446 101.594 112.125 102.75C107.868 106.475 102.912 109.7 97.875 112.219C90.0368 116.138 82.6639 120.701 75.0312 125.062C73.4646 125.958 72.1766 127.244 70.6562 128.156C68.0391 129.726 65.2323 131.23 62.5 132.719C63.2801 133.612 63.9403 134.602 64.7812 135.437C72.2053 130.168 80.8816 127.559 89 123.5C101.403 117.298 113.122 110.003 125.844 104.437C133.819 100.948 141.78 96.8426 149.375 92.5312C148.683 87.9214 147.33 83.545 145.469 79.4374Z" fill="#bc956a" fill-rule="evenodd" opacity="1" stroke="none"/>
<path d="M148.969 110C146.29 111.302 143.599 112.576 140.938 113.906C139.318 114.716 137.883 116.001 136.281 116.875C124.849 123.111 113.91 130.079 102.688 136.625C97.3585 139.734 92.2551 143.14 86.5938 145.656C85.6251 146.087 84.709 146.618 83.75 147.062C88.8045 148.809 94.1386 149.976 99.7812 150C99.9987 149.877 100.185 149.711 100.406 149.594C103.913 147.728 107.065 144.893 110.406 142.719C121.191 135.699 131.884 128.484 142.188 120.875C143.63 119.81 145.1 118.824 146.562 117.844C147.535 115.309 148.417 112.714 148.969 110Z" fill="#bc956a" fill-rule="evenodd" opacity="1" stroke="none"/>
<path d="M98.375 50.0937C78.8093 50.7227 62.171 62.5733 54.5312 79.4374C56.1212 78.368 57.7239 77.3072 59.5 76.4999C60.8556 75.8837 62.0294 74.9498 63.3125 74.2499C65.5456 73.0319 68.0221 72.1617 70.2188 70.8437C80.0351 64.9539 89.5338 58.0539 98.0312 50.4062C98.1462 50.3027 98.261 50.1984 98.375 50.0937Z" fill="#675c57" fill-rule="evenodd" opacity="1" stroke="none"/>
<path d="M111.75 51.5624C111.012 52.0575 110.133 52.6376 109.875 52.7812C106.35 54.7398 102.92 56.9177 99.5625 59.1562C93.1806 63.4108 87.0088 67.9803 80.8125 72.4062C79.092 73.6351 76.9242 74.8883 75.4375 76.3749C75.3631 76.4493 75.2792 76.5564 75.3125 76.6562C75.5584 77.3939 79.6735 75.1666 80.0938 74.9374C84.6332 72.4613 88.8993 69.0902 93.6562 67.1874C97.914 65.4843 101.569 62.3248 105.656 60.2812C109.973 58.1228 114.17 55.956 118.312 53.5937C116.2 52.7596 113.992 52.1057 111.75 51.5624Z" fill="#edd290" fill-rule="evenodd" opacity="1" stroke="none"/>
<path d="M128.438 58.9062C125.158 60.3621 121.944 61.9919 118.625 63.3749C106.64 68.3686 95.0727 74.4014 83.3438 79.8749C78.6778 82.0524 73.4452 83.3852 68.9375 85.8124C62.9959 89.0118 57.0183 90.7919 50.6562 92.3124C50.3907 94.0282 50.2114 95.7624 50.125 97.5312C51.6471 96.883 53.1513 96.1995 54.6875 95.6874C61.8582 93.2972 69.6302 92.7482 76.8438 90.3437C81.5321 88.7809 85.91 86.4922 90.25 84.1249C93.111 82.5644 96.3197 81.3449 99 79.4687C101.379 77.8034 103.817 76.0049 106.344 74.5312C108.713 73.1489 111.176 72.1714 113.688 71.1249C118.711 69.0319 123.527 66.4289 128.5 64.2187C129.732 63.6713 130.975 62.8657 132.188 62.0312C130.945 60.9766 129.78 59.837 128.438 58.9062Z" fill="#edd290" fill-rule="evenodd" opacity="1" stroke="none"/>
<path d="M136.531 66.0624C134.686 66.7064 132.848 67.376 131.062 68.1874C124.102 71.3513 118.096 76.1864 111.281 79.5937C102.546 83.9612 93.7043 87.7561 84.75 91.5937C73.9842 96.2076 63.4105 101.136 52.7188 105.719C51.9673 106.041 51.2534 106.521 50.5312 106.969C50.6224 107.621 50.7276 108.262 50.8438 108.906C51.1976 108.712 51.9032 108.293 52.0312 108.25C58.9293 105.951 65.6595 103.178 72.4688 100.625C77.1032 98.887 81.7888 97.2917 86.3125 95.2812C89.0579 94.061 91.5015 92.2389 94.2188 91.0312C96.382 90.0697 98.6974 89.4756 100.844 88.4999C107.411 85.5149 114.022 82.1297 120.469 78.9062C124.7 76.7904 128.536 73.9509 132.75 71.8437C134.653 70.892 136.691 70.1044 138.531 69.0312C138.629 68.9744 138.715 68.9008 138.812 68.8437C138.06 67.9071 137.348 66.9418 136.531 66.0624Z" fill="#675c57" fill-rule="evenodd" opacity="1" stroke="none"/>
<path d="M143.062 74.9687C139.482 76.5239 135.641 77.5544 132.031 79.0312C127.103 81.0471 122.381 83.665 117.5 85.8124C103.929 91.7836 90.2695 97.6684 76.5625 103.312C74.5308 104.149 72.2869 104.418 70.2188 105.156C64.8542 107.072 59.3571 109.671 54.4062 112.5C53.6589 112.927 52.9651 113.457 52.2188 113.906C53.3473 117.781 54.8957 121.451 56.875 124.875C63.6241 121.822 69.6157 117.496 76.4375 114.312C90.073 107.949 102.74 99.4853 116.094 92.4374C118.617 91.1055 121.073 89.4332 123.719 88.3437C130.921 85.3779 138.223 82.4719 145.469 79.4374C144.766 77.8867 143.914 76.4301 143.062 74.9687Z" fill="#edd290" fill-rule="evenodd" opacity="1" stroke="none"/>
<path d="M149.375 92.5312C141.78 96.8426 133.819 100.948 125.844 104.437C113.122 110.003 101.403 117.298 89 123.5C80.8816 127.559 72.2053 130.168 64.7812 135.437C70.0593 140.683 76.5651 144.579 83.75 147.062C84.709 146.618 85.6251 146.087 86.5938 145.656C92.2551 143.14 97.3585 139.734 102.688 136.625C113.91 130.079 124.849 123.111 136.281 116.875C137.883 116.001 139.318 114.716 140.938 113.906C143.599 112.576 146.29 111.302 148.969 110C149.627 106.764 150 103.43 150 99.9999C150 97.4546 149.742 94.9743 149.375 92.5312Z" fill="#edd290" fill-rule="evenodd" opacity="1" stroke="none"/>
<path d="M116.094 98.5312C115.161 98.0648 112.374 99.5315 111.562 99.9374C107.321 102.058 103.173 105.063 99.4375 107.969C97.2575 109.664 94.7298 111.087 92.375 112.5C88.0764 115.079 84.1393 118.288 79.8125 120.812C77.2334 122.317 74.3575 123.205 71.625 124.344C67.9737 125.865 64.5047 127.67 60.7812 129C60.5104 129.097 60.1378 129.414 59.8438 129.562C60.6625 130.673 61.5942 131.681 62.5 132.719C65.2323 131.23 68.0391 129.726 70.6562 128.156C72.1766 127.244 73.4646 125.958 75.0312 125.062C82.6639 120.701 90.0368 116.138 97.875 112.219C102.912 109.7 107.868 106.475 112.125 102.75C113.446 101.594 114.997 100.465 116.094 99.0937C116.201 98.9593 116.363 98.6656 116.094 98.5312Z" fill="#675c57" fill-rule="evenodd" opacity="1" stroke="none"/>
<path d="M146.562 117.844C145.1 118.824 143.63 119.81 142.188 120.875C131.884 128.483 121.191 135.699 110.406 142.719C107.065 144.893 103.913 147.728 100.406 149.594C100.185 149.711 99.9987 149.877 99.7812 150C99.8547 150 99.9265 150 100 150C121.307 150 139.363 136.617 146.562 117.844Z" fill="#675c57" fill-rule="evenodd" opacity="1" stroke="none"/>
<path d="M100 49.9999C99.4525 49.9999 98.9182 50.0762 98.375 50.0937C78.8093 50.7227 62.171 62.5733 54.5312 79.4374C52.7 83.4797 51.3573 87.7823 50.6562 92.3124C50.3907 94.0282 50.2114 95.7624 50.125 97.5312C50.0849 98.3527 50 99.1685 50 99.9999C50 102.37 50.2124 104.687 50.5312 106.969C50.6224 107.621 50.7276 108.262 50.8438 108.906C51.1547 110.632 51.7356 112.247 52.2188 113.906C53.3473 117.781 54.8957 121.451 56.875 124.875C57.8074 126.488 58.7428 128.07 59.8438 129.562C60.6625 130.673 61.5942 131.681 62.5 132.719C63.2801 133.612 63.9403 134.602 64.7812 135.437C70.0593 140.683 76.5651 144.579 83.75 147.062C88.8045 148.809 94.1386 149.976 99.7812 150C99.8547 150 99.9265 150 100 150C121.307 150 139.363 136.617 146.562 117.844C147.535 115.309 148.417 112.714 148.969 110C149.627 106.764 150 103.43 150 99.9999C150 97.4546 149.742 94.9743 149.375 92.5312C148.683 87.9214 147.33 83.545 145.469 79.4374C144.766 77.8867 143.914 76.4301 143.062 74.9687C141.801 72.8023 140.375 70.7873 138.812 68.8437C138.06 67.9071 137.348 66.9418 136.531 66.0624C135.18 64.6089 133.701 63.3157 132.188 62.0312C130.945 60.9766 129.78 59.837 128.438 58.9062C125.312 56.7396 121.9 55.0102 118.312 53.5937C116.2 52.7596 113.992 52.1057 111.75 51.5624C107.96 50.6439 104.072 49.9999 100 49.9999Z" fill="url(#RadialGradient_3)" fill-rule="evenodd" opacity="1" stroke="none"/>
</g>
</g>
<g id="Layer-1-copy-copy-copy-copy" vectornator:layerName="Layer 1 copy copy copy copy">
<path d="M99.5 49.9999C98.958 49.9999 98.429 50.0762 97.8912 50.0937C78.5212 50.7227 62.0493 62.5733 54.4859 79.4374C52.673 83.4797 51.3437 87.7823 50.6497 92.3124C50.3868 94.0282 50.2093 95.7624 50.1238 97.5312C50.084 98.3527 50 99.1685 50 99.9999C50 102.37 50.2102 104.687 50.5259 106.969C50.6162 107.621 50.7204 108.262 50.8353 108.906C51.1432 110.632 51.7182 112.247 52.1966 113.906C53.3139 117.781 54.8467 121.451 56.8062 124.875C57.7293 126.488 58.6554 128.07 59.7453 129.562C60.5559 130.673 61.4783 131.681 62.375 132.719C63.1473 133.612 63.8009 134.602 64.6334 135.437C69.8587 140.683 76.2994 144.579 83.4125 147.062C88.4164 148.809 93.6973 149.976 99.2834 150C99.3561 150 99.4272 150 99.5 150C120.594 150 138.469 136.617 145.597 117.844C146.559 115.309 147.433 112.714 147.979 110C148.631 106.764 149 103.43 149 99.9999C149 97.4546 148.745 94.9743 148.381 92.5312C147.696 87.9214 146.356 83.545 144.514 79.4374C143.819 77.8867 142.975 76.4301 142.132 74.9687C140.883 72.8023 139.471 70.7873 137.924 68.8437C137.179 67.9071 136.475 66.9418 135.666 66.0624C134.329 64.6089 132.864 63.3157 131.366 62.0312C130.135 60.9766 128.982 59.837 127.653 58.9062C124.559 56.7396 121.181 55.0102 117.629 53.5937C115.538 52.7596 113.352 52.1057 111.132 51.5624C107.381 50.6439 103.531 49.9999 99.5 49.9999Z" fill="#edd290" fill-rule="evenodd" opacity="1" stroke="none"/>
<path d="M97.8912 50.0937C97.7784 50.1984 97.6647 50.3027 97.5509 50.4062C89.1384 58.0539 79.7348 64.9539 70.0166 70.8437C67.8419 72.1617 65.3901 73.0319 63.1794 74.2499C61.9091 74.9498 60.7471 75.8837 59.405 76.4999C57.6467 77.3072 56.06 78.368 54.4859 79.4374C52.673 83.4797 51.3437 87.7823 50.6497 92.3124C56.9482 90.7919 62.8659 89.0118 68.7481 85.8124C73.2107 83.3852 78.391 82.0524 83.0103 79.8749C94.6219 74.4014 106.074 68.3686 117.939 63.3749C121.225 61.9919 124.407 60.3621 127.653 58.9062C124.559 56.7396 121.181 55.0102 117.629 53.5937C113.528 55.956 109.373 58.1228 105.1 60.2812C101.053 62.3248 97.4348 65.4843 93.2197 67.1874C88.5103 69.0902 84.2869 72.4613 79.7928 74.9374C79.3768 75.1666 75.3028 77.3939 75.0594 76.6562C75.0264 76.5564 75.1095 76.4493 75.1831 76.3749C76.6549 74.8883 78.8011 73.6351 80.5044 72.4062C86.6387 67.9803 92.7488 63.4108 99.0669 59.1562C102.391 56.9177 105.786 54.7398 109.276 52.7812C109.532 52.6376 110.402 52.0575 111.132 51.5624C107.381 50.6439 103.531 49.9999 99.5 49.9999C98.958 49.9999 98.429 50.0762 97.8912 50.0937Z" fill="#bc956a" fill-rule="evenodd" opacity="1" stroke="none"/>
<path d="M131.366 62.0312C130.165 62.8657 128.934 63.6713 127.715 64.2187C122.792 66.4289 118.024 69.0319 113.051 71.1249C110.564 72.1714 108.126 73.1489 105.78 74.5312C103.279 76.0049 100.865 77.8034 98.51 79.4687C95.8565 81.3449 92.6799 82.5644 89.8475 84.1249C85.5509 86.4922 81.2167 88.7809 76.5753 90.3437C69.4339 92.7482 61.7396 93.2972 54.6406 95.6874C53.1198 96.1995 51.6306 96.883 50.1238 97.5312C50.084 98.3527 50 99.1685 50 99.9999C50 102.37 50.2102 104.687 50.5259 106.969C51.2408 106.521 51.9476 106.041 52.6916 105.719C63.2764 101.136 73.7444 96.2076 84.4025 91.5937C93.2673 87.7561 102.021 83.9612 110.668 79.5937C117.415 76.1864 123.361 71.3513 130.252 68.1874C132.019 67.376 133.839 66.7064 135.666 66.0624C134.329 64.6089 132.864 63.3157 131.366 62.0312Z" fill="#bc956a" fill-rule="evenodd" opacity="1" stroke="none"/>
<path d="M137.924 68.8437C137.828 68.9008 137.742 68.9744 137.646 69.0312C135.825 70.1044 133.807 70.892 131.922 71.8437C127.75 73.9509 123.953 76.7904 119.764 78.9062C113.382 82.1297 106.837 85.5149 100.335 88.4999C98.2104 89.4756 95.9182 90.0697 93.7766 91.0312C91.0865 92.2389 88.6674 94.061 85.9494 95.2812C81.4709 97.2917 76.8322 98.887 72.2441 100.625C65.5029 103.178 58.84 105.951 52.0109 108.25C51.8842 108.293 51.1856 108.712 50.8353 108.906C51.1432 110.632 51.7182 112.247 52.1966 113.906C52.9354 113.457 53.6224 112.927 54.3622 112.5C59.2635 109.671 64.7056 107.072 70.0166 105.156C72.0641 104.418 74.2855 104.149 76.2969 103.312C89.8668 97.6684 103.39 91.7836 116.825 85.8124C121.657 83.665 126.332 81.0471 131.211 79.0312C134.785 77.5544 138.588 76.5239 142.132 74.9687C140.883 72.8023 139.471 70.7873 137.924 68.8437Z" fill="#bc956a" fill-rule="evenodd" opacity="1" stroke="none"/>
<path d="M144.514 79.4374C137.341 82.4719 130.112 85.3779 122.982 88.3437C120.362 89.4332 117.931 91.1055 115.433 92.4374C102.213 99.4853 89.6722 107.949 76.1731 114.312C69.4195 117.496 63.4879 121.822 56.8062 124.875C57.7293 126.488 58.6554 128.07 59.7453 129.562C60.0364 129.414 60.4053 129.097 60.6734 129C64.3597 127.67 67.7939 125.865 71.4087 124.344C74.1139 123.205 76.961 122.317 79.5144 120.812C83.7979 118.288 87.6956 115.079 91.9513 112.5C94.2825 111.087 96.7849 109.664 98.9431 107.969C102.641 105.063 106.747 102.058 110.947 99.9374C111.751 99.5315 114.509 98.0648 115.433 98.5312C115.699 98.6656 115.539 98.9593 115.433 99.0937C114.347 100.465 112.811 101.594 111.504 102.75C107.289 106.475 102.383 109.7 97.3962 112.219C89.6364 116.138 82.3373 120.701 74.7809 125.062C73.23 125.958 71.9548 127.244 70.4497 128.156C67.8587 129.726 65.08 131.23 62.375 132.719C63.1473 133.612 63.8009 134.602 64.6334 135.437C71.9832 130.168 80.5728 127.559 88.61 123.5C100.889 117.298 112.49 110.003 125.085 104.437C132.98 100.948 140.862 96.8426 148.381 92.5312C147.696 87.9214 146.356 83.545 144.514 79.4374Z" fill="#bc956a" fill-rule="evenodd" opacity="1" stroke="none"/>
<path d="M147.979 110C145.327 111.302 142.663 112.576 140.028 113.906C138.425 114.716 137.004 116.001 135.418 116.875C124.1 123.111 113.271 130.079 102.161 136.625C96.8849 139.734 91.8325 143.14 86.2278 145.656C85.2689 146.087 84.3619 146.618 83.4125 147.062C88.4164 148.809 93.6973 149.976 99.2834 150C99.4987 149.877 99.6832 149.711 99.9022 149.594C103.374 147.728 106.494 144.893 109.802 142.719C120.479 135.699 131.065 128.484 141.266 120.875C142.694 119.81 144.149 118.824 145.597 117.844C146.559 115.309 147.433 112.714 147.979 110Z" fill="#bc956a" fill-rule="evenodd" opacity="1" stroke="none"/>
<path d="M97.8912 50.0937C78.5212 50.7227 62.0493 62.5733 54.4859 79.4374C56.06 78.368 57.6467 77.3072 59.405 76.4999C60.7471 75.8837 61.9091 74.9498 63.1794 74.2499C65.3901 73.0319 67.8419 72.1617 70.0166 70.8437C79.7348 64.9539 89.1384 58.0539 97.5509 50.4062C97.6647 50.3027 97.7784 50.1984 97.8912 50.0937Z" fill="#675c57" fill-rule="evenodd" opacity="1" stroke="none"/>
<path d="M111.132 51.5624C110.402 52.0575 109.532 52.6376 109.276 52.7812C105.786 54.7398 102.391 56.9177 99.0669 59.1562C92.7488 63.4108 86.6387 67.9803 80.5044 72.4062C78.8011 73.6351 76.6549 74.8883 75.1831 76.3749C75.1095 76.4493 75.0264 76.5564 75.0594 76.6562C75.3028 77.3939 79.3768 75.1666 79.7928 74.9374C84.2869 72.4613 88.5103 69.0902 93.2197 67.1874C97.4348 65.4843 101.053 62.3248 105.1 60.2812C109.373 58.1228 113.528 55.956 117.629 53.5937C115.538 52.7596 113.352 52.1057 111.132 51.5624Z" fill="#edd290" fill-rule="evenodd" opacity="1" stroke="none"/>
<path d="M127.653 58.9062C124.407 60.3621 121.225 61.9919 117.939 63.3749C106.074 68.3686 94.6219 74.4014 83.0103 79.8749C78.391 82.0524 73.2107 83.3852 68.7481 85.8124C62.8659 89.0118 56.9482 90.7919 50.6497 92.3124C50.3868 94.0282 50.2093 95.7624 50.1238 97.5312C51.6306 96.883 53.1198 96.1995 54.6406 95.6874C61.7396 93.2972 69.4339 92.7482 76.5753 90.3437C81.2167 88.7809 85.5509 86.4922 89.8475 84.1249C92.6799 82.5644 95.8565 81.3449 98.51 79.4687C100.865 77.8034 103.279 76.0049 105.78 74.5312C108.126 73.1489 110.564 72.1714 113.051 71.1249C118.024 69.0319 122.792 66.4289 127.715 64.2187C128.934 63.6713 130.165 62.8657 131.366 62.0312C130.135 60.9766 128.982 59.837 127.653 58.9062Z" fill="#edd290" fill-rule="evenodd" opacity="1" stroke="none"/>
<path d="M135.666 66.0624C133.839 66.7064 132.019 67.376 130.252 68.1874C123.361 71.3513 117.415 76.1864 110.668 79.5937C102.021 83.9612 93.2673 87.7561 84.4025 91.5937C73.7444 96.2076 63.2764 101.136 52.6916 105.719C51.9476 106.041 51.2408 106.521 50.5259 106.969C50.6162 107.621 50.7204 108.262 50.8353 108.906C51.1856 108.712 51.8842 108.293 52.0109 108.25C58.84 105.951 65.5029 103.178 72.2441 100.625C76.8322 98.887 81.4709 97.2917 85.9494 95.2812C88.6674 94.061 91.0865 92.2389 93.7766 91.0312C95.9182 90.0697 98.2104 89.4756 100.335 88.4999C106.837 85.5149 113.382 82.1297 119.764 78.9062C123.953 76.7904 127.75 73.9509 131.922 71.8437C133.807 70.892 135.825 70.1044 137.646 69.0312C137.742 68.9744 137.828 68.9008 137.924 68.8437C137.179 67.9071 136.475 66.9418 135.666 66.0624Z" fill="#675c57" fill-rule="evenodd" opacity="1" stroke="none"/>
<path d="M142.132 74.9687C138.588 76.5239 134.785 77.5544 131.211 79.0312C126.332 81.0471 121.657 83.665 116.825 85.8124C103.39 91.7836 89.8668 97.6684 76.2969 103.312C74.2855 104.149 72.0641 104.418 70.0166 105.156C64.7056 107.072 59.2635 109.671 54.3622 112.5C53.6224 112.927 52.9354 113.457 52.1966 113.906C53.3139 117.781 54.8467 121.451 56.8062 124.875C63.4879 121.822 69.4195 117.496 76.1731 114.312C89.6722 107.949 102.213 99.4853 115.433 92.4374C117.931 91.1055 120.362 89.4332 122.982 88.3437C130.112 85.3779 137.341 82.4719 144.514 79.4374C143.819 77.8867 142.975 76.4301 142.132 74.9687Z" fill="#edd290" fill-rule="evenodd" opacity="1" stroke="none"/>
<path d="M148.381 92.5312C140.862 96.8426 132.98 100.948 125.085 104.437C112.49 110.003 100.889 117.298 88.61 123.5C80.5728 127.559 71.9832 130.168 64.6334 135.437C69.8587 140.683 76.2994 144.579 83.4125 147.062C84.362 146.618 85.2689 146.087 86.2278 145.656C91.8325 143.14 96.8849 139.734 102.161 136.625C113.271 130.079 124.1 123.111 135.418 116.875C137.004 116.001 138.425 114.716 140.028 113.906C142.663 112.576 145.327 111.302 147.979 110C148.631 106.764 149 103.43 149 99.9999C149 97.4546 148.745 94.9743 148.381 92.5312Z" fill="#edd290" fill-rule="evenodd" opacity="1" stroke="none"/>
<path d="M115.433 98.5312C114.509 98.0648 111.751 99.5315 110.947 99.9374C106.747 102.058 102.641 105.063 98.9431 107.969C96.7849 109.664 94.2825 111.087 91.9513 112.5C87.6956 115.079 83.7979 118.288 79.5144 120.812C76.961 122.317 74.1139 123.205 71.4087 124.344C67.7939 125.865 64.3597 127.67 60.6734 129C60.4053 129.097 60.0364 129.414 59.7453 129.562C60.5559 130.673 61.4783 131.681 62.375 132.719C65.08 131.23 67.8587 129.726 70.4497 128.156C71.9548 127.244 73.23 125.958 74.7809 125.062C82.3373 120.701 89.6364 116.138 97.3962 112.219C102.383 109.7 107.289 106.475 111.504 102.75C112.811 101.594 114.347 100.465 115.433 99.0937C115.539 98.9593 115.699 98.6656 115.433 98.5312Z" fill="#675c57" fill-rule="evenodd" opacity="1" stroke="none"/>
<path d="M145.597 117.844C144.149 118.824 142.694 119.81 141.266 120.875C131.065 128.483 120.479 135.699 109.802 142.719C106.494 144.893 103.374 147.728 99.9022 149.594C99.6832 149.711 99.4987 149.877 99.2834 150C99.3561 150 99.4272 150 99.5 150C120.594 150 138.469 136.617 145.597 117.844Z" fill="#675c57" fill-rule="evenodd" opacity="1" stroke="none"/>
<path d="M100 49.9999C99.4525 49.9999 98.9182 50.0762 98.375 50.0937C78.8093 50.7227 62.171 62.5733 54.5312 79.4374C52.7 83.4797 51.3573 87.7823 50.6562 92.3124C50.3907 94.0282 50.2114 95.7624 50.125 97.5312C50.0849 98.3527 50 99.1685 50 99.9999C50 102.37 50.2124 104.687 50.5312 106.969C50.6224 107.621 50.7276 108.262 50.8438 108.906C51.1547 110.632 51.7356 112.247 52.2188 113.906C53.3473 117.781 54.8957 121.451 56.875 124.875C57.8074 126.488 58.7428 128.07 59.8438 129.562C60.6625 130.673 61.5942 131.681 62.5 132.719C63.2801 133.612 63.9403 134.602 64.7812 135.437C70.0593 140.683 76.5651 144.579 83.75 147.062C88.8045 148.809 94.1386 149.976 99.7812 150C99.8547 150 99.9265 150 100 150C121.307 150 139.363 136.617 146.562 117.844C147.535 115.309 148.417 112.714 148.969 110C149.627 106.764 150 103.43 150 99.9999C150 97.4546 149.742 94.9743 149.375 92.5312C148.683 87.9214 147.33 83.545 145.469 79.4374C144.766 77.8867 143.914 76.4301 143.062 74.9687C141.801 72.8023 140.375 70.7873 138.812 68.8437C138.06 67.9071 137.348 66.9418 136.531 66.0624C135.18 64.6089 133.701 63.3157 132.188 62.0312C130.945 60.9766 129.78 59.837 128.438 58.9062C125.312 56.7396 121.9 55.0102 118.312 53.5937C116.2 52.7596 113.992 52.1057 111.75 51.5624C107.96 50.6439 104.072 49.9999 100 49.9999Z" fill="url(#RadialGradient_4)" fill-rule="evenodd" opacity="1" stroke="none"/>
</g>
<g id="Layer-2" vectornator:layerName="Layer 2">
<path d="M158.656 50.9062C149.565 51.0653 138.11 53.338 125.594 57.1875C126.552 57.7485 127.525 58.2738 128.438 58.9062C129.78 59.8371 130.945 60.9767 132.188 62.0312C133.701 63.3158 135.18 64.609 136.531 66.0625C137.348 66.9419 138.06 67.9072 138.812 68.8438C140.23 70.6065 141.484 72.4664 142.656 74.4062C141.361 75.7753 140.125 77.254 138.781 78.4062C136.674 80.2123 134.888 82.4127 132.781 84.2188C127.608 88.6528 121.799 93.1141 116.031 96.7188C113.411 98.3567 110.374 100.021 108 102C105.228 104.31 102.232 106.736 99.2812 108.844C96.9118 110.536 94.0632 111.582 91.5938 113.125C86.8114 116.114 81.2489 116.355 76.0312 118.094C69.8476 120.155 64.3998 124.483 57.9062 125.781C57.6906 125.824 57.6216 125.756 57.4375 125.781C57.2569 125.474 57.0542 125.185 56.875 124.875C54.8957 121.451 53.3473 117.781 52.2188 113.906C51.7356 112.247 51.1547 110.632 50.8438 108.906C50.7277 108.262 50.6224 107.621 50.5312 106.969C50.2124 104.687 50 102.37 50 100C50 99.1686 50.0849 98.3528 50.125 97.5312C50.1503 97.0123 50.2401 96.5134 50.2812 96C27.5075 113.432 14.7623 131.055 20 141.219C27.5899 155.947 69.5664 149.426 113.75 126.656C157.934 103.887 187.59 73.5091 180 58.7812C177.154 53.2583 169.476 50.717 158.656 50.9062Z" fill="url(#RadialGradient_5)" fill-rule="evenodd" opacity="1" stroke="none"/>
</g>
<g id="Layer-2-copy" vectornator:layerName="Layer 2 copy">
<path d="M158.656 50.9062C149.565 51.0653 138.11 53.338 125.594 57.1875C126.552 57.7485 127.525 58.2738 128.438 58.9062C129.78 59.8371 130.945 60.9767 132.188 62.0312C133.701 63.3158 135.18 64.609 136.531 66.0625C137.348 66.9419 138.06 67.9072 138.812 68.8438C140.23 70.6065 141.484 72.4664 142.656 74.4062C141.361 75.7753 140.125 77.254 138.781 78.4062C136.674 80.2123 134.888 82.4127 132.781 84.2188C127.608 88.6528 121.799 93.1141 116.031 96.7188C113.411 98.3567 110.374 100.021 108 102C105.228 104.31 102.232 106.736 99.2812 108.844C96.9118 110.536 94.0632 111.582 91.5938 113.125C86.8114 116.114 81.2489 116.355 76.0312 118.094C69.8476 120.155 64.3998 124.483 57.9062 125.781C57.6906 125.824 57.6216 125.756 57.4375 125.781C57.2569 125.474 57.0542 125.185 56.875 124.875C54.8957 121.451 53.3473 117.781 52.2188 113.906C51.7356 112.247 51.1547 110.632 50.8438 108.906C50.7277 108.262 50.6224 107.621 50.5312 106.969C50.2124 104.687 50 102.37 50 100C50 99.1686 50.0849 98.3528 50.125 97.5312C50.1503 97.0123 50.2401 96.5134 50.2812 96C27.5075 113.432 14.7623 131.055 20 141.219C27.5899 155.947 69.5664 149.426 113.75 126.656C157.934 103.887 187.59 73.5091 180 58.7812C177.154 53.2583 169.476 50.717 158.656 50.9062Z" fill="url(#RadialGradient_6)" fill-rule="evenodd" opacity="1" stroke="none"/>
</g>
<g id="Layer-1-copy-copy-copy_3" vectornator:layerName="Layer 1 copy copy copy" visibility="hidden">
<path d="M50 0C49.4525 0 48.9182 0.0762859 48.375 0.09375C28.8093 0.722762 12.171 12.5734 4.53125 29.4375C2.70001 33.4798 1.35731 37.7824 0.65625 42.3125C0.390718 44.0283 0.211384 45.7625 0.125 47.5312C0.0848795 48.3528 7.45058e-09 49.1685 0 50C0 52.3698 0.212363 54.6868 0.53125 56.9688C0.622425 57.6212 0.727646 58.2621 0.84375 58.9062C1.15475 60.6316 1.73558 62.2473 2.21875 63.9062C3.34734 67.7813 4.89568 71.4509 6.875 74.875C7.8074 76.488 8.74283 78.0698 9.84375 79.5625C10.6625 80.6727 11.5942 81.6814 12.5 82.7188C13.2801 83.6122 13.9403 84.6017 14.7812 85.4375C20.0593 90.6829 26.5651 94.5793 33.75 97.0625C38.8045 98.8094 44.1386 99.9757 49.7812 100C49.8547 100 49.9265 100 50 100C71.3068 100 89.3626 86.6169 96.5625 67.8438C97.5347 65.3089 98.4169 62.7141 98.9688 60C99.6268 56.7638 100 53.4305 100 50C100 47.4546 99.742 44.9743 99.375 42.5312C98.6826 37.9214 97.3295 33.545 95.4688 29.4375C94.7662 27.8868 93.9138 26.4302 93.0625 24.9688C91.8005 22.8024 90.375 20.7874 88.8125 18.8438C88.0596 17.9072 87.3484 16.9419 86.5312 16.0625C85.1805 14.609 83.7012 13.3158 82.1875 12.0312C80.9448 10.9767 79.7802 9.83711 78.4375 8.90625C75.3122 6.73966 71.8997 5.01031 68.3125 3.59375C66.2004 2.7597 63.9916 2.10581 61.75 1.5625C57.9603 0.643955 54.0721 0 50 0Z" fill="#edd290" fill-rule="evenodd" opacity="1" stroke="none"/>
</g>
<g id="Layer-1-copy-copy-copy-copy_2" vectornator:layerName="Layer 1 copy copy copy copy" visibility="hidden">
<path d="M48.375 0.09375C48.261 0.198442 48.1462 0.302813 48.0312 0.40625C39.5338 8.05399 30.0351 14.9539 20.2188 20.8438C18.0221 22.1618 15.5456 23.032 13.3125 24.25C12.0294 24.9499 10.8556 25.8838 9.5 26.5C7.72394 27.3073 6.12118 28.3681 4.53125 29.4375C2.70001 33.4798 1.35731 37.7824 0.65625 42.3125C7.01835 40.792 12.9959 39.0118 18.9375 35.8125C23.4452 33.3853 28.6778 32.0525 33.3438 29.875C45.0727 24.4015 56.6403 18.3686 68.625 13.375C71.9442 11.992 75.1581 10.3622 78.4375 8.90625C75.3122 6.73966 71.8998 5.01031 68.3125 3.59375C64.17 5.95604 59.973 8.12286 55.6562 10.2812C51.5691 12.3248 47.914 15.4844 43.6562 17.1875C38.8993 19.0903 34.6332 22.4614 30.0938 24.9375C29.6735 25.1667 25.5584 27.394 25.3125 26.6562C25.2792 26.5565 25.3631 26.4494 25.4375 26.375C26.9242 24.8883 29.092 23.6352 30.8125 22.4062C37.0088 17.9804 43.1806 13.4108 49.5625 9.15625C52.9202 6.91778 56.3496 4.73983 59.875 2.78125C60.1334 2.6377 61.0119 2.05759 61.75 1.5625C57.9603 0.643955 54.0721 0 50 0C49.4525 0 48.9182 0.0762859 48.375 0.09375Z" fill="#bc956a" fill-rule="evenodd" opacity="1" stroke="none"/>
<path d="M82.1875 12.0312C80.9746 12.8657 79.7315 13.6714 78.5 14.2188C73.5269 16.429 68.7109 19.0319 63.6875 21.125C61.1759 22.1715 58.7133 23.149 56.3438 24.5312C53.8173 26.005 51.379 27.8035 49 29.4688C46.3197 31.345 43.111 32.5645 40.25 34.125C35.91 36.4923 31.5321 38.781 26.8438 40.3438C19.6302 42.7483 11.8582 43.2973 4.6875 45.6875C3.15132 46.1996 1.64706 46.8831 0.125 47.5312C0.0848795 48.3528 0 49.1686 0 50C0 52.3698 0.212362 54.6868 0.53125 56.9688C1.25336 56.5208 1.96726 56.0408 2.71875 55.7188C13.4105 51.1366 23.9842 46.2077 34.75 41.5938C43.7043 37.7562 52.5462 33.9613 61.2812 29.5938C68.0958 26.1865 74.102 21.3514 81.0625 18.1875C82.8477 17.3761 84.6863 16.7064 86.5312 16.0625C85.1805 14.609 83.7012 13.3158 82.1875 12.0312Z" fill="#bc956a" fill-rule="evenodd" opacity="1" stroke="none"/>
<path d="M88.8125 18.8438C88.7153 18.9008 88.6286 18.9745 88.5312 19.0312C86.6915 20.1044 84.6534 20.892 82.75 21.8438C78.5355 23.951 74.7003 26.7905 70.4688 28.9062C64.0217 32.1298 57.4109 35.5149 50.8438 38.5C48.6974 39.4756 46.382 40.0698 44.2188 41.0312C41.5015 42.2389 39.0579 44.0611 36.3125 45.2812C31.7888 47.2918 27.1032 48.8871 22.4688 50.625C15.6595 53.1785 8.92927 55.9507 2.03125 58.25C1.9032 58.2927 1.19759 58.7123 0.84375 58.9062C1.15475 60.6316 1.73558 62.2473 2.21875 63.9062C2.96506 63.4573 3.65894 62.927 4.40625 62.5C9.35711 59.6709 14.8542 57.0722 20.2188 55.1562C22.2869 54.4176 24.5308 54.1491 26.5625 53.3125C40.2695 47.6685 53.9292 41.7837 67.5 35.8125C72.3806 33.665 77.1034 31.0472 82.0312 29.0312C85.641 27.5545 89.4824 26.524 93.0625 24.9688C91.8005 22.8024 90.375 20.7874 88.8125 18.8438Z" fill="#bc956a" fill-rule="evenodd" opacity="1" stroke="none"/>
<path d="M95.4688 29.4375C88.223 32.472 80.9214 35.378 73.7188 38.3438C71.0728 39.4332 68.6173 41.1056 66.0938 42.4375C52.74 49.4853 40.073 57.9493 26.4375 64.3125C19.6157 67.496 13.6241 71.8217 6.875 74.875C7.8074 76.488 8.74283 78.0698 9.84375 79.5625C10.1378 79.4138 10.5104 79.0967 10.7812 79C14.5047 77.6702 17.9737 75.8651 21.625 74.3438C24.3575 73.2052 27.2334 72.317 29.8125 70.8125C34.1393 68.2886 38.0764 65.0792 42.375 62.5C44.7298 61.0871 47.2575 59.6643 49.4375 57.9688C53.1728 55.0635 57.3206 52.0584 61.5625 49.9375C62.3743 49.5316 65.161 48.0649 66.0938 48.5312C66.3626 48.6657 66.2013 48.9593 66.0938 49.0938C64.9971 50.4646 63.4458 51.5943 62.125 52.75C57.8678 56.4751 52.9117 59.7004 47.875 62.2188C40.0368 66.1379 32.6639 70.701 25.0312 75.0625C23.4646 75.9577 22.1766 77.2441 20.6562 78.1562C18.0391 79.7266 15.2323 81.2304 12.5 82.7188C13.2801 83.6122 13.9403 84.6017 14.7812 85.4375C22.2053 80.1681 30.8816 77.5592 39 73.5C51.4031 67.2985 63.1215 60.0035 75.8438 54.4375C83.8186 50.9485 91.7801 46.8427 99.375 42.5312C98.6826 37.9214 97.3295 33.545 95.4688 29.4375Z" fill="#bc956a" fill-rule="evenodd" opacity="1" stroke="none"/>
<path d="M98.9688 60C96.2899 61.3016 93.5988 62.5756 90.9375 63.9062C89.3182 64.7159 87.8832 66.0012 86.2812 66.875C74.8487 73.1109 63.9099 80.0786 52.6875 86.625C47.3585 89.7336 42.2551 93.1401 36.5938 95.6562C35.6251 96.0868 34.709 96.6181 33.75 97.0625C38.8045 98.8094 44.1386 99.9757 49.7812 100C49.9987 99.8767 50.185 99.7115 50.4062 99.5938C53.9134 97.7277 57.0649 94.8935 60.4062 92.7188C71.1912 85.6992 81.8838 78.4836 92.1875 70.875C93.6298 69.8099 95.1001 68.8245 96.5625 67.8438C97.5347 65.3089 98.4169 62.7141 98.9688 60Z" fill="#bc956a" fill-rule="evenodd" opacity="1" stroke="none"/>
<path d="M48.375 0.09375C28.8093 0.722762 12.171 12.5734 4.53125 29.4375C6.12118 28.3681 7.72394 27.3073 9.5 26.5C10.8556 25.8838 12.0294 24.9499 13.3125 24.25C15.5456 23.032 18.0221 22.1618 20.2188 20.8438C30.0351 14.9539 39.5338 8.05399 48.0312 0.40625C48.1462 0.302813 48.261 0.198442 48.375 0.09375Z" fill="#675c57" fill-rule="evenodd" opacity="1" stroke="none"/>
<path d="M61.75 1.5625C61.0119 2.05759 60.1334 2.6377 59.875 2.78125C56.3496 4.73983 52.9202 6.91778 49.5625 9.15625C43.1806 13.4108 37.0088 17.9804 30.8125 22.4062C29.092 23.6352 26.9242 24.8883 25.4375 26.375C25.3631 26.4494 25.2792 26.5565 25.3125 26.6562C25.5584 27.394 29.6735 25.1667 30.0938 24.9375C34.6332 22.4614 38.8993 19.0903 43.6562 17.1875C47.914 15.4844 51.5691 12.3248 55.6562 10.2812C59.973 8.12286 64.17 5.95604 68.3125 3.59375C66.2004 2.7597 63.9916 2.10581 61.75 1.5625Z" fill="#edd290" fill-rule="evenodd" opacity="1" stroke="none"/>
<path d="M78.4375 8.90625C75.1581 10.3622 71.9442 11.992 68.625 13.375C56.6403 18.3686 45.0727 24.4015 33.3438 29.875C28.6778 32.0525 23.4452 33.3853 18.9375 35.8125C12.9959 39.0118 7.01835 40.792 0.65625 42.3125C0.390718 44.0283 0.211384 45.7625 0.125 47.5312C1.64706 46.8831 3.15132 46.1996 4.6875 45.6875C11.8582 43.2973 19.6302 42.7483 26.8438 40.3438C31.5321 38.781 35.91 36.4923 40.25 34.125C43.111 32.5645 46.3197 31.345 49 29.4688C51.379 27.8035 53.8173 26.005 56.3438 24.5312C58.7133 23.149 61.1759 22.1715 63.6875 21.125C68.7109 19.0319 73.5269 16.429 78.5 14.2188C79.7315 13.6714 80.9746 12.8657 82.1875 12.0312C80.9448 10.9767 79.7802 9.83711 78.4375 8.90625Z" fill="#edd290" fill-rule="evenodd" opacity="1" stroke="none"/>
<path d="M86.5312 16.0625C84.6863 16.7064 82.8477 17.3761 81.0625 18.1875C74.102 21.3514 68.0958 26.1865 61.2812 29.5938C52.5462 33.9613 43.7043 37.7562 34.75 41.5938C23.9842 46.2077 13.4105 51.1366 2.71875 55.7188C1.96726 56.0408 1.25336 56.5208 0.53125 56.9688C0.622425 57.6212 0.727646 58.2621 0.84375 58.9062C1.19759 58.7122 1.9032 58.2927 2.03125 58.25C8.92927 55.9507 15.6595 53.1785 22.4688 50.625C27.1032 48.8871 31.7888 47.2918 36.3125 45.2812C39.0579 44.0611 41.5015 42.2389 44.2188 41.0312C46.382 40.0698 48.6974 39.4756 50.8438 38.5C57.4109 35.5149 64.0217 32.1298 70.4688 28.9062C74.7003 26.7905 78.5355 23.951 82.75 21.8438C84.6534 20.892 86.6915 20.1044 88.5312 19.0312C88.6286 18.9745 88.7153 18.9008 88.8125 18.8438C88.0596 17.9072 87.3485 16.9419 86.5312 16.0625Z" fill="#675c57" fill-rule="evenodd" opacity="1" stroke="none"/>
<path d="M93.0625 24.9688C89.4823 26.524 85.641 27.5545 82.0312 29.0312C77.1034 31.0472 72.3806 33.665 67.5 35.8125C53.9292 41.7837 40.2695 47.6685 26.5625 53.3125C24.5308 54.1491 22.2869 54.4176 20.2188 55.1562C14.8542 57.0722 9.35711 59.6709 4.40625 62.5C3.65894 62.927 2.96506 63.4573 2.21875 63.9062C3.34734 67.7813 4.89568 71.4509 6.875 74.875C13.6241 71.8217 19.6157 67.496 26.4375 64.3125C40.073 57.9493 52.74 49.4853 66.0938 42.4375C68.6173 41.1056 71.0728 39.4332 73.7188 38.3438C80.9214 35.3779 88.223 32.472 95.4688 29.4375C94.7662 27.8868 93.9138 26.4302 93.0625 24.9688Z" fill="#edd290" fill-rule="evenodd" opacity="1" stroke="none"/>
<path d="M99.375 42.5312C91.7801 46.8427 83.8186 50.9485 75.8438 54.4375C63.1215 60.0035 51.4031 67.2985 39 73.5C30.8816 77.5592 22.2053 80.1681 14.7812 85.4375C20.0593 90.6829 26.5651 94.5793 33.75 97.0625C34.709 96.6181 35.6251 96.0868 36.5938 95.6562C42.2551 93.1401 47.3585 89.7336 52.6875 86.625C63.9099 80.0786 74.8487 73.1109 86.2812 66.875C87.8832 66.0012 89.3182 64.7159 90.9375 63.9062C93.5988 62.5756 96.2899 61.3016 98.9688 60C99.6268 56.7638 100 53.4305 100 50C100 47.4546 99.742 44.9743 99.375 42.5312Z" fill="#edd290" fill-rule="evenodd" opacity="1" stroke="none"/>
<path d="M66.0938 48.5312C65.161 48.0649 62.3743 49.5316 61.5625 49.9375C57.3206 52.0584 53.1728 55.0635 49.4375 57.9688C47.2575 59.6643 44.7298 61.0871 42.375 62.5C38.0764 65.0792 34.1393 68.2886 29.8125 70.8125C27.2334 72.317 24.3575 73.2052 21.625 74.3438C17.9737 75.8651 14.5047 77.6702 10.7812 79C10.5104 79.0967 10.1378 79.4138 9.84375 79.5625C10.6625 80.6727 11.5942 81.6814 12.5 82.7188C15.2323 81.2304 18.0391 79.7266 20.6562 78.1562C22.1766 77.2441 23.4646 75.9577 25.0312 75.0625C32.6639 70.701 40.0368 66.1379 47.875 62.2188C52.9117 59.7004 57.8678 56.4751 62.125 52.75C63.4458 51.5943 64.9971 50.4646 66.0938 49.0938C66.2013 48.9593 66.3626 48.6657 66.0938 48.5312Z" fill="#675c57" fill-rule="evenodd" opacity="1" stroke="none"/>
<path d="M96.5625 67.8438C95.1001 68.8245 93.6298 69.8099 92.1875 70.875C81.8839 78.4836 71.1912 85.6992 60.4062 92.7188C57.0649 94.8935 53.9134 97.7277 50.4062 99.5938C50.185 99.7115 49.9987 99.8767 49.7812 100C49.8547 100 49.9265 100 50 100C71.3068 100 89.3626 86.6169 96.5625 67.8438Z" fill="#675c57" fill-rule="evenodd" opacity="1" stroke="none"/>
</g>
<g id="Layer-1-copy-copy-copy-copy_3" vectornator:layerName="Layer 1 copy copy copy copy" visibility="hidden">
<path d="M50 0C49.4525 0 48.9182 0.0762859 48.375 0.09375C28.8093 0.722762 12.171 12.5734 4.53125 29.4375C2.70001 33.4798 1.35731 37.7824 0.65625 42.3125C0.390718 44.0283 0.211384 45.7625 0.125 47.5312C0.0848795 48.3528 7.45058e-09 49.1685 0 50C0 52.3698 0.212363 54.6868 0.53125 56.9688C0.622425 57.6212 0.727646 58.2621 0.84375 58.9062C1.15475 60.6316 1.73558 62.2473 2.21875 63.9062C3.34734 67.7813 4.89568 71.4509 6.875 74.875C7.8074 76.488 8.74283 78.0698 9.84375 79.5625C10.6625 80.6727 11.5942 81.6814 12.5 82.7188C13.2801 83.6122 13.9403 84.6017 14.7812 85.4375C20.0593 90.6829 26.5651 94.5793 33.75 97.0625C38.8045 98.8094 44.1386 99.9757 49.7812 100C49.8547 100 49.9265 100 50 100C71.3068 100 89.3626 86.6169 96.5625 67.8438C97.5347 65.3089 98.4169 62.7141 98.9688 60C99.6268 56.7638 100 53.4305 100 50C100 47.4546 99.742 44.9743 99.375 42.5312C98.6826 37.9214 97.3295 33.545 95.4688 29.4375C94.7662 27.8868 93.9138 26.4302 93.0625 24.9688C91.8005 22.8024 90.375 20.7874 88.8125 18.8438C88.0596 17.9072 87.3484 16.9419 86.5312 16.0625C85.1805 14.609 83.7012 13.3158 82.1875 12.0312C80.9448 10.9767 79.7802 9.83711 78.4375 8.90625C75.3122 6.73966 71.8997 5.01031 68.3125 3.59375C66.2004 2.7597 63.9916 2.10581 61.75 1.5625C57.9603 0.643955 54.0721 0 50 0Z" fill="url(#RadialGradient_7)" fill-rule="evenodd" opacity="1" stroke="none"/>
</g>
</svg>
