<?xml version="1.0" encoding="UTF-8" standalone="no"?>
<!DOCTYPE svg PUBLIC "-//W3C//DTD SVG 1.1//EN" "http://www.w3.org/Graphics/SVG/1.1/DTD/svg11.dtd">

<!-- Created with Vectornator (http://vectornator.io/) -->
<svg height="100%" stroke-miterlimit="10" style="fill-rule:nonzero;clip-rule:evenodd;stroke-linecap:round;stroke-linejoin:round;" version="1.1" viewBox="0 0 100 100" width="100%" xml:space="preserve" xmlns="http://www.w3.org/2000/svg" xmlns:vectornator="http://vectornator.io" xmlns:xlink="http://www.w3.org/1999/xlink">
<metadata>
<vectornator:setting key="IsTimeLapseWatermarkDisabled" value="false"/>
<vectornator:setting key="UndoHistoryDisabled" value="true"/>
<vectornator:setting key="VNDimensionsVisible" value="true"/>
<vectornator:setting key="VNSnapToGuides" value="true"/>
<vectornator:setting key="WDCMYKEnabledKey" value="false"/>
<vectornator:setting key="WDDisplayWhiteBackground" value="false"/>
<vectornator:setting key="WDDynamicGuides" value="false"/>
<vectornator:setting key="WDGuidesVisible" value="true"/>
<vectornator:setting key="WDIsolateActiveLayer" value="false"/>
<vectornator:setting key="WDOutlineMode" value="false"/>
<vectornator:setting key="WDRulersVisible" value="true"/>
<vectornator:setting key="WDSnapToEdges" value="false"/>
<vectornator:setting key="WDSnapToGrid" value="false"/>
<vectornator:setting key="WDSnapToPoints" value="false"/>
<vectornator:setting key="WDUnits" value="Points"/>
</metadata>
<defs>
<linearGradient gradientTransform="matrix(1 0 0 1 0 0)" gradientUnits="userSpaceOnUse" id="LinearGradient" x1="22.9586" x2="9.40447" y1="50.5569" y2="-37.6753">
<stop offset="0.105372" stop-color="#c2853c"/>
<stop offset="0.487603" stop-color="#098628"/>
<stop offset="0.871901" stop-color="#c2853c"/>
</linearGradient>
<linearGradient gradientTransform="matrix(1 0 0 1 0 0)" gradientUnits="userSpaceOnUse" id="LinearGradient_2" x1="-0.500476" x2="-1.28245" y1="104.904" y2="34.7872">
<stop offset="0.105372" stop-color="#c2853c"/>
<stop offset="0.487603" stop-color="#098628"/>
<stop offset="0.871901" stop-color="#c2853c"/>
</linearGradient>
<linearGradient gradientTransform="matrix(1 0 0 1 0 0)" gradientUnits="userSpaceOnUse" id="LinearGradient_3" x1="52.0618" x2="55.1399" y1="36.5419" y2="73.4795">
<stop offset="0.105372" stop-color="#c2853c"/>
<stop offset="0.487603" stop-color="#098628"/>
<stop offset="0.871901" stop-color="#c2853c"/>
</linearGradient>
<linearGradient gradientTransform="matrix(1 0 0 1 0 0)" gradientUnits="userSpaceOnUse" id="LinearGradient_4" x1="58.5382" x2="61.975" y1="25.6642" y2="-10.0903">
<stop offset="0.105372" stop-color="#c2853c"/>
<stop offset="0.487603" stop-color="#098628"/>
<stop offset="0.871901" stop-color="#c2853c"/>
</linearGradient>
<linearGradient gradientTransform="matrix(0.99 0 0 1 0 0)" gradientUnits="userSpaceOnUse" id="LinearGradient_5" x1="11.2006" x2="92.1676" y1="47.2274" y2="45.8551">
<stop offset="0" stop-color="#009aff"/>
<stop offset="0.121901" stop-color="#47adef"/>
<stop offset="0.266529" stop-color="#62b5eb"/>
<stop offset="0.376033" stop-color="#69baef"/>
<stop offset="0.549587" stop-color="#49aae9"/>
<stop offset="0.60124" stop-color="#439ed9"/>
<stop offset="0.667355" stop-color="#278fd3"/>
<stop offset="0.820248" stop-color="#1e90da"/>
<stop offset="1" stop-color="#009aff"/>
</linearGradient>
<linearGradient gradientTransform="matrix(0.99 0 0 1 0 0)" gradientUnits="userSpaceOnUse" id="LinearGradient_6" x1="30.0276" x2="83.7878" y1="55.3146" y2="55.3146">
<stop offset="0.105372" stop-color="#c2853c"/>
<stop offset="0.487603" stop-color="#098628"/>
<stop offset="0.871901" stop-color="#c2853c"/>
</linearGradient>
<linearGradient gradientTransform="matrix(0.99 0 0 1 0 0)" gradientUnits="userSpaceOnUse" id="LinearGradient_7" x1="58.0677" x2="83.6916" y1="31.4494" y2="-14.4769">
<stop offset="0.105372" stop-color="#c2853c"/>
<stop offset="0.487603" stop-color="#098628"/>
<stop offset="0.871901" stop-color="#c2853c"/>
</linearGradient>
<linearGradient gradientTransform="matrix(0.99 0 0 1 0 0)" gradientUnits="userSpaceOnUse" id="LinearGradient_8" x1="7.81757" x2="9.6829" y1="-11.6691" y2="29.8591">
<stop offset="0.105372" stop-color="#c2853c"/>
<stop offset="0.487603" stop-color="#098628"/>
<stop offset="0.871901" stop-color="#c2853c"/>
</linearGradient>
<linearGradient gradientTransform="matrix(0.99 0 0 1 0 0)" gradientUnits="userSpaceOnUse" id="LinearGradient_9" x1="54.4036" x2="57.4009" y1="35.4426" y2="78.3034">
<stop offset="0.105372" stop-color="#c2853c"/>
<stop offset="0.487603" stop-color="#098628"/>
<stop offset="0.871901" stop-color="#c2853c"/>
</linearGradient>
<linearGradient gradientTransform="matrix(0.99 0 0 1 0 0)" gradientUnits="userSpaceOnUse" id="LinearGradient_10" x1="2.81063" x2="12.1373" y1="40.2657" y2="93.8694">
<stop offset="0.105372" stop-color="#c2853c"/>
<stop offset="0.487603" stop-color="#098628"/>
<stop offset="0.871901" stop-color="#c2853c"/>
</linearGradient>
<radialGradient cx="108.292" cy="159.072" gradientTransform="matrix(1 0 0 1 0 0)" gradientUnits="userSpaceOnUse" id="RadialGradient" r="0.11436">
<stop offset="0" stop-color="#ebebeb"/>
<stop offset="0.394628" stop-color="#e5e5e5" stop-opacity="0.529279"/>
<stop offset="1" stop-color="#ffffff" stop-opacity="0"/>
</radialGradient>
<radialGradient cx="35.3355" cy="75.5433" gradientTransform="matrix(0.826859 0 0 0.830805 21.4292 6.70357)" gradientUnits="userSpaceOnUse" id="RadialGradient_2" r="19.0805">
<stop offset="0" stop-color="#ebebeb" stop-opacity="0.79054"/>
<stop offset="0.394628" stop-color="#e5e5e5" stop-opacity="0.581081"/>
<stop offset="1" stop-color="#ffffff" stop-opacity="0"/>
</radialGradient>
<radialGradient cx="35.9311" cy="76.3553" gradientTransform="matrix(0.930663 0 0 0.726224 32.599 16.3733)" gradientUnits="userSpaceOnUse" id="RadialGradient_3" r="18.6865">
<stop offset="0" stop-color="#ebebeb" stop-opacity="0.79054"/>
<stop offset="0.394628" stop-color="#e5e5e5" stop-opacity="0.581081"/>
<stop offset="1" stop-color="#ffffff" stop-opacity="0"/>
</radialGradient>
<radialGradient cx="35.9311" cy="76.3553" gradientTransform="matrix(0.78694 0 0 0.740914 10.6512 1.08114)" gradientUnits="userSpaceOnUse" id="RadialGradient_4" r="18.6865">
<stop offset="0" stop-color="#ebebeb" stop-opacity="0.79054"/>
<stop offset="0.394628" stop-color="#e5e5e5" stop-opacity="0.581081"/>
<stop offset="1" stop-color="#ffffff" stop-opacity="0"/>
</radialGradient>
<radialGradient cx="35.9311" cy="76.3553" gradientTransform="matrix(0.736955 -0.331653 0.222921 0.495345 14.3034 36.5021)" gradientUnits="userSpaceOnUse" id="RadialGradient_5" r="18.6865">
<stop offset="0" stop-color="#ebebeb" stop-opacity="0.79054"/>
<stop offset="0.394628" stop-color="#e5e5e5" stop-opacity="0.581081"/>
<stop offset="1" stop-color="#ffffff" stop-opacity="0"/>
</radialGradient>
<radialGradient cx="35.9311" cy="76.3553" gradientTransform="matrix(1.13009 0.277439 -0.12972 0.425512 21.1193 9.11614)" gradientUnits="userSpaceOnUse" id="RadialGradient_6" r="18.6865">
<stop offset="0" stop-color="#ebebeb" stop-opacity="0.79054"/>
<stop offset="0.394628" stop-color="#e5e5e5" stop-opacity="0.581081"/>
<stop offset="1" stop-color="#ffffff" stop-opacity="0"/>
</radialGradient>
<radialGradient cx="35.9311" cy="76.3553" gradientTransform="matrix(1.02893 0 0 0.704167 -7.46838 -28.4561)" gradientUnits="userSpaceOnUse" id="RadialGradient_7" r="18.6865">
<stop offset="0" stop-color="#ebebeb" stop-opacity="0.79054"/>
<stop offset="0.394628" stop-color="#e5e5e5" stop-opacity="0.581081"/>
<stop offset="1" stop-color="#ffffff" stop-opacity="0"/>
</radialGradient>
<radialGradient cx="35.9311" cy="76.3553" gradientTransform="matrix(0.690083 0 0 0.486881 15.0757 -8.72589)" gradientUnits="userSpaceOnUse" id="RadialGradient_8" r="18.6865">
<stop offset="0" stop-color="#ebebeb" stop-opacity="0.79054"/>
<stop offset="0.394628" stop-color="#e5e5e5" stop-opacity="0.581081"/>
<stop offset="1" stop-color="#ffffff" stop-opacity="0"/>
</radialGradient>
<radialGradient cx="35.9311" cy="76.3553" gradientTransform="matrix(0.690083 0 0 0.486881 51.5609 17.4978)" gradientUnits="userSpaceOnUse" id="RadialGradient_9" r="18.6865">
<stop offset="0" stop-color="#ebebeb" stop-opacity="0.79054"/>
<stop offset="0.394628" stop-color="#e5e5e5" stop-opacity="0.581081"/>
<stop offset="1" stop-color="#ffffff" stop-opacity="0"/>
</radialGradient>
<radialGradient cx="35.9311" cy="76.3553" gradientTransform="matrix(1.23176 0 0 0.583673 6.05081 -31.2798)" gradientUnits="userSpaceOnUse" id="RadialGradient_10" r="18.6865">
<stop offset="0" stop-color="#ebebeb" stop-opacity="0.79054"/>
<stop offset="0.394628" stop-color="#e5e5e5" stop-opacity="0.581081"/>
<stop offset="1" stop-color="#ffffff" stop-opacity="0"/>
</radialGradient>
<radialGradient cx="35.9311" cy="76.3553" gradientTransform="matrix(0.406033 0.542431 -0.591372 0.270552 93.0521 -21.4252)" gradientUnits="userSpaceOnUse" id="RadialGradient_11" r="18.6865">
<stop offset="0" stop-color="#ebebeb" stop-opacity="0.79054"/>
<stop offset="0.394628" stop-color="#e5e5e5" stop-opacity="0.581081"/>
<stop offset="1" stop-color="#ffffff" stop-opacity="0"/>
</radialGradient>
<radialGradient cx="35.9311" cy="76.3553" gradientTransform="matrix(1 0 0 1 43.976 -29.4361)" gradientUnits="userSpaceOnUse" id="RadialGradient_12" r="18.6865">
<stop offset="0" stop-color="#ebebeb" stop-opacity="0.79054"/>
<stop offset="0.394628" stop-color="#e5e5e5" stop-opacity="0.581081"/>
<stop offset="1" stop-color="#ffffff" stop-opacity="0"/>
</radialGradient>
<radialGradient cx="35.9311" cy="76.3553" gradientTransform="matrix(1.05117 -0.153092 0.132394 0.486666 29.9458 27.9312)" gradientUnits="userSpaceOnUse" id="RadialGradient_13" r="18.6865">
<stop offset="0" stop-color="#ebebeb" stop-opacity="0.79054"/>
<stop offset="0.394628" stop-color="#e5e5e5" stop-opacity="0.581081"/>
<stop offset="1" stop-color="#ffffff" stop-opacity="0"/>
</radialGradient>
<radialGradient cx="-15.2807" cy="49.9705" gradientTransform="matrix(1 0 0 1 0 0)" gradientUnits="userSpaceOnUse" id="RadialGradient_14" r="145.695">
<stop offset="0" stop-color="#ffffff" stop-opacity="0.188337"/>
<stop offset="0.27686" stop-color="#c5c0b9" stop-opacity="0"/>
<stop offset="0.578512" stop-color="#000000" stop-opacity="0.743241"/>
<stop offset="0.690083" stop-color="#000000"/>
</radialGradient>
</defs>
<clipPath id="ArtboardFrame">
<rect height="100" width="100" x="0" y="0"/>
</clipPath>
<g clip-path="url(#ArtboardFrame)" id="Layer-1" vectornator:layerName="Layer 1" visibility="hidden">
<path d="M0 50C0 22.3858 22.3858 0 50 0C77.6142 0 100 22.3858 100 50C100 77.6142 77.6142 100 50 100C22.3858 100 0 77.6142 0 50Z" fill="#009aff" fill-rule="evenodd" opacity="1" stroke="none"/>
<path d="M32.0355-4.42953C31.4582-6.16152 28.6128 0.727193 28.4104 1.26715C27.4195 3.90943 27.5943 5.88076 27.3746 8.51746C27.283 9.61639 26.4874 10.4554 26.3388 11.4953C26.1266 12.981 27.1868 14.9069 26.7272 16.2856C26.2962 17.5789 23.5421 18.2537 22.4547 18.875C19.1895 20.7409 11.4844 23.536 7.69518 23.536C6.44346 23.536 2.79109 24.2069 1.99851 23.0181C0.331091 20.5169 2.37878 15.0865 3.42268 12.79C4.98126 9.36108 8.46467 7.10062 11.0614 4.50389C15.8373-0.272019 17.7745-4.81051 24.5263-7.40733" fill="url(#LinearGradient)" fill-rule="evenodd" opacity="1" stroke="none"/>
<path d="M-6.15809 40.367C-6.28756 40.1944-6.33071 39.8492-6.5465 39.8492C-7.07329 39.8492-5.9614 40.7263-5.64021 41.1439C-5.41385 41.4381-5.22477 41.7602-4.99286 42.0501C-4.00164 43.2892-2.89283 44.21-1.75611 45.2869C1.4725 48.3456 4.20978 52.1991 6.40049 56.0329C7.1481 57.3412 8.30756 59.4052 9.50776 60.3054C10.2662 60.8742 12.4159 60.5776 12.874 61.3411C14.1159 63.4109 13.7444 67.1643 14.1687 69.4977C14.5894 71.8119 16.9357 73.3937 17.1465 75.7123C17.3266 77.6931 15.2427 79.1314 14.4276 80.7616C12.2639 85.089 11.9745 90.5952 8.08359 94.097C3.01826 98.6558-1.64859 90.5574-3.43922 86.9762C-5.18291 83.4888-4.86761 79.5934-5.51074 75.8418C-6.71525 68.8154-10.5483 61.722-8.87695 54.4792" fill="url(#LinearGradient_2)" fill-rule="evenodd" opacity="1" stroke="none"/>
<path d="M49.7729 24.3128C46.3743 24.2804 45.7593 24.3775 41.6163 26.2548C37.4732 28.1321 34.5602 28.294 31.7766 32.9873C28.993 37.6805 30.0935 38.425 31.2587 44.3806C32.4239 50.3362 32.4239 49.1386 36.6964 51.6309C40.9689 54.1232 42.5549 53.0227 46.1477 54.3498C49.7405 55.6768 48.5753 58.1044 49.7729 60.6938C50.9705 63.2832 51.0676 64.0924 51.5855 67.6852C52.1033 71.278 52.1295 73.0695 51.8444 75.0649C51.4169 78.0573 52.9974 80.0351 54.3043 83.4805C55.7285 87.2351 57.7933 86.5571 62.3314 85.4225C64.8836 84.7845 67.2241 72.5501 69.5818 71.6987C74.2427 70.0156 72.4096 61.4093 74.1132 57.9749C76.0582 54.0539 76.476 53.8966 78.5152 49.6889C80.5543 45.4811 84.4708 42.9564 83.694 40.367C82.9824 37.9951 75.78 41.285 73.9837 39.9786C73.1444 39.3682 71.1949 31.8964 70.6175 31.1747C69.0681 29.2379 66.8216 28.2511 64.9208 26.7727C62.0126 24.5108 59.7128 25.7459 56.3758 26.7727C54.8051 27.256 53.1715 24.3451 49.7729 24.3128Z" fill="url(#LinearGradient_3)" fill-rule="evenodd" opacity="1" stroke="none"/>
<path d="M73.3364 2.17343C73.3364 0.440165 69.1541 3.60679 68.6755 4.24495C66.8216 6.71671 68.8462 12.0063 64.9208 12.6605C62.9394 12.9907 64.7056 11.6952 64.671 10.4588C64.6363 9.22243 65.3292 7.52021 64.7822 7.71488C64.2353 7.90955 64.1611 8.55846 63.6327 10.088C63.1043 11.6176 63.4213 10.9479 63.4844 11.2004C63.5976 11.6532 62.613 8.15058 59.9988 7.64072C57.3847 7.13087 58.3062 7.38114 55.92 8.60481C51.5816 10.8296 52.4198 13.5736 51.0625 13.5736C50.4667 13.5736 48.5532 14.0432 47.5028 13.3882C47.0169 13.0852 46.8816 11.7669 46.1308 10.4588C45.4585 9.28764 45.1389 9.22591 44.833 9.42058C44.5271 9.61525 44.1217 10.0138 44.9071 11.2375C45.6713 12.4281 46.7107 13.0908 46.6499 13.6107C46.584 14.174 45.0398 14.9241 44.9071 15.0568C44.2075 15.7565 45.0227 19.2333 43.9467 20.0403C42.8112 20.8919 38.9611 20.8976 37.7506 21.8054C37.3216 22.1272 36.9904 25.9015 37.0848 25.9959C39.6911 28.6022 43.4181 22.2258 44.7236 21.8528C46.8575 21.2432 50.6935 19.5464 52.8802 19.9108C54.0119 20.0994 53.7193 22.5977 54.3043 22.5002C57.3633 21.9904 56.0879 17.1343 60.9073 18.0982C63.8598 18.6887 63.7112 22.6934 65.6977 24.1833C66.8735 25.0652 69.2267 23.3103 70.2291 24.3128C71.869 25.9527 68.4244 28.0753 69.1933 28.8442C71.1725 30.8234 73.8901 30.1747 75.9258 32.2104C77.814 34.0986 82.117 39.3989 84.7297 39.0723C88.1903 38.6398 89.2543 40.4085 89.9085 36.4829C90.3092 34.079 86.511 28.8398 86.5423 28.7147C86.5978 28.493 88.858 25.1056 91.5916 25.7369C94.3404 26.3718 97.5653 31.024 98.583 30.2684C101.305 28.2476 96.3971 21.1332 97.0294 20.8171" fill="url(#LinearGradient_4)" fill-rule="evenodd" opacity="1" stroke="none"/>
<path d="M76.2645 72.815C75.2317 73.3591 74.2732 77.1958 71.1536 78.9216C70.8201 79.106 70.2011 81.576 70.8969 82.2718C72.149 83.5239 73.4694 80.4522 74.0077 79.7181C74.7358 78.7252 81.5335 70.0395 76.2645 72.815Z" fill="#c2853c" fill-rule="evenodd" opacity="1" stroke="none"/>
<path d="M31.8947 101.713C31.2485 99.7746 39.0627 96.9592 40.7045 96.7247C45.2285 96.0784 49.8915 93.3112 54.7154 93.0097C58.0427 92.8017 61.4107 94.0132 64.6928 94.1773C66.3409 94.2597 72.7033 95.9061 72.9719 97.7861C73.5106 101.557 66.8097 102.669 64.3743 102.669C58.7897 102.669 53.6957 104.69 48.2407 105.11C45.2872 105.337 40.9288 103.294 38.4755 105.747" fill="#f1f1f1" fill-rule="evenodd" opacity="1" stroke="none"/>
</g>
<g id="Layer-1-copy-copy" vectornator:layerName="Layer 1 copy copy">
<path d="M49.5 0C41.4737 0 33.9909 2.1063 27.2869 5.53125C19.2153 9.65481 12.4232 15.8302 7.64156 23.5312C3.29519 30.5313 0.568743 38.6456 0.12375 47.4062C0.0799429 48.2687 0 49.1265 0 50C0 63.0724 5.07927 74.8725 13.2103 83.7812C19.4314 90.5974 27.4801 95.5644 36.5991 98.0625C40.7384 99.1965 45.0053 100 49.5 100C56.6115 100 63.3427 98.4151 69.4547 95.6875C86.8384 87.9296 99 70.4309 99 50C99 41.8125 96.8541 34.196 93.4003 27.375C88.0738 16.8553 79.3599 8.40916 68.4956 3.84375C62.6453 1.3853 56.2316 0 49.5 0Z" fill="#009aff" fill-rule="evenodd" opacity="1" stroke="none"/>
</g>
<g id="Layer-1-copy" vectornator:layerName="Layer 1 copy">
<path d="M27.2869 5.53125C27.2212 6.48924 27.1913 7.44006 27.1013 8.53125C27.0106 9.63018 26.2274 10.4601 26.0803 11.5C25.8702 12.9857 26.9065 14.9025 26.4516 16.2812C26.0248 17.5745 23.3205 18.2537 22.2441 18.875C19.0187 20.7367 11.4017 23.5189 7.64156 23.5312C3.29519 30.5313 0.568743 38.6456 0.12375 47.4062C2.4889 50.0601 4.62691 52.9992 6.34219 56.0312C7.08233 57.3396 8.2168 59.4123 9.405 60.3125C10.1558 60.8813 12.2927 60.5802 12.7462 61.3438C13.9757 63.4135 13.5947 67.1665 14.0147 69.5C14.4312 71.8142 16.776 73.4001 16.9847 75.7188C17.163 77.6996 15.1001 79.1198 14.2931 80.75C13.8295 81.6867 13.5551 82.7663 13.2103 83.7812C19.4314 90.5974 27.4801 95.5644 36.5991 98.0625C38.0701 97.4824 39.7339 96.8021 40.3116 96.7188C44.7903 96.0725 49.3959 93.3015 54.1716 93C57.4657 92.792 60.7914 94.0234 64.0406 94.1875C64.9924 94.2356 67.4506 94.8391 69.4547 95.6875C86.8384 87.9296 99 70.4309 99 50C99 41.8125 96.8541 34.196 93.4003 27.375C92.4939 26.6279 91.5771 25.9598 90.6778 25.75C87.9716 25.1186 85.7208 28.497 85.6659 28.7188C85.635 28.8438 89.4038 34.0649 89.0072 36.4688C88.3594 40.3943 87.2975 38.6299 83.8716 39.0625C81.2849 39.3891 77.0474 34.1069 75.1781 32.2188C73.1628 30.1831 70.455 30.8229 68.4956 28.8438C67.7344 28.0748 71.1401 25.9524 69.5166 24.3125C68.5242 23.3101 66.1947 25.0694 65.0306 24.1875C63.064 22.6976 63.2202 18.6843 60.2972 18.0938C55.526 17.1299 56.7978 21.9902 53.7694 22.5C53.1902 22.5975 53.4667 20.0949 52.3462 19.9062C50.1815 19.5418 46.3841 21.2341 44.2716 21.8438C42.9792 22.2167 39.3031 28.6063 36.7228 26C36.6294 25.9056 36.9478 22.1343 37.3725 21.8125C38.5709 20.9046 42.3739 20.8829 43.4981 20.0312C44.5633 19.2243 43.7645 15.7622 44.4572 15.0625C44.5886 14.9298 46.1245 14.1883 46.1897 13.625C46.2499 13.1051 45.2137 12.4406 44.4572 11.25C43.6796 10.0263 44.0925 9.60092 44.3953 9.40625C44.6982 9.21158 44.9982 9.29756 45.6638 10.4688C46.4071 11.7768 46.544 13.072 47.025 13.375C48.065 14.0301 49.962 13.5625 50.5519 13.5625C51.8957 13.5625 51.0522 10.8186 55.3472 8.59375C57.7095 7.37008 56.812 7.14639 59.4 7.65625C61.988 8.1661 62.977 11.6402 62.865 11.1875C62.8025 10.935 62.4656 11.6233 62.9887 10.0938C63.5118 8.56418 63.592 7.91342 64.1334 7.71875C64.6749 7.52408 63.9754 9.23235 64.0097 10.4688C64.044 11.7051 62.2956 12.9865 64.2572 12.6562C68.1433 12.002 66.1653 6.72176 68.0006 4.25C68.0489 4.18502 68.3796 3.95331 68.4956 3.84375C62.6453 1.3853 56.2316 0 49.5 0C41.4737 0 33.9909 2.1063 27.2869 5.53125Z" fill="url(#LinearGradient_5)" fill-rule="evenodd" opacity="1" stroke="none"/>
<path d="M49.2834 24.3125C52.648 24.3449 54.2562 27.2646 55.8113 26.7812C59.1148 25.7545 61.3781 24.5193 64.2572 26.7812C66.1389 28.2596 68.3848 29.2507 69.9188 31.1875C70.4904 31.9093 72.3981 39.3583 73.2291 39.9688C75.0074 41.2751 82.1462 38.0031 82.8506 40.375C83.6197 42.9644 79.7338 45.4797 77.715 49.6875C75.6962 53.8953 75.3093 54.0477 73.3838 57.9688C71.6972 61.4031 73.5121 70.0044 68.8978 71.6875C66.5637 72.5389 64.2469 84.7995 61.7203 85.4375C57.2275 86.5721 55.1793 87.2234 53.7694 83.4688C52.4756 80.0234 50.9021 78.0549 51.3253 75.0625C51.6075 73.0671 51.5905 71.2803 51.0778 67.6875C50.5651 64.0947 50.4691 63.2769 49.2834 60.6875C48.0978 58.0981 49.2515 55.6708 45.6947 54.3438C42.1378 53.0167 40.5504 54.1173 36.3206 51.625C32.0909 49.1327 32.0911 50.3306 30.9375 44.375C29.7839 38.4194 28.7077 37.6933 31.4634 33C34.2192 28.3067 37.1071 28.1273 41.2088 26.25C45.3103 24.3727 45.9188 24.2801 49.2834 24.3125Z" fill="url(#LinearGradient_6)" fill-rule="evenodd" opacity="1" stroke="none"/>
<path d="M76.9416 72.2812C79.1381 72.098 73.8907 78.85 73.26 79.7188C72.727 80.4529 71.4368 83.5334 70.1972 82.2812C69.5084 81.5855 70.1146 79.0907 70.4447 78.9062C73.5331 77.1805 74.465 73.3565 75.4875 72.8125C76.1395 72.4656 76.6278 72.3074 76.9416 72.2812Z" fill="#c2853c" fill-rule="evenodd" opacity="1" stroke="none"/>
<path d="M68.4956 3.84375C68.3796 3.95331 68.0489 4.18502 68.0006 4.25C66.1653 6.72176 68.1433 12.002 64.2572 12.6562C62.2956 12.9865 64.044 11.7051 64.0097 10.4687C63.9754 9.23235 64.6749 7.52408 64.1334 7.71875C63.592 7.91342 63.5118 8.56418 62.9887 10.0937C62.7661 10.7448 62.7398 10.8778 62.7412 10.9687C62.7466 10.9791 62.8739 11.2236 62.865 11.1875C62.8291 11.0425 62.7432 11.0915 62.7412 10.9687C62.68 10.8498 61.7818 8.12548 59.4 7.65625C56.812 7.14639 57.7095 7.37008 55.3472 8.59375C51.0522 10.8186 51.8957 13.5625 50.5519 13.5625C49.962 13.5625 48.065 14.0301 47.025 13.375C46.544 13.072 46.4071 11.7768 45.6637 10.4687C44.9982 9.29756 44.6982 9.21158 44.3953 9.40625C44.0925 9.60092 43.6796 10.0263 44.4572 11.25C45.2137 12.4406 46.2499 13.1051 46.1897 13.625C46.1245 14.1883 44.5886 14.9298 44.4572 15.0625C43.7645 15.7622 44.5633 19.2243 43.4981 20.0312C42.3739 20.8829 38.5709 20.9046 37.3725 21.8125C36.9478 22.1343 36.6294 25.9056 36.7228 26C39.3031 28.6063 42.9792 22.2167 44.2716 21.8437C46.3841 21.2341 50.1815 19.5418 52.3463 19.9062C53.4667 20.0949 53.1902 22.5975 53.7694 22.5C56.7978 21.9902 55.526 17.1299 60.2972 18.0937C63.2202 18.6843 63.064 22.6976 65.0306 24.1875C66.1947 25.0694 68.5242 23.3101 69.5166 24.3125C71.1401 25.9524 67.7344 28.0748 68.4956 28.8437C70.455 30.8229 73.1628 30.1831 75.1781 32.2187C77.0474 34.1069 81.2849 39.3891 83.8716 39.0625C87.2975 38.6299 88.3594 40.3943 89.0072 36.4687C89.4038 34.0649 85.635 28.8438 85.6659 28.7187C85.7208 28.497 87.9716 25.1186 90.6778 25.75C91.5772 25.9598 92.4939 26.6279 93.4003 27.375C88.0738 16.8553 79.3599 8.40916 68.4956 3.84375Z" fill="url(#LinearGradient_7)" fill-rule="evenodd" opacity="1" stroke="none"/>
<path d="M27.2869 5.53125C19.2153 9.65481 12.4232 15.8302 7.64156 23.5312C11.4017 23.5189 19.0187 20.7367 22.2441 18.875C23.3205 18.2537 26.0248 17.5745 26.4516 16.2812C26.9065 14.9025 25.8702 12.9857 26.0803 11.5C26.2274 10.4601 27.0106 9.63018 27.1013 8.53125C27.1913 7.44006 27.2212 6.48924 27.2869 5.53125Z" fill="url(#LinearGradient_8)" fill-rule="evenodd" opacity="1" stroke="none"/>
<path d="M49.2834 24.3125C45.9188 24.2801 45.3103 24.3727 41.2088 26.25C37.1071 28.1273 34.2192 28.3067 31.4634 33C28.7077 37.6933 29.7839 38.4194 30.9375 44.375C32.0911 50.3306 32.0909 49.1327 36.3206 51.625C40.5504 54.1173 42.1378 53.0167 45.6947 54.3438C49.2515 55.6708 48.0978 58.0981 49.2834 60.6875C50.4691 63.2769 50.5651 64.0947 51.0778 67.6875C51.5905 71.2803 51.6075 73.0671 51.3253 75.0625C50.9021 78.0549 52.4756 80.0234 53.7694 83.4688C55.1793 87.2234 57.2275 86.5721 61.7203 85.4375C64.2469 84.7995 66.5637 72.5389 68.8978 71.6875C73.5121 70.0044 71.6972 61.4031 73.3838 57.9688C75.3093 54.0477 75.6962 53.8953 77.715 49.6875C79.7338 45.4797 83.6197 42.9644 82.8506 40.375C82.1462 38.0031 75.0074 41.2751 73.2291 39.9688C72.3981 39.3583 70.4904 31.9093 69.9188 31.1875C68.3848 29.2507 66.1389 28.2596 64.2572 26.7812C61.3781 24.5193 59.1148 25.7545 55.8113 26.7812C54.2562 27.2646 52.648 24.3449 49.2834 24.3125Z" fill="url(#LinearGradient_9)" fill-rule="evenodd" opacity="1" stroke="none"/>
<path d="M0.12375 47.4062C0.0799429 48.2687 0 49.1266 0 50C0 63.0724 5.07927 74.8725 13.2103 83.7812C13.5551 82.7664 13.8295 81.6867 14.2931 80.75C15.1001 79.1198 17.163 77.6996 16.9847 75.7188C16.776 73.4001 14.4312 71.8142 14.0147 69.5C13.5947 67.1666 13.9757 63.4135 12.7462 61.3438C12.2927 60.5802 10.1558 60.8813 9.405 60.3125C8.2168 59.4123 7.08233 57.3396 6.34219 56.0312C4.62691 52.9992 2.4889 50.0601 0.12375 47.4062Z" fill="url(#LinearGradient_10)" fill-rule="evenodd" opacity="1" stroke="none"/>
<path d="M76.9416 72.2812C76.6278 72.3074 76.1395 72.4656 75.4875 72.8125C74.465 73.3565 73.5331 77.1805 70.4447 78.9062C70.1146 79.0907 69.5084 81.5855 70.1972 82.2812C71.4368 83.5334 72.727 80.4529 73.26 79.7188C73.8907 78.85 79.1381 72.098 76.9416 72.2812Z" fill="#c2853c" fill-rule="evenodd" opacity="1" stroke="none"/>
<path d="M54.1716 93C49.3959 93.3015 44.7903 96.0725 40.3116 96.7188C39.7339 96.8021 38.0701 97.4824 36.5991 98.0625C40.7384 99.1965 45.0053 100 49.5 100C56.6115 100 63.3427 98.4151 69.4547 95.6875C67.4506 94.8391 64.9924 94.2356 64.0406 94.1875C60.7914 94.0234 57.4657 92.792 54.1716 93Z" fill="#f1f1f1" fill-rule="evenodd" opacity="1" stroke="none"/>
</g>
<g clip-path="url(#ArtboardFrame)" id="Layer-2" vectornator:layerName="Layer 2">
<path d="M108.407 159.3C108.331 159.148 108.254 158.995 108.178 158.843" fill="url(#RadialGradient)" fill-rule="evenodd" opacity="1" stroke="none"/>
<path d="M34.7083 69.734C34.7083 60.7657 41.9441 53.4954 50.8698 53.4954C59.7955 53.4954 67.0313 60.7657 67.0313 69.734C67.0313 78.7023 59.7955 85.9726 50.8698 85.9726C41.9441 85.9726 34.7083 78.7023 34.7083 69.734Z" fill="url(#RadialGradient_2)" fill-rule="evenodd" opacity="1" stroke="none"/>
<path d="M47.5452 71.4694C47.5452 63.63 55.6893 57.275 65.7356 57.275C75.7818 57.275 83.9259 63.63 83.9259 71.4694C83.9259 79.3088 75.7818 85.6639 65.7356 85.6639C55.6893 85.6639 47.5452 79.3088 47.5452 71.4694Z" fill="url(#RadialGradient_3)" fill-rule="evenodd" opacity="1" stroke="none"/>
<path d="M23.2892 57.2918C23.2892 49.2938 30.1757 42.8102 38.6705 42.8102C47.1653 42.8102 54.0517 49.2938 54.0517 57.2918C54.0517 65.2898 47.1653 71.7734 38.6705 71.7734C30.1757 71.7734 23.2892 65.2898 23.2892 57.2918Z" fill="url(#RadialGradient_4)" fill-rule="evenodd" opacity="1" stroke="none"/>
<path d="M43.0509 68.756C40.6445 63.4089 45.1428 56.172 53.098 52.5919C61.0533 49.0118 69.453 50.4442 71.8594 55.7913C74.2657 61.1385 69.7675 68.3754 61.8123 71.9555C53.857 75.5356 45.4573 74.1032 43.0509 68.756Z" fill="url(#RadialGradient_5)" fill-rule="evenodd" opacity="1" stroke="none"/>
<path d="M29.4268 45.8539C30.8271 41.2606 41.8515 39.9649 54.0505 42.9597C66.2495 45.9546 75.0036 52.106 73.6033 56.6993C72.203 61.2926 61.1786 62.5884 48.9796 59.5935C36.7806 56.5987 28.0265 50.4472 29.4268 45.8539Z" fill="url(#RadialGradient_6)" fill-rule="evenodd" opacity="1" stroke="none"/>
<path d="M9.05587 24.9666C9.05587 17.3653 18.0599 11.2033 29.1668 11.2033C40.2738 11.2033 49.2778 17.3653 49.2778 24.9666C49.2778 32.5679 40.2738 38.73 29.1668 38.73C18.0599 38.73 9.05587 32.5679 9.05587 24.9666Z" fill="url(#RadialGradient_7)" fill-rule="evenodd" opacity="1" stroke="none"/>
<path d="M26.1583 28.2121C26.1583 22.9564 32.1971 18.6958 39.6464 18.6958C47.0956 18.6958 53.1344 22.9564 53.1344 28.2121C53.1344 33.4679 47.0956 37.7285 39.6464 37.7285C32.1971 37.7285 26.1583 33.4679 26.1583 28.2121Z" fill="url(#RadialGradient_8)" fill-rule="evenodd" opacity="1" stroke="none"/>
<path d="M62.6434 54.4358C62.6434 49.1801 68.6822 44.9194 76.1315 44.9194C83.5808 44.9194 89.6196 49.1801 89.6196 54.4358C89.6196 59.6916 83.5808 63.9522 76.1315 63.9522C68.6822 63.9522 62.6434 59.6916 62.6434 54.4358Z" fill="url(#RadialGradient_9)" fill-rule="evenodd" opacity="1" stroke="none"/>
<path d="M25.8325 13.0016C25.8325 6.70099 36.6115 1.59334 49.908 1.59334C63.2045 1.59334 73.9835 6.70099 73.9835 13.0016C73.9835 19.3022 63.2045 24.4099 49.908 24.4099C36.6115 24.4099 25.8325 19.3022 25.8325 13.0016Z" fill="url(#RadialGradient_10)" fill-rule="evenodd" opacity="1" stroke="none"/>
<path d="M54.7074 7.81196C61.0911 4.89142 69.8193 7.2706 74.2023 13.126C78.5853 18.9814 76.9635 26.0957 70.5798 29.0162C64.196 31.9368 55.4679 29.5576 51.0849 23.7022C46.7019 17.8468 48.3237 10.7325 54.7074 7.81196Z" fill="url(#RadialGradient_11)" fill-rule="evenodd" opacity="1" stroke="none"/>
<path d="M60.0357 46.4305C60.0357 35.6358 68.7866 26.8849 79.5813 26.8849C90.3761 26.8849 99.1269 35.6358 99.1269 46.4305C99.1269 57.2253 90.3761 65.9762 79.5813 65.9762C68.7866 65.9762 60.0357 57.2253 60.0357 46.4305Z" fill="url(#RadialGradient_12)" fill-rule="evenodd" opacity="1" stroke="none"/>
<path d="M56.8716 62.3943C55.4424 57.1409 63.4825 51.5425 74.8297 49.8899C86.1768 48.2373 96.534 51.1564 97.9632 56.4098C99.3923 61.6632 91.3522 67.2617 80.0051 68.9142C68.658 70.5668 58.3008 67.6478 56.8716 62.3943Z" fill="url(#RadialGradient_13)" fill-rule="evenodd" opacity="1" stroke="none"/>
</g>
<g id="Layer-1-copy-copy-copy" vectornator:layerName="Layer 1 copy copy copy">
<path d="M50 0C41.8927 0 34.3343 2.1063 27.5625 5.53125C19.4094 9.65481 12.5487 15.8302 7.71875 23.5312C3.32848 30.5313 0.574488 38.6456 0.125 47.4062C0.0807504 48.2687 0 49.1265 0 50C0 63.0724 5.13057 74.8725 13.3438 83.7812C19.6277 90.5974 27.7577 95.5644 36.9688 98.0625C41.1499 99.1965 45.4599 100 50 100C57.1833 100 63.9825 98.4151 70.1562 95.6875C87.7156 87.9296 100 70.4309 100 50C100 41.8125 97.8324 34.196 94.3438 27.375C88.9634 16.8553 80.1615 8.40916 69.1875 3.84375C63.278 1.3853 56.7996 0 50 0Z" fill="url(#RadialGradient_14)" fill-rule="evenodd" opacity="1" stroke="none"/>
</g>
</svg>
