<?xml version="1.0" encoding="UTF-8" standalone="no"?>
<!DOCTYPE svg PUBLIC "-//W3C//DTD SVG 1.1//EN" "http://www.w3.org/Graphics/SVG/1.1/DTD/svg11.dtd">
<!-- © 2022 Rik Rosseel -->
<!-- Created with Vectornator (http://vectornator.io/) -->
<svg height="100%" stroke-miterlimit="10" style="fill-rule:nonzero;clip-rule:evenodd;stroke-linecap:round;stroke-linejoin:round;" version="1.1" viewBox="0 0 100 100" width="100%" xml:space="preserve" xmlns="http://www.w3.org/2000/svg" xmlns:vectornator="http://vectornator.io" xmlns:xlink="http://www.w3.org/1999/xlink">
<metadata>
<vectornator:setting key="IsTimeLapseWatermarkDisabled" value="false"/>
<vectornator:setting key="UndoHistoryDisabled" value="true"/>
<vectornator:setting key="VNDimensionsVisible" value="true"/>
<vectornator:setting key="VNSnapToGuides" value="true"/>
<vectornator:setting key="WDCMYKEnabledKey" value="false"/>
<vectornator:setting key="WDDisplayWhiteBackground" value="false"/>
<vectornator:setting key="WDDynamicGuides" value="false"/>
<vectornator:setting key="WDGuidesVisible" value="true"/>
<vectornator:setting key="WDIsolateActiveLayer" value="false"/>
<vectornator:setting key="WDOutlineMode" value="false"/>
<vectornator:setting key="WDRulersVisible" value="true"/>
<vectornator:setting key="WDSnapToEdges" value="false"/>
<vectornator:setting key="WDSnapToGrid" value="false"/>
<vectornator:setting key="WDSnapToPoints" value="false"/>
<vectornator:setting key="WDUnits" value="Points"/>
</metadata>
<defs>
<radialGradient cx="49.5" cy="50" gradientTransform="matrix(1 0 0 1 0 0)" gradientUnits="userSpaceOnUse" id="RadialGradient" r="49.5">
<stop offset="0.278926" stop-color="#275586"/>
<stop offset="0.89876" stop-color="#3574b8"/>
</radialGradient>
<radialGradient cx="92.2289" cy="48.3811" gradientTransform="matrix(0.99 0 0 1 0 0)" gradientUnits="userSpaceOnUse" id="RadialGradient_2" r="127.828">
<stop offset="0.278926" stop-color="#275586"/>
<stop offset="0.89876" stop-color="#3574b8"/>
</radialGradient>
<linearGradient gradientTransform="matrix(0.99 0 0 1 0 0)" gradientUnits="userSpaceOnUse" id="LinearGradient" x1="30.0276" x2="83.7878" y1="55.3146" y2="55.3146">
<stop offset="0.105372" stop-color="#c2853c"/>
<stop offset="0.487603" stop-color="#098628"/>
<stop offset="0.871901" stop-color="#c2853c"/>
</linearGradient>
<linearGradient gradientTransform="matrix(0.99 0 0 1 0 0)" gradientUnits="userSpaceOnUse" id="LinearGradient_2" x1="58.0677" x2="83.6916" y1="31.4494" y2="-14.4769">
<stop offset="0.105372" stop-color="#9d9492"/>
<stop offset="0.487603" stop-color="#4a898a"/>
<stop offset="0.871901" stop-color="#9d9492"/>
</linearGradient>
<linearGradient gradientTransform="matrix(0.99 0 0 1 0 0)" gradientUnits="userSpaceOnUse" id="LinearGradient_3" x1="7.81757" x2="9.6829" y1="-11.6691" y2="29.8591">
<stop offset="0.105372" stop-color="#9d9492"/>
<stop offset="0.487603" stop-color="#4a898a"/>
<stop offset="0.871901" stop-color="#9d9492"/>
</linearGradient>
<linearGradient gradientTransform="matrix(0.99 0 0 1 0 0)" gradientUnits="userSpaceOnUse" id="LinearGradient_4" x1="49.4946" x2="59.3923" y1="23.9632" y2="77.203">
<stop offset="0.105372" stop-color="#9d9492"/>
<stop offset="0.487603" stop-color="#4a898a"/>
<stop offset="0.871901" stop-color="#9d9492"/>
</linearGradient>
<linearGradient gradientTransform="matrix(0.99 0 0 1 0 0)" gradientUnits="userSpaceOnUse" id="LinearGradient_5" x1="2.81063" x2="12.1373" y1="40.2657" y2="93.8694">
<stop offset="0.105372" stop-color="#9d9492"/>
<stop offset="0.487603" stop-color="#4a898a"/>
<stop offset="0.871901" stop-color="#9d9492"/>
</linearGradient>
<radialGradient cx="108.292" cy="159.072" gradientTransform="matrix(1 0 0 1 0 0)" gradientUnits="userSpaceOnUse" id="RadialGradient_3" r="0.11436">
<stop offset="0" stop-color="#ebebeb"/>
<stop offset="0.394628" stop-color="#e5e5e5" stop-opacity="0.529279"/>
<stop offset="1" stop-color="#ffffff" stop-opacity="0"/>
</radialGradient>
<radialGradient cx="35.3355" cy="75.5433" gradientTransform="matrix(0.826859 0 0 0.830805 21.4292 6.70357)" gradientUnits="userSpaceOnUse" id="RadialGradient_4" r="19.0805">
<stop offset="0" stop-color="#ebebeb" stop-opacity="0.79054"/>
<stop offset="0.394628" stop-color="#e5e5e5" stop-opacity="0.581081"/>
<stop offset="1" stop-color="#ffffff" stop-opacity="0"/>
</radialGradient>
<radialGradient cx="35.9311" cy="76.3553" gradientTransform="matrix(0.930663 0 0 0.726224 32.599 16.3733)" gradientUnits="userSpaceOnUse" id="RadialGradient_5" r="18.6865">
<stop offset="0" stop-color="#ebebeb" stop-opacity="0.79054"/>
<stop offset="0.394628" stop-color="#e5e5e5" stop-opacity="0.581081"/>
<stop offset="1" stop-color="#ffffff" stop-opacity="0"/>
</radialGradient>
<radialGradient cx="35.9311" cy="76.3553" gradientTransform="matrix(0.78694 0 0 0.740914 10.6512 1.08114)" gradientUnits="userSpaceOnUse" id="RadialGradient_6" r="18.6865">
<stop offset="0" stop-color="#ebebeb" stop-opacity="0.79054"/>
<stop offset="0.394628" stop-color="#e5e5e5" stop-opacity="0.581081"/>
<stop offset="1" stop-color="#ffffff" stop-opacity="0"/>
</radialGradient>
<radialGradient cx="35.9311" cy="76.3553" gradientTransform="matrix(0.736955 -0.331653 0.222921 0.495345 14.3034 36.5021)" gradientUnits="userSpaceOnUse" id="RadialGradient_7" r="18.6865">
<stop offset="0" stop-color="#ebebeb" stop-opacity="0.79054"/>
<stop offset="0.394628" stop-color="#e5e5e5" stop-opacity="0.581081"/>
<stop offset="1" stop-color="#ffffff" stop-opacity="0"/>
</radialGradient>
<radialGradient cx="35.9311" cy="76.3553" gradientTransform="matrix(1.13009 0.277439 -0.12972 0.425512 21.1193 9.11614)" gradientUnits="userSpaceOnUse" id="RadialGradient_8" r="18.6865">
<stop offset="0" stop-color="#ebebeb" stop-opacity="0.79054"/>
<stop offset="0.394628" stop-color="#e5e5e5" stop-opacity="0.581081"/>
<stop offset="1" stop-color="#ffffff" stop-opacity="0"/>
</radialGradient>
<radialGradient cx="35.9311" cy="76.3553" gradientTransform="matrix(1.02893 0 0 0.704167 -7.46838 -28.4561)" gradientUnits="userSpaceOnUse" id="RadialGradient_9" r="18.6865">
<stop offset="0" stop-color="#ebebeb" stop-opacity="0.79054"/>
<stop offset="0.394628" stop-color="#e5e5e5" stop-opacity="0.581081"/>
<stop offset="1" stop-color="#ffffff" stop-opacity="0"/>
</radialGradient>
<radialGradient cx="35.9311" cy="76.3553" gradientTransform="matrix(0.690083 0 0 0.486881 15.0757 -8.72589)" gradientUnits="userSpaceOnUse" id="RadialGradient_10" r="18.6865">
<stop offset="0" stop-color="#ebebeb" stop-opacity="0.79054"/>
<stop offset="0.394628" stop-color="#e5e5e5" stop-opacity="0.581081"/>
<stop offset="1" stop-color="#ffffff" stop-opacity="0"/>
</radialGradient>
<radialGradient cx="35.9311" cy="76.3553" gradientTransform="matrix(0.690083 0 0 0.486881 51.5609 17.4978)" gradientUnits="userSpaceOnUse" id="RadialGradient_11" r="18.6865">
<stop offset="0" stop-color="#ebebeb" stop-opacity="0.79054"/>
<stop offset="0.394628" stop-color="#e5e5e5" stop-opacity="0.581081"/>
<stop offset="1" stop-color="#ffffff" stop-opacity="0"/>
</radialGradient>
<radialGradient cx="35.9311" cy="76.3553" gradientTransform="matrix(1.23176 0 0 0.583673 6.05081 -31.2798)" gradientUnits="userSpaceOnUse" id="RadialGradient_12" r="18.6865">
<stop offset="0" stop-color="#ebebeb" stop-opacity="0.79054"/>
<stop offset="0.394628" stop-color="#e5e5e5" stop-opacity="0.581081"/>
<stop offset="1" stop-color="#ffffff" stop-opacity="0"/>
</radialGradient>
<radialGradient cx="35.9311" cy="76.3553" gradientTransform="matrix(0.406033 0.542431 -0.591372 0.270552 93.0521 -21.4252)" gradientUnits="userSpaceOnUse" id="RadialGradient_13" r="18.6865">
<stop offset="0" stop-color="#ebebeb" stop-opacity="0.79054"/>
<stop offset="0.394628" stop-color="#e5e5e5" stop-opacity="0.581081"/>
<stop offset="1" stop-color="#ffffff" stop-opacity="0"/>
</radialGradient>
<radialGradient cx="35.9311" cy="76.3553" gradientTransform="matrix(1 0 0 1 43.976 -29.4361)" gradientUnits="userSpaceOnUse" id="RadialGradient_14" r="18.6865">
<stop offset="0" stop-color="#ebebeb" stop-opacity="0.79054"/>
<stop offset="0.394628" stop-color="#e5e5e5" stop-opacity="0.581081"/>
<stop offset="1" stop-color="#ffffff" stop-opacity="0"/>
</radialGradient>
<radialGradient cx="35.9311" cy="76.3553" gradientTransform="matrix(1.05117 -0.153092 0.132394 0.486666 29.9458 27.9312)" gradientUnits="userSpaceOnUse" id="RadialGradient_15" r="18.6865">
<stop offset="0" stop-color="#ebebeb" stop-opacity="0.79054"/>
<stop offset="0.394628" stop-color="#e5e5e5" stop-opacity="0.581081"/>
<stop offset="1" stop-color="#ffffff" stop-opacity="0"/>
</radialGradient>
<radialGradient cx="-15.2807" cy="49.9705" gradientTransform="matrix(1 0 0 1 0 0)" gradientUnits="userSpaceOnUse" id="RadialGradient_16" r="145.695">
<stop offset="0" stop-color="#ffffff" stop-opacity="0.188337"/>
<stop offset="0.27686" stop-color="#c5c0b9" stop-opacity="0"/>
<stop offset="0.578512" stop-color="#000000" stop-opacity="0.743241"/>
<stop offset="0.690083" stop-color="#000000"/>
</radialGradient>
</defs>
<g id="Layer-1-copy-copy" vectornator:layerName="Layer 1 copy copy">
<path d="M49.5 0C41.4737 0 33.9909 2.1063 27.2869 5.53125C19.2153 9.65481 12.4232 15.8302 7.64156 23.5312C3.29519 30.5313 0.568743 38.6456 0.12375 47.4062C0.0799429 48.2687 0 49.1265 0 50C0 63.0724 5.07927 74.8725 13.2103 83.7812C19.4314 90.5974 27.4801 95.5644 36.5991 98.0625C40.7384 99.1965 45.0053 100 49.5 100C56.6115 100 63.3427 98.4151 69.4547 95.6875C86.8384 87.9296 99 70.4309 99 50C99 41.8125 96.8541 34.196 93.4003 27.375C88.0738 16.8553 79.3599 8.40916 68.4956 3.84375C62.6453 1.3853 56.2316 0 49.5 0Z" fill="url(#RadialGradient)" fill-rule="evenodd" opacity="1" stroke="none"/>
</g>
<g id="Layer-1-copy" vectornator:layerName="Layer 1 copy">
<path d="M27.2869 5.53125C27.2212 6.48924 27.1913 7.44006 27.1013 8.53125C27.0106 9.63018 26.2274 10.4601 26.0803 11.5C25.8702 12.9857 26.9065 14.9025 26.4516 16.2812C26.0248 17.5745 23.3205 18.2537 22.2441 18.875C19.0187 20.7367 11.4017 23.5189 7.64156 23.5312C3.29519 30.5313 0.568743 38.6456 0.12375 47.4062C2.4889 50.0601 4.62691 52.9992 6.34219 56.0312C7.08233 57.3396 8.2168 59.4123 9.405 60.3125C10.1558 60.8813 12.2927 60.5802 12.7462 61.3438C13.9757 63.4135 13.5947 67.1665 14.0147 69.5C14.4312 71.8142 16.776 73.4001 16.9847 75.7188C17.163 77.6996 15.1001 79.1198 14.2931 80.75C13.8295 81.6867 13.5551 82.7663 13.2103 83.7812C19.4314 90.5974 27.4801 95.5644 36.5991 98.0625C38.0701 97.4824 39.7339 96.8021 40.3116 96.7188C44.7903 96.0725 49.3959 93.3015 54.1716 93C57.4657 92.792 60.7914 94.0234 64.0406 94.1875C64.9924 94.2356 67.4506 94.8391 69.4547 95.6875C86.8384 87.9296 99 70.4309 99 50C99 41.8125 96.8541 34.196 93.4003 27.375C92.4939 26.6279 91.5771 25.9598 90.6778 25.75C87.9716 25.1186 85.7208 28.497 85.6659 28.7188C85.635 28.8438 89.4038 34.0649 89.0072 36.4688C88.3594 40.3943 87.2975 38.6299 83.8716 39.0625C81.2849 39.3891 77.0474 34.1069 75.1781 32.2188C73.1628 30.1831 70.455 30.8229 68.4956 28.8438C67.7344 28.0748 71.1401 25.9524 69.5166 24.3125C68.5242 23.3101 66.1947 25.0694 65.0306 24.1875C63.064 22.6976 63.2202 18.6843 60.2972 18.0938C55.526 17.1299 56.7978 21.9902 53.7694 22.5C53.1902 22.5975 53.4667 20.0949 52.3462 19.9062C50.1815 19.5418 46.3841 21.2341 44.2716 21.8438C42.9792 22.2167 39.3031 28.6063 36.7228 26C36.6294 25.9056 36.9478 22.1343 37.3725 21.8125C38.5709 20.9046 42.3739 20.8829 43.4981 20.0312C44.5633 19.2243 43.7645 15.7622 44.4572 15.0625C44.5886 14.9298 46.1245 14.1883 46.1897 13.625C46.2499 13.1051 45.2137 12.4406 44.4572 11.25C43.6796 10.0263 44.0925 9.60092 44.3953 9.40625C44.6982 9.21158 44.9982 9.29756 45.6638 10.4688C46.4071 11.7768 46.544 13.072 47.025 13.375C48.065 14.0301 49.962 13.5625 50.5519 13.5625C51.8957 13.5625 51.0522 10.8186 55.3472 8.59375C57.7095 7.37008 56.812 7.14639 59.4 7.65625C61.988 8.1661 62.977 11.6402 62.865 11.1875C62.8025 10.935 62.4656 11.6233 62.9887 10.0938C63.5118 8.56418 63.592 7.91342 64.1334 7.71875C64.6749 7.52408 63.9754 9.23235 64.0097 10.4688C64.044 11.7051 62.2956 12.9865 64.2572 12.6562C68.1433 12.002 66.1653 6.72176 68.0006 4.25C68.0489 4.18502 68.3796 3.95331 68.4956 3.84375C62.6453 1.3853 56.2316 0 49.5 0C41.4737 0 33.9909 2.1063 27.2869 5.53125Z" fill="url(#RadialGradient_2)" fill-rule="evenodd" opacity="1" stroke="none"/>
<path d="M49.2834 24.3125C52.648 24.3449 54.2562 27.2646 55.8113 26.7812C59.1148 25.7545 61.3781 24.5193 64.2572 26.7812C66.1389 28.2596 68.3848 29.2507 69.9188 31.1875C70.4904 31.9093 72.3981 39.3583 73.2291 39.9688C75.0074 41.2751 82.1462 38.0031 82.8506 40.375C83.6197 42.9644 79.7338 45.4797 77.715 49.6875C75.6962 53.8953 75.3093 54.0477 73.3838 57.9688C71.6972 61.4031 73.5121 70.0044 68.8978 71.6875C66.5637 72.5389 64.2469 84.7995 61.7203 85.4375C57.2275 86.5721 55.1793 87.2234 53.7694 83.4688C52.4756 80.0234 50.9021 78.0549 51.3253 75.0625C51.6075 73.0671 51.5905 71.2803 51.0778 67.6875C50.5651 64.0947 50.4691 63.2769 49.2834 60.6875C48.0978 58.0981 49.2515 55.6708 45.6947 54.3438C42.1378 53.0167 40.5504 54.1173 36.3206 51.625C32.0909 49.1327 32.0911 50.3306 30.9375 44.375C29.7839 38.4194 28.7077 37.6933 31.4634 33C34.2192 28.3067 37.1071 28.1273 41.2088 26.25C45.3103 24.3727 45.9188 24.2801 49.2834 24.3125Z" fill="url(#LinearGradient)" fill-rule="evenodd" opacity="1" stroke="none"/>
<path d="M76.9416 72.2812C79.1381 72.098 73.8907 78.85 73.26 79.7188C72.727 80.4529 71.4368 83.5334 70.1972 82.2812C69.5084 81.5855 70.1146 79.0907 70.4447 78.9062C73.5331 77.1805 74.465 73.3565 75.4875 72.8125C76.1395 72.4656 76.6278 72.3074 76.9416 72.2812Z" fill="#c2853c" fill-rule="evenodd" opacity="1" stroke="none"/>
<path d="M68.4956 3.84375C68.3796 3.95331 68.0489 4.18502 68.0006 4.25C66.1653 6.72176 68.1433 12.002 64.2572 12.6562C62.2956 12.9865 64.044 11.7051 64.0097 10.4687C63.9754 9.23235 64.6749 7.52408 64.1334 7.71875C63.592 7.91342 63.5118 8.56418 62.9887 10.0937C62.7661 10.7448 62.7398 10.8778 62.7412 10.9687C62.7466 10.9791 62.8739 11.2236 62.865 11.1875C62.8291 11.0425 62.7432 11.0915 62.7412 10.9687C62.68 10.8498 61.7818 8.12548 59.4 7.65625C56.812 7.14639 57.7095 7.37008 55.3472 8.59375C51.0522 10.8186 51.8957 13.5625 50.5519 13.5625C49.962 13.5625 48.065 14.0301 47.025 13.375C46.544 13.072 46.4071 11.7768 45.6637 10.4687C44.9982 9.29756 44.6982 9.21158 44.3953 9.40625C44.0925 9.60092 43.6796 10.0263 44.4572 11.25C45.2137 12.4406 46.2499 13.1051 46.1897 13.625C46.1245 14.1883 44.5886 14.9298 44.4572 15.0625C43.7645 15.7622 44.5633 19.2243 43.4981 20.0312C42.3739 20.8829 38.5709 20.9046 37.3725 21.8125C36.9478 22.1343 36.6294 25.9056 36.7228 26C39.3031 28.6063 42.9792 22.2167 44.2716 21.8437C46.3841 21.2341 50.1815 19.5418 52.3463 19.9062C53.4667 20.0949 53.1902 22.5975 53.7694 22.5C56.7978 21.9902 55.526 17.1299 60.2972 18.0937C63.2202 18.6843 63.064 22.6976 65.0306 24.1875C66.1947 25.0694 68.5242 23.3101 69.5166 24.3125C71.1401 25.9524 67.7344 28.0748 68.4956 28.8437C70.455 30.8229 73.1628 30.1831 75.1781 32.2187C77.0474 34.1069 81.2849 39.3891 83.8716 39.0625C87.2975 38.6299 88.3594 40.3943 89.0072 36.4687C89.4038 34.0649 85.635 28.8438 85.6659 28.7187C85.7208 28.497 87.9716 25.1186 90.6778 25.75C91.5772 25.9598 92.4939 26.6279 93.4003 27.375C88.0738 16.8553 79.3599 8.40916 68.4956 3.84375Z" fill="url(#LinearGradient_2)" fill-rule="evenodd" opacity="1" stroke="none"/>
<path d="M27.2869 5.53125C19.2153 9.65481 12.4232 15.8302 7.64156 23.5312C11.4017 23.5189 19.0187 20.7367 22.2441 18.875C23.3205 18.2537 26.0248 17.5745 26.4516 16.2812C26.9065 14.9025 25.8702 12.9857 26.0803 11.5C26.2274 10.4601 27.0106 9.63018 27.1013 8.53125C27.1913 7.44006 27.2212 6.48924 27.2869 5.53125Z" fill="url(#LinearGradient_3)" fill-rule="evenodd" opacity="1" stroke="none"/>
<path d="M49.2834 24.3125C45.9188 24.2801 45.3103 24.3727 41.2088 26.25C37.1071 28.1273 34.2192 28.3067 31.4634 33C28.7077 37.6933 29.7839 38.4194 30.9375 44.375C32.0911 50.3306 32.0909 49.1327 36.3206 51.625C40.5504 54.1173 42.1378 53.0167 45.6947 54.3438C49.2515 55.6708 48.0978 58.0981 49.2834 60.6875C50.4691 63.2769 50.5651 64.0947 51.0778 67.6875C51.5905 71.2803 51.6075 73.0671 51.3253 75.0625C50.9021 78.0549 52.4756 80.0234 53.7694 83.4688C55.1793 87.2234 57.2275 86.5721 61.7203 85.4375C64.2469 84.7995 66.5637 72.5389 68.8978 71.6875C73.5121 70.0044 71.6972 61.4031 73.3838 57.9688C75.3093 54.0477 75.6962 53.8953 77.715 49.6875C79.7338 45.4797 83.6197 42.9644 82.8506 40.375C82.1462 38.0031 75.0074 41.2751 73.2291 39.9688C72.3981 39.3583 70.4904 31.9093 69.9188 31.1875C68.3848 29.2507 66.1389 28.2596 64.2572 26.7812C61.3781 24.5193 59.1148 25.7545 55.8113 26.7812C54.2562 27.2646 52.648 24.3449 49.2834 24.3125Z" fill="url(#LinearGradient_4)" fill-rule="evenodd" opacity="1" stroke="none"/>
<path d="M0.12375 47.4062C0.0799429 48.2687 0 49.1266 0 50C0 63.0724 5.07927 74.8725 13.2103 83.7812C13.5551 82.7664 13.8295 81.6867 14.2931 80.75C15.1001 79.1198 17.163 77.6996 16.9847 75.7188C16.776 73.4001 14.4312 71.8142 14.0147 69.5C13.5947 67.1666 13.9757 63.4135 12.7462 61.3438C12.2927 60.5802 10.1558 60.8813 9.405 60.3125C8.2168 59.4123 7.08233 57.3396 6.34219 56.0312C4.62691 52.9992 2.4889 50.0601 0.12375 47.4062Z" fill="url(#LinearGradient_5)" fill-rule="evenodd" opacity="1" stroke="none"/>
<path d="M76.9416 72.2812C76.6278 72.3074 76.1395 72.4656 75.4875 72.8125C74.465 73.3565 73.5331 77.1805 70.4447 78.9062C70.1146 79.0907 69.5084 81.5855 70.1972 82.2812C71.4368 83.5334 72.727 80.4529 73.26 79.7188C73.8907 78.85 79.1381 72.098 76.9416 72.2812Z" fill="#c2853c" fill-rule="evenodd" opacity="1" stroke="none"/>
<path d="M54.1716 93C49.3959 93.3015 44.7903 96.0725 40.3116 96.7188C39.7339 96.8021 38.0701 97.4824 36.5991 98.0625C40.7384 99.1965 45.0053 100 49.5 100C56.6115 100 63.3427 98.4151 69.4547 95.6875C67.4506 94.8391 64.9924 94.2356 64.0406 94.1875C60.7914 94.0234 57.4657 92.792 54.1716 93Z" fill="#f1f1f1" fill-rule="evenodd" opacity="1" stroke="none"/>
</g>
<clipPath id="ArtboardFrame">
<rect height="100" width="100" x="0" y="0"/>
</clipPath>
<g clip-path="url(#ArtboardFrame)" id="Layer-2" vectornator:layerName="Layer 2">
<path d="M108.407 159.3C108.331 159.148 108.254 158.995 108.178 158.843" fill="url(#RadialGradient_3)" fill-rule="evenodd" opacity="1" stroke="none"/>
<path d="M34.7083 69.734C34.7083 60.7657 41.9441 53.4954 50.8698 53.4954C59.7955 53.4954 67.0313 60.7657 67.0313 69.734C67.0313 78.7023 59.7955 85.9726 50.8698 85.9726C41.9441 85.9726 34.7083 78.7023 34.7083 69.734Z" fill="url(#RadialGradient_4)" fill-rule="evenodd" opacity="1" stroke="none"/>
<path d="M47.5452 71.4694C47.5452 63.63 55.6893 57.275 65.7356 57.275C75.7818 57.275 83.9259 63.63 83.9259 71.4694C83.9259 79.3088 75.7818 85.6639 65.7356 85.6639C55.6893 85.6639 47.5452 79.3088 47.5452 71.4694Z" fill="url(#RadialGradient_5)" fill-rule="evenodd" opacity="1" stroke="none"/>
<path d="M23.2892 57.2918C23.2892 49.2938 30.1757 42.8102 38.6705 42.8102C47.1653 42.8102 54.0517 49.2938 54.0517 57.2918C54.0517 65.2898 47.1653 71.7734 38.6705 71.7734C30.1757 71.7734 23.2892 65.2898 23.2892 57.2918Z" fill="url(#RadialGradient_6)" fill-rule="evenodd" opacity="1" stroke="none"/>
<path d="M43.0509 68.756C40.6445 63.4089 45.1428 56.172 53.098 52.5919C61.0533 49.0118 69.453 50.4442 71.8594 55.7913C74.2657 61.1385 69.7675 68.3754 61.8123 71.9555C53.857 75.5356 45.4573 74.1032 43.0509 68.756Z" fill="url(#RadialGradient_7)" fill-rule="evenodd" opacity="1" stroke="none"/>
<path d="M29.4268 45.8539C30.8271 41.2606 41.8515 39.9649 54.0505 42.9597C66.2495 45.9546 75.0036 52.106 73.6033 56.6993C72.203 61.2926 61.1786 62.5884 48.9796 59.5935C36.7806 56.5987 28.0265 50.4472 29.4268 45.8539Z" fill="url(#RadialGradient_8)" fill-rule="evenodd" opacity="1" stroke="none"/>
<path d="M9.05587 24.9666C9.05587 17.3653 18.0599 11.2033 29.1668 11.2033C40.2738 11.2033 49.2778 17.3653 49.2778 24.9666C49.2778 32.5679 40.2738 38.73 29.1668 38.73C18.0599 38.73 9.05587 32.5679 9.05587 24.9666Z" fill="url(#RadialGradient_9)" fill-rule="evenodd" opacity="1" stroke="none"/>
<path d="M26.1583 28.2121C26.1583 22.9564 32.1971 18.6958 39.6464 18.6958C47.0956 18.6958 53.1344 22.9564 53.1344 28.2121C53.1344 33.4679 47.0956 37.7285 39.6464 37.7285C32.1971 37.7285 26.1583 33.4679 26.1583 28.2121Z" fill="url(#RadialGradient_10)" fill-rule="evenodd" opacity="1" stroke="none"/>
<path d="M62.6434 54.4358C62.6434 49.1801 68.6822 44.9194 76.1315 44.9194C83.5808 44.9194 89.6196 49.1801 89.6196 54.4358C89.6196 59.6916 83.5808 63.9522 76.1315 63.9522C68.6822 63.9522 62.6434 59.6916 62.6434 54.4358Z" fill="url(#RadialGradient_11)" fill-rule="evenodd" opacity="1" stroke="none"/>
<path d="M25.8325 13.0016C25.8325 6.70099 36.6115 1.59334 49.908 1.59334C63.2045 1.59334 73.9835 6.70099 73.9835 13.0016C73.9835 19.3022 63.2045 24.4099 49.908 24.4099C36.6115 24.4099 25.8325 19.3022 25.8325 13.0016Z" fill="url(#RadialGradient_12)" fill-rule="evenodd" opacity="1" stroke="none"/>
<path d="M54.7074 7.81196C61.0911 4.89142 69.8193 7.2706 74.2023 13.126C78.5853 18.9814 76.9635 26.0957 70.5798 29.0162C64.196 31.9368 55.4679 29.5576 51.0849 23.7022C46.7019 17.8468 48.3237 10.7325 54.7074 7.81196Z" fill="url(#RadialGradient_13)" fill-rule="evenodd" opacity="1" stroke="none"/>
<path d="M60.0357 46.4305C60.0357 35.6358 68.7866 26.8849 79.5813 26.8849C90.3761 26.8849 99.1269 35.6358 99.1269 46.4305C99.1269 57.2253 90.3761 65.9762 79.5813 65.9762C68.7866 65.9762 60.0357 57.2253 60.0357 46.4305Z" fill="url(#RadialGradient_14)" fill-rule="evenodd" opacity="1" stroke="none"/>
<path d="M56.8716 62.3943C55.4424 57.1409 63.4825 51.5425 74.8297 49.8899C86.1768 48.2373 96.534 51.1564 97.9632 56.4098C99.3923 61.6632 91.3522 67.2617 80.0051 68.9142C68.658 70.5668 58.3008 67.6478 56.8716 62.3943Z" fill="url(#RadialGradient_15)" fill-rule="evenodd" opacity="1" stroke="none"/>
</g>
<g id="Layer-1-copy-copy-copy" vectornator:layerName="Layer 1 copy copy copy">
<path d="M50 0C41.8927 0 34.3343 2.1063 27.5625 5.53125C19.4094 9.65481 12.5487 15.8302 7.71875 23.5312C3.32848 30.5313 0.574488 38.6456 0.125 47.4062C0.0807504 48.2687 0 49.1265 0 50C0 63.0724 5.13057 74.8725 13.3438 83.7812C19.6277 90.5974 27.7577 95.5644 36.9688 98.0625C41.1499 99.1965 45.4599 100 50 100C57.1833 100 63.9825 98.4151 70.1562 95.6875C87.7156 87.9296 100 70.4309 100 50C100 41.8125 97.8324 34.196 94.3438 27.375C88.9634 16.8553 80.1615 8.40916 69.1875 3.84375C63.278 1.3853 56.7996 0 50 0Z" fill="url(#RadialGradient_16)" fill-rule="evenodd" opacity="1" stroke="none"/>
</g>
</svg>
