<?xml version="1.0" encoding="UTF-8" standalone="no"?>
<!DOCTYPE svg PUBLIC "-//W3C//DTD SVG 1.1//EN" "http://www.w3.org/Graphics/SVG/1.1/DTD/svg11.dtd">

<!-- Created with Vectornator (http://vectornator.io/) -->
<svg height="100%" stroke-miterlimit="10" style="fill-rule:nonzero;clip-rule:evenodd;stroke-linecap:round;stroke-linejoin:round;" version="1.1" viewBox="0 0 100 100" width="100%" xml:space="preserve" xmlns="http://www.w3.org/2000/svg" xmlns:vectornator="http://vectornator.io" xmlns:xlink="http://www.w3.org/1999/xlink">
<metadata>
<vectornator:setting key="IsTimeLapseWatermarkDisabled" value="false"/>
<vectornator:setting key="UndoHistoryDisabled" value="true"/>
<vectornator:setting key="VNDimensionsVisible" value="true"/>
<vectornator:setting key="VNSnapToGuides" value="true"/>
<vectornator:setting key="WDCMYKEnabledKey" value="false"/>
<vectornator:setting key="WDDisplayWhiteBackground" value="false"/>
<vectornator:setting key="WDDynamicGuides" value="false"/>
<vectornator:setting key="WDGuidesVisible" value="true"/>
<vectornator:setting key="WDIsolateActiveLayer" value="false"/>
<vectornator:setting key="WDOutlineMode" value="false"/>
<vectornator:setting key="WDRulersVisible" value="true"/>
<vectornator:setting key="WDSnapToEdges" value="false"/>
<vectornator:setting key="WDSnapToGrid" value="false"/>
<vectornator:setting key="WDSnapToPoints" value="false"/>
<vectornator:setting key="WDUnits" value="Points"/>
</metadata>
<defs>
<radialGradient cx="-17.1267" cy="50.3695" gradientTransform="matrix(1 0 0 1 0 0)" gradientUnits="userSpaceOnUse" id="RadialGradient" r="149.634">
<stop offset="0" stop-color="#ffffff" stop-opacity="0.188337"/>
<stop offset="0.27686" stop-color="#c5c0b9" stop-opacity="0"/>
<stop offset="0.578512" stop-color="#000000" stop-opacity="0.743241"/>
<stop offset="0.690083" stop-color="#000000"/>
</radialGradient>
</defs>
<g id="Layer-1" vectornator:layerName="Layer 1" visibility="hidden">
<path d="M0 50C0 22.3858 22.3858 0 50 0C77.6142 0 100 22.3858 100 50C100 77.6142 77.6142 100 50 100C22.3858 100 0 77.6142 0 50Z" fill="#d6e3e7" fill-rule="evenodd" opacity="1" stroke="none"/>
</g>
<clipPath id="ArtboardFrame">
<rect height="100" width="100" x="0" y="0"/>
</clipPath>
<g clip-path="url(#ArtboardFrame)" id="Layer-1-copy" vectornator:layerName="Layer 1 copy" visibility="hidden">
<path d="M0 50C0 22.3858 22.3858 0 50 0C77.6142 0 100 22.3858 100 50C100 77.6142 77.6142 100 50 100C22.3858 100 0 77.6142 0 50Z" fill="#d6e3e7" fill-rule="evenodd" opacity="1" stroke="none"/>
<path d="M-19.5821 20.6722C-22.2084 15.4195-8.14099 18.0024-2.37212 16.9035C11.2059 14.3172 24.7545 12.5863 38.4545 10.8738C43.1611 10.2854 114.188-5.25098 114.957-2.94446C116.42 1.44421 102.206 3.82788 100.511 4.34152C60.5071 16.4639 15.854 15.8653-23.0995 30.8474" fill="#f4f4f4" fill-rule="evenodd" opacity="1" stroke="none"/>
<path d="M-15.6879 89.3864C-15.8262 89.3173 15.4755 70.6446 19.3602 68.6591C26.1425 65.1926 117.458 28.8962 119.354 40.2689C119.699 42.3371 75.9926 50.5188 72.1207 51.5747C41.3883 59.9563 3.07124 75.1162-17.8234 100.19" fill="#f4f4f4" fill-rule="evenodd" opacity="1" stroke="none"/>
<path d="M4.91386 104.838C8.93185 84.7477 105.393 49.1377 109.43 70.669C113.083 90.1505 13.5817 77.7026 13.5817 101.697" fill="#f4f4f4" fill-rule="evenodd" opacity="1" stroke="none"/>
<path d="M-15.0598 44.54C-17.8939 38.8718-2.67738 41.7921 3.40641 40.0177C16.8477 36.0973 30.8948 29.9215 44.9867 28.8375C45.3448 28.8099 48.9391 28.6631 48.7553 29.2143C45.2997 39.5813-14.363 46.5536-26.1143 53.0822" fill="#f4f4f4" fill-rule="evenodd" opacity="1" stroke="none"/>
<path d="M48.5041 142.649L48.5041 142.273L49.2578 142.021L49.6347 142.021L49.6347 142.021" fill="#d9b596" fill-rule="evenodd" opacity="1" stroke="none"/>
<path d="M-15.1854 67.1516C-15.7087 65.5817-13.1446 65.2844-12.1705 64.7649C22.0057 46.5376 74.355 16.0781 114.832 22.3052C115.808 22.4555 119.024 22.3852 119.228 23.8127C119.738 27.3775 78.9052 35.4516 75.01 36.5003C43.3239 45.0312 9.83868 52.215-16.9441 72.3021" fill="#d9b596" fill-rule="evenodd" opacity="1" stroke="none"/>
<path d="M-13.4267 37.0028C-22.4232 28.0063 10.9351 29.6299 23.2544 26.4507C33.2861 23.8619 106.056 6.67411 110.058 22.6821C111.098 26.8411 71.1685 24.9432 68.7289 24.9432C44.1758 24.9432 12.7351 28.5651-8.40189 42.1532" fill="#d9b596" fill-rule="evenodd" opacity="1" stroke="none"/>
<path d="M107.294 54.464C92.8585 44.8401 50.2938 63.5935 37.1983 69.2872C35.2873 70.118 4.2638 85.219 5.91882 86.874C7.00418 87.9594 17.2589 81.3924 18.6065 80.7186C43.4379 68.3029 82.3065 50.1127 110.435 59.4888" fill="#d9b596" fill-rule="evenodd" opacity="1" stroke="none"/>
<path d="M53.4033 139.635C53.3614 139.551 53.3195 139.467 53.2777 139.383" fill="#c5c0b9" fill-rule="evenodd" opacity="1" stroke="none"/>
<path d="M14.9635 107.978C14.9635 98.7654 60.182 87.7731 68.6033 87.1253C77.3733 86.4506 101.203 80.2775 94.9836 86.4972C84.1207 97.3601 45.7465 94.4076 29.4098 104.21" fill="#cccccc" fill-opacity="0.716216" fill-rule="evenodd" opacity="1" stroke="none"/>
<path d="M-19.4565 88.7583C-23.926 79.8193 71.9734 31.8091 76.8943 41.6507C77.0909 42.044 45.4272 53.6813 42.5999 54.9665C20.7661 64.891-9.30663 75.1994-25.8631 93.0294" fill="#cccccc" fill-opacity="0.716216" fill-rule="evenodd" opacity="1" stroke="none"/>
</g>
<g clip-path="url(#ArtboardFrame)" id="Layer-1-copy-copy" vectornator:layerName="Layer 1 copy copy">
<path d="M53.3883 139.375L53.5136 139.625C53.4716 139.541 53.4303 139.459 53.3883 139.375Z" fill="#cccccc" fill-opacity="0.716216" fill-rule="evenodd" opacity="1" stroke="none"/>
<path d="M49.349 142.031L48.5975 142.281L48.5975 142.656L49.7247 142.031L49.349 142.031Z" fill="#d9b596" fill-rule="evenodd" opacity="1" stroke="none"/>
<path d="M49.85 0C36.4664 0 24.3772 5.35955 15.4223 13.9688C12.9496 16.346 10.6676 18.9081 8.72375 21.75C7.21834 23.951 6.00452 26.3458 4.86037 28.7812C3.68678 31.2794 2.80884 33.9211 2.05631 36.625C1.71191 37.8624 1.21572 39.0383 0.965844 40.3125C0.613623 42.1085 0.372981 43.9218 0.218094 45.7812C0.102238 47.1721 0 48.5791 0 50C0 52.6979 0.275309 55.3241 0.685438 57.9062C0.854284 58.9693 1.10518 59.9917 1.33972 61.0312C2.00698 63.9888 2.85481 66.8921 4.01916 69.625C4.32647 70.3463 4.76994 70.9841 5.10963 71.6875C5.78715 73.0905 6.52103 74.4551 7.32172 75.7812C7.76498 76.5154 8.08874 77.3225 8.56797 78.0312C9.60328 79.5625 10.8948 80.8777 12.0886 82.2812C12.5062 82.7721 12.8678 83.307 13.3037 83.7812C15.2854 85.9373 17.4549 87.8765 19.7842 89.6562C20.6771 90.3384 21.4938 91.0971 22.4325 91.7188C25.4457 93.7144 28.7305 95.2849 32.1532 96.5938C35.518 97.8804 39.0154 98.9066 42.6841 99.4375C45.0291 99.7769 47.4113 100 49.85 100C57.8983 100 65.3967 97.8975 72.1267 94.5C77.2607 91.9083 81.907 88.5667 85.8355 84.4375C86.7067 83.5218 87.4651 82.5112 88.2657 81.5312C92.4194 76.4467 95.5199 70.5604 97.4256 64.0938C98.094 61.8256 98.7953 59.5775 99.1392 57.1875C99.3829 55.4931 99.5366 53.7762 99.6065 52.0312C99.6337 51.354 99.7 50.6839 99.7 50C99.7 48.5686 99.5995 47.1509 99.4819 45.75C99.3367 44.0191 99.113 42.3324 98.7965 40.6562C98.2055 37.527 97.2602 34.5186 96.117 31.625C95.2359 29.3947 94.1175 27.3095 92.9391 25.25C92.3792 24.2715 91.9415 23.2167 91.319 22.2812C89.8523 20.0774 88.1217 18.0944 86.334 16.1562C84.0972 13.7312 81.6543 11.5364 78.9811 9.59375C76.2339 7.59731 73.3243 5.84549 70.195 4.4375C63.9728 1.63789 57.1113 0 49.85 0Z" fill="#d6e3e7" fill-rule="evenodd" opacity="1" stroke="none"/>
</g>
<g clip-path="url(#ArtboardFrame)" id="Layer-1-copy-copy-copy" vectornator:layerName="Layer 1 copy copy copy">
<path d="M78.9811 9.59375C55.8339 14.399 31.8324 16.843 8.72375 21.75C7.21834 23.951 6.00452 26.3458 4.86037 28.7812C11.7573 28.1637 18.7674 27.5797 23.1802 26.4375C29.7377 24.7402 62.9525 16.9345 86.334 16.1562C84.0972 13.7312 81.6543 11.5364 78.9811 9.59375Z" fill="#d6e3e7" fill-rule="evenodd" opacity="1" stroke="none"/>
<path d="M96.117 31.625C86.5641 33.8918 76.523 36.028 74.775 36.5C50.0153 43.1861 24.2223 49.1393 1.33972 61.0312C2.00698 63.9888 2.85481 66.8921 4.01916 69.625C31.4469 53.6369 73.453 35.1918 76.6755 41.6562C76.8716 42.0495 45.2848 53.6836 42.466 54.9688C31.2063 60.1022 17.763 65.3609 5.10963 71.6875C5.78715 73.0905 6.52103 74.4551 7.32172 75.7812C12.7209 72.5937 17.9871 69.3379 19.3169 68.6562C24.1226 66.1926 71.1091 47.3874 98.7965 40.6562C98.2055 37.527 97.2602 34.5186 96.117 31.625Z" fill="#d6e3e7" fill-rule="evenodd" opacity="1" stroke="none"/>
<path d="M99.4819 45.75C87.4019 48.3921 73.9939 50.9921 71.9086 51.5625C51.6721 57.0982 28.2188 65.6789 8.56797 78.0312C9.60328 79.5625 10.8948 80.8777 12.0886 82.2812C20.7702 77.2224 35.7515 69.8588 37.0759 69.2812C48.3444 64.3672 81.4854 49.7619 99.6065 52.0312C99.6337 51.354 99.7 50.684 99.7 50C99.7 48.5686 99.5995 47.1509 99.4819 45.75Z" fill="#d6e3e7" fill-rule="evenodd" opacity="1" stroke="none"/>
<path d="M99.1392 57.1875C72.5961 54.5577 40.2003 69.855 18.538 80.7188C17.9899 80.9936 15.5838 82.4646 13.3037 83.7812C15.2854 85.9373 17.4549 87.8765 19.7842 89.6562C40.7427 76.1413 78.3219 62.9831 97.4256 64.0938C98.094 61.8256 98.7954 59.5775 99.1392 57.1875Z" fill="#d6e3e7" fill-rule="evenodd" opacity="1" stroke="none"/>
<path d="M88.2657 81.5312C67.6847 84.6754 37.4231 85.2204 22.4325 91.7188C25.4457 93.7144 28.7305 95.2849 32.1532 96.5938C45.849 91.5067 63.439 87.5068 68.388 87.125C72.4755 86.8096 79.7801 85.3283 85.8355 84.4375C86.7067 83.5218 87.4651 82.5112 88.2657 81.5312Z" fill="#d6e3e7" fill-rule="evenodd" opacity="1" stroke="none"/>
<path d="M72.1267 94.5C62.5004 96.094 51.8196 97.2965 42.6841 99.4375C45.0291 99.7769 47.4113 100 49.85 100C57.8983 100 65.3967 97.8975 72.1267 94.5Z" fill="#d6e3e7" fill-rule="evenodd" opacity="1" stroke="none"/>
<path d="M0.685438 57.9062C23.3105 45.7102 50.5274 31.6363 77.2987 25.125C74.4346 25.0365 69.0004 24.9375 68.5126 24.9375C47.794 24.9375 22.2214 27.5896 2.05631 36.625C1.71191 37.8624 1.21572 39.0383 0.965844 40.3125C1.76596 40.2145 2.76331 40.2163 3.39603 40.0312C16.797 36.1109 30.8154 29.9277 44.865 28.8438C45.222 28.8162 48.7869 28.6675 48.6038 29.2188C46.3787 35.914 21.2274 41.1229 0.218094 45.7812C0.102238 47.1721 0 48.5791 0 50C0 52.6979 0.275309 55.3241 0.685438 57.9062Z" fill="#d6e3e7" fill-rule="evenodd" opacity="1" stroke="none"/>
<path d="M15.4223 13.9688C23.0364 12.8459 30.676 11.8376 38.3533 10.875C40.24 10.6385 55.7812 7.37559 70.195 4.4375C63.9728 1.63789 57.1113 0 49.85 0C36.4664 0 24.3772 5.35955 15.4223 13.9688Z" fill="#d6e3e7" fill-rule="evenodd" opacity="1" stroke="none"/>
<path d="M53.3883 139.375L53.5136 139.625C53.4716 139.541 53.4303 139.459 53.3883 139.375Z" fill="#cccccc" fill-opacity="0.716216" fill-rule="evenodd" opacity="1" stroke="none"/>
<path d="M49.349 142.031L48.5975 142.281L48.5975 142.656L49.7247 142.031L49.349 142.031Z" fill="#d9b596" fill-rule="evenodd" opacity="1" stroke="none"/>
<path d="M70.195 4.4375C55.7812 7.37559 40.24 10.6385 38.3533 10.875C30.676 11.8376 23.0364 12.8459 15.4223 13.9688C12.9496 16.346 10.6676 18.9081 8.72375 21.75C31.8324 16.843 55.8339 14.399 78.9811 9.59375C76.2339 7.59731 73.3243 5.84549 70.195 4.4375Z" fill="#f4f4f4" fill-rule="evenodd" opacity="1" stroke="none"/>
<path d="M86.334 16.1562C62.9525 16.9345 29.7377 24.7402 23.1802 26.4375C18.7674 27.5797 11.7573 28.1637 4.86037 28.7812C3.68678 31.2794 2.80884 33.9211 2.05631 36.625C22.2214 27.5896 47.794 24.9375 68.5126 24.9375C69.0004 24.9375 74.4346 25.0365 77.2987 25.125C50.5274 31.6363 23.3105 45.7103 0.685438 57.9062C0.854284 58.9693 1.10518 59.9917 1.33972 61.0312C24.2223 49.1393 50.0153 43.1861 74.775 36.5C76.523 36.028 86.5641 33.8918 96.117 31.625C95.2359 29.3947 94.1175 27.3095 92.9391 25.25C92.3792 24.2715 91.9415 23.2167 91.319 22.2812C89.8523 20.0774 88.1217 18.0944 86.334 16.1562Z" fill="#d9b596" fill-rule="evenodd" opacity="1" stroke="none"/>
<path d="M46.9525 28.8125C46.0395 28.7842 45.0435 28.83 44.865 28.8438C30.8154 29.9277 16.797 36.1109 3.39603 40.0312C2.76331 40.2163 1.76596 40.2145 0.965844 40.3125C0.613623 42.1085 0.372981 43.9218 0.218094 45.7812C21.2274 41.1229 46.3787 35.914 48.6038 29.2188C48.6953 28.9431 47.8654 28.8408 46.9525 28.8125Z" fill="#f4f4f4" fill-rule="evenodd" opacity="1" stroke="none"/>
<path d="M73.7468 40.3438C63.1728 39.7622 28.0185 55.6354 4.01916 69.625C4.32647 70.3463 4.76994 70.9841 5.10963 71.6875C17.763 65.3609 31.2063 60.1022 42.466 54.9688C45.2848 53.6836 76.8716 42.0495 76.6755 41.6562C76.2727 40.8482 75.2574 40.4268 73.7468 40.3438Z" fill="#c1cad0" fill-rule="evenodd" opacity="1" stroke="none"/>
<path d="M98.7965 40.6562C71.1091 47.3874 24.1226 66.1926 19.3169 68.6562C17.9871 69.3379 12.7209 72.5937 7.32172 75.7812C7.76498 76.5154 8.08874 77.3225 8.56797 78.0312C28.2188 65.6789 51.6721 57.0982 71.9086 51.5625C73.9939 50.9921 87.4019 48.3921 99.4819 45.75C99.3367 44.0191 99.113 42.3324 98.7965 40.6562Z" fill="#f4f4f4" fill-rule="evenodd" opacity="1" stroke="none"/>
<path d="M92.1913 51.9062C73.5541 53.2487 46.9358 64.9815 37.0759 69.2812C35.7515 69.8588 20.7702 77.2224 12.0886 82.2812C12.5062 82.7721 12.8678 83.307 13.3037 83.7812C15.5838 82.4646 17.9899 80.9936 18.538 80.7188C40.2003 69.855 72.5961 54.5577 99.1392 57.1875C99.3829 55.4931 99.5367 53.7762 99.6065 52.0312C97.3414 51.7476 94.8538 51.7145 92.1913 51.9062Z" fill="#d9b596" fill-rule="evenodd" opacity="1" stroke="none"/>
<path d="M97.4256 64.0938C78.3219 62.9831 40.7427 76.1413 19.7842 89.6562C20.6771 90.3384 21.4938 91.0971 22.4325 91.7188C37.4231 85.2204 67.6847 84.6754 88.2657 81.5312C92.4194 76.4467 95.5199 70.5604 97.4256 64.0938Z" fill="#f4f4f4" fill-rule="evenodd" opacity="1" stroke="none"/>
<path d="M85.8355 84.4375C79.7801 85.3283 72.4755 86.8096 68.388 87.125C63.439 87.5068 45.849 91.5067 32.1532 96.5938C35.518 97.8804 39.0154 98.9066 42.6841 99.4375C51.8196 97.2965 62.5004 96.094 72.1267 94.5C77.2607 91.9083 81.907 88.5666 85.8355 84.4375Z" fill="#c1cad0" fill-rule="evenodd" opacity="1" stroke="none"/>
</g>
<g clip-path="url(#ArtboardFrame)" id="Layer-1-copy-copy-copy_2" vectornator:layerName="Layer 1 copy copy copy">
<path d="M53.2812 139.375L53.4062 139.625C53.3644 139.541 53.3231 139.459 53.2812 139.375Z" fill="#cccccc" fill-opacity="0.716216" fill-rule="evenodd" opacity="1" stroke="none"/>
<path d="M49.25 142.031L48.5 142.281L48.5 142.656L49.625 142.031L49.25 142.031Z" fill="#d9b596" fill-rule="evenodd" opacity="1" stroke="none"/>
<path d="M50 0C36.5761 0 24.4505 5.35955 15.4688 13.9688C12.9886 16.346 10.6997 18.9081 8.75 21.75C7.24006 23.951 6.02259 26.3458 4.875 28.7812C3.69787 31.2794 2.81729 33.9211 2.0625 36.625C1.71707 37.8624 1.21938 39.0383 0.96875 40.3125C0.615469 42.1085 0.374103 43.9218 0.21875 45.7812C0.102546 47.1721 0 48.5791 0 50C0 52.6979 0.276138 55.3241 0.6875 57.9062C0.856854 58.9693 1.1085 59.9917 1.34375 61.0312C2.01302 63.9888 2.8634 66.8921 4.03125 69.625C4.33949 70.3463 4.7843 70.9841 5.125 71.6875C5.80456 73.0905 6.54065 74.4551 7.34375 75.7812C7.78834 76.5154 8.11308 77.3225 8.59375 78.0312C9.63218 79.5625 10.9276 80.8777 12.125 82.2812C12.5438 82.7721 12.9066 83.307 13.3438 83.7812C15.3314 85.9373 17.5075 87.8765 19.8438 89.6562C20.7393 90.3384 21.5585 91.0971 22.5 91.7188C25.5223 93.7144 28.8169 95.2849 32.25 96.5938C35.6249 97.8804 39.1328 98.9066 42.8125 99.4375C45.1646 99.7769 47.5539 100 50 100C58.0726 100 65.5935 97.8975 72.3438 94.5C77.4932 91.9083 82.1535 88.5667 86.0938 84.4375C86.9676 83.5218 87.7283 82.5112 88.5312 81.5312C92.6975 76.4467 95.8073 70.5604 97.7188 64.0938C98.3892 61.8256 99.0926 59.5775 99.4375 57.1875C99.682 55.4931 99.8361 53.7762 99.9062 52.0312C99.9335 51.354 100 50.6839 100 50C100 48.5686 99.8992 47.1509 99.7812 45.75C99.6356 44.0191 99.4113 42.3324 99.0938 40.6562C98.501 37.527 97.5529 34.5186 96.4062 31.625C95.5224 29.3947 94.4007 27.3095 93.2188 25.25C92.6572 24.2715 92.2182 23.2167 91.5938 22.2812C90.1227 20.0774 88.3868 18.0944 86.5938 16.1562C84.3502 13.7312 81.9 11.5364 79.2188 9.59375C76.4633 7.59731 73.545 5.84549 70.4062 4.4375C64.1653 1.63789 57.2831 0 50 0Z" fill="url(#RadialGradient)" fill-rule="evenodd" opacity="1" stroke="none"/>
</g>
</svg>
