<?xml version="1.0" encoding="UTF-8" standalone="no"?>
<!DOCTYPE svg PUBLIC "-//W3C//DTD SVG 1.1//EN" "http://www.w3.org/Graphics/SVG/1.1/DTD/svg11.dtd">

<!-- Created with Vectornator (http://vectornator.io/) -->
<svg height="100%" stroke-miterlimit="10" style="fill-rule:nonzero;clip-rule:evenodd;stroke-linecap:round;stroke-linejoin:round;" version="1.1" viewBox="0 0 100 100" width="100%" xml:space="preserve" xmlns="http://www.w3.org/2000/svg" xmlns:vectornator="http://vectornator.io" xmlns:xlink="http://www.w3.org/1999/xlink">
<metadata>
<vectornator:setting key="IsTimeLapseWatermarkDisabled" value="false"/>
<vectornator:setting key="UndoHistoryDisabled" value="true"/>
<vectornator:setting key="VNDimensionsVisible" value="true"/>
<vectornator:setting key="VNSnapToGuides" value="true"/>
<vectornator:setting key="WDCMYKEnabledKey" value="false"/>
<vectornator:setting key="WDDisplayWhiteBackground" value="false"/>
<vectornator:setting key="WDDynamicGuides" value="false"/>
<vectornator:setting key="WDGuidesVisible" value="true"/>
<vectornator:setting key="WDIsolateActiveLayer" value="false"/>
<vectornator:setting key="WDOutlineMode" value="false"/>
<vectornator:setting key="WDRulersVisible" value="true"/>
<vectornator:setting key="WDSnapToEdges" value="false"/>
<vectornator:setting key="WDSnapToGrid" value="false"/>
<vectornator:setting key="WDSnapToPoints" value="false"/>
<vectornator:setting key="WDUnits" value="Points"/>
</metadata>
<defs>
<radialGradient cx="-17.1267" cy="50.3695" gradientTransform="matrix(1 0 0 1 0 0)" gradientUnits="userSpaceOnUse" id="RadialGradient" r="149.634">
<stop offset="0" stop-color="#ffffff" stop-opacity="0.188337"/>
<stop offset="0.27686" stop-color="#c5c0b9" stop-opacity="0"/>
<stop offset="0.578512" stop-color="#000000" stop-opacity="0.743241"/>
<stop offset="0.690083" stop-color="#000000"/>
</radialGradient>
</defs>
<g id="Layer-1" vectornator:layerName="Layer 1" visibility="hidden">
<path d="M0 50C0 22.3858 22.3858 0 50 0C77.6142 0 100 22.3858 100 50C100 77.6142 77.6142 100 50 100C22.3858 100 0 77.6142 0 50Z" fill="#d6e3e7" fill-rule="evenodd" opacity="1" stroke="none"/>
</g>
<clipPath id="ArtboardFrame">
<rect height="100" width="100" x="0" y="0"/>
</clipPath>
<g clip-path="url(#ArtboardFrame)" id="Layer-1-copy" vectornator:layerName="Layer 1 copy" visibility="hidden">
<path d="M0 50C0 22.3858 22.3858 0 50 0C77.6142 0 100 22.3858 100 50C100 77.6142 77.6142 100 50 100C22.3858 100 0 77.6142 0 50Z" fill="#d6e3e7" fill-rule="evenodd" opacity="1" stroke="none"/>
<path d="M-19.5821 20.6722C-22.2084 15.4195-8.14099 18.0024-2.37212 16.9035C11.2059 14.3172 24.7545 12.5863 38.4545 10.8738C43.1611 10.2854 114.188-5.25098 114.957-2.94446C116.42 1.44421 102.206 3.82788 100.511 4.34152C60.5071 16.4639 15.854 15.8653-23.0995 30.8474" fill="#f4f4f4" fill-rule="evenodd" opacity="1" stroke="none"/>
<path d="M-15.6879 89.3864C-15.8262 89.3173 15.4755 70.6446 19.3602 68.6591C26.1425 65.1926 117.458 28.8962 119.354 40.2689C119.699 42.3371 75.9926 50.5188 72.1207 51.5747C41.3883 59.9563 3.07124 75.1162-17.8234 100.19" fill="#f4f4f4" fill-rule="evenodd" opacity="1" stroke="none"/>
<path d="M4.91386 104.838C8.93185 84.7477 105.393 49.1377 109.43 70.669C113.083 90.1505 13.5817 77.7026 13.5817 101.697" fill="#f4f4f4" fill-rule="evenodd" opacity="1" stroke="none"/>
<path d="M-15.0598 44.54C-17.8939 38.8718-2.67738 41.7921 3.40641 40.0177C16.8477 36.0973 30.8948 29.9215 44.9867 28.8375C45.3448 28.8099 48.9391 28.6631 48.7553 29.2143C45.2997 39.5813-14.363 46.5536-26.1143 53.0822" fill="#f4f4f4" fill-rule="evenodd" opacity="1" stroke="none"/>
<path d="M48.5041 142.649L48.5041 142.273L49.2578 142.021L49.6347 142.021L49.6347 142.021" fill="#d9b596" fill-rule="evenodd" opacity="1" stroke="none"/>
<path d="M-15.1854 67.1516C-15.7087 65.5817-13.1446 65.2844-12.1705 64.7649C22.0057 46.5376 74.355 16.0781 114.832 22.3052C115.808 22.4555 119.024 22.3852 119.228 23.8127C119.738 27.3775 78.9052 35.4516 75.01 36.5003C43.3239 45.0312 9.83868 52.215-16.9441 72.3021" fill="#d9b596" fill-rule="evenodd" opacity="1" stroke="none"/>
<path d="M-13.4267 37.0028C-22.4232 28.0063 10.9351 29.6299 23.2544 26.4507C33.2861 23.8619 106.056 6.67411 110.058 22.6821C111.098 26.8411 71.1685 24.9432 68.7289 24.9432C44.1758 24.9432 12.7351 28.5651-8.40189 42.1532" fill="#d9b596" fill-rule="evenodd" opacity="1" stroke="none"/>
<path d="M107.294 54.464C92.8585 44.8401 50.2938 63.5935 37.1983 69.2872C35.2873 70.118 4.2638 85.219 5.91882 86.874C7.00418 87.9594 17.2589 81.3924 18.6065 80.7186C43.4379 68.3029 82.3065 50.1127 110.435 59.4888" fill="#d9b596" fill-rule="evenodd" opacity="1" stroke="none"/>
<path d="M53.4033 139.635C53.3614 139.551 53.3195 139.467 53.2777 139.383" fill="#c5c0b9" fill-rule="evenodd" opacity="1" stroke="none"/>
<path d="M14.9635 107.978C14.9635 98.7654 60.182 87.7731 68.6033 87.1253C77.3733 86.4506 101.203 80.2775 94.9836 86.4972C84.1207 97.3601 45.7465 94.4076 29.4098 104.21" fill="#cccccc" fill-opacity="0.716216" fill-rule="evenodd" opacity="1" stroke="none"/>
<path d="M-19.4565 88.7583C-23.926 79.8193 71.9734 31.8091 76.8943 41.6507C77.0909 42.044 45.4272 53.6813 42.5999 54.9665C20.7661 64.891-9.30663 75.1994-25.8631 93.0294" fill="#cccccc" fill-opacity="0.716216" fill-rule="evenodd" opacity="1" stroke="none"/>
</g>
<g clip-path="url(#ArtboardFrame)" id="Layer-1-copy-copy" vectornator:layerName="Layer 1 copy copy">
<path d="M53.3883 139.375L53.5136 139.625C53.4716 139.541 53.4303 139.459 53.3883 139.375Z" fill="#cccccc" fill-opacity="0.716216" fill-rule="evenodd" opacity="1" stroke="none"/>
<path d="M49.349 142.031L48.5975 142.281L48.5975 142.656L49.7247 142.031L49.349 142.031Z" fill="#d9b596" fill-rule="evenodd" opacity="1" stroke="none"/>
<path d="M49.5 0C36.2103 0 24.206 5.35955 15.3141 13.9688C12.8587 16.346 10.5927 18.9081 8.6625 21.75C7.16766 23.951 5.96236 26.3458 4.82625 28.7812C3.66089 31.2794 2.78912 33.9211 2.04188 36.625C1.69989 37.8624 1.20718 39.0383 0.959063 40.3125C0.609315 42.1085 0.370362 43.9218 0.216562 45.7812C0.10152 47.1721 0 48.5791 0 50C0 52.6979 0.273376 55.3241 0.680625 57.9062C0.848286 58.9693 1.09742 59.9917 1.33031 61.0312C1.99289 63.9888 2.83476 66.8921 3.99094 69.625C4.29609 70.3463 4.73645 70.9841 5.07375 71.6875C5.74652 73.0905 6.47524 74.4551 7.27031 75.7812C7.71046 76.5154 8.03195 77.3225 8.50781 78.0312C9.53585 79.5625 10.8183 80.8777 12.0038 82.2812C12.4184 82.7721 12.7775 83.307 13.2103 83.7812C15.1781 85.9373 17.3324 87.8765 19.6453 89.6562C20.5319 90.3384 21.3429 91.0971 22.275 91.7188C25.2671 93.7144 28.5288 95.2849 31.9275 96.5938C35.2686 97.8804 38.7415 98.9066 42.3844 99.4375C44.713 99.7769 47.0784 100 49.5 100C57.4918 100 64.9375 97.8975 71.6203 94.5C76.7182 91.9083 81.332 88.5667 85.2328 84.4375C86.0979 83.5218 86.851 82.5112 87.6459 81.5312C91.7705 76.4467 94.8493 70.5604 96.7416 64.0938C97.4053 61.8256 98.1017 59.5775 98.4431 57.1875C98.6852 55.4931 98.8378 53.7762 98.9072 52.0312C98.9341 51.354 99 50.6839 99 50C99 48.5686 98.9002 47.1509 98.7834 45.75C98.6392 44.0191 98.4172 42.3324 98.1028 40.6562C97.516 37.527 96.5773 34.5186 95.4422 31.625C94.5672 29.3947 93.4567 27.3095 92.2866 25.25C91.7306 24.2715 91.296 23.2167 90.6778 22.2812C89.2214 20.0774 87.503 18.0944 85.7278 16.1562C83.5067 13.7312 81.081 11.5364 78.4266 9.59375C75.6987 7.59731 72.8095 5.84549 69.7022 4.4375C63.5236 1.63789 56.7103 0 49.5 0Z" fill="#d6e3e7" fill-rule="evenodd" opacity="1" stroke="none"/>
</g>
<g clip-path="url(#ArtboardFrame)" id="Layer-1-copy-copy-copy" vectornator:layerName="Layer 1 copy copy copy">
<path d="M78.4266 9.59375C55.4419 14.399 31.6089 16.843 8.6625 21.75C7.16766 23.951 5.96236 26.3458 4.82625 28.7812C11.6747 28.1637 18.6357 27.5797 23.0175 26.4375C29.5289 24.7402 62.5106 16.9345 85.7278 16.1562C83.5067 13.7312 81.081 11.5364 78.4266 9.59375Z" fill="#d6e3e7" fill-rule="evenodd" opacity="1" stroke="none"/>
<path d="M95.4422 31.625C85.9564 33.8918 75.9858 36.028 74.25 36.5C49.6642 43.1861 24.0523 49.1393 1.33031 61.0312C1.99289 63.9888 2.83476 66.8921 3.99094 69.625C31.2261 53.6369 72.9373 35.1918 76.1372 41.6562C76.3319 42.0495 44.9669 53.6836 42.1678 54.9688C30.9872 60.1022 17.6382 65.3609 5.07375 71.6875C5.74652 73.0905 6.47524 74.4551 7.27031 75.7812C12.6316 72.5937 17.8609 69.3379 19.1812 68.6562C23.9532 66.1926 70.6099 47.3874 98.1028 40.6562C97.516 37.527 96.5773 34.5186 95.4422 31.625Z" fill="#d6e3e7" fill-rule="evenodd" opacity="1" stroke="none"/>
<path d="M98.7834 45.75C86.7883 48.3921 73.4744 50.9921 71.4038 51.5625C51.3093 57.0982 28.0206 65.6789 8.50781 78.0312C9.53585 79.5625 10.8183 80.8777 12.0038 82.2812C20.6244 77.2224 35.5005 69.8588 36.8156 69.2812C48.0049 64.3672 80.9133 49.7619 98.9072 52.0312C98.9341 51.354 99 50.684 99 50C99 48.5686 98.9002 47.1509 98.7834 45.75Z" fill="#d6e3e7" fill-rule="evenodd" opacity="1" stroke="none"/>
<path d="M98.4431 57.1875C72.0864 54.5577 39.918 69.855 18.4078 80.7188C17.8636 80.9936 15.4744 82.4646 13.2103 83.7812C15.1781 85.9373 17.3324 87.8765 19.6453 89.6562C40.4567 76.1413 77.772 62.9831 96.7416 64.0938C97.4053 61.8256 98.1017 59.5775 98.4431 57.1875Z" fill="#d6e3e7" fill-rule="evenodd" opacity="1" stroke="none"/>
<path d="M87.6459 81.5312C67.2094 84.6754 37.1604 85.2204 22.275 91.7188C25.2671 93.7144 28.5288 95.2849 31.9275 96.5938C45.5271 91.5067 62.9936 87.5068 67.9078 87.125C71.9666 86.8096 79.2199 85.3283 85.2328 84.4375C86.0979 83.5218 86.851 82.5112 87.6459 81.5312Z" fill="#d6e3e7" fill-rule="evenodd" opacity="1" stroke="none"/>
<path d="M71.6203 94.5C62.0615 96.094 51.4558 97.2965 42.3844 99.4375C44.713 99.7769 47.0784 100 49.5 100C57.4918 100 64.9375 97.8975 71.6203 94.5Z" fill="#d6e3e7" fill-rule="evenodd" opacity="1" stroke="none"/>
<path d="M0.680625 57.9062C23.1469 45.7102 50.1726 31.6363 76.7559 25.125C73.912 25.0365 68.516 24.9375 68.0316 24.9375C47.4584 24.9375 22.0654 27.5896 2.04188 36.625C1.69989 37.8624 1.20718 39.0383 0.959063 40.3125C1.75356 40.2145 2.74391 40.2163 3.37219 40.0312C16.6791 36.1109 30.599 29.9277 44.55 28.8438C44.9045 28.8162 48.4444 28.6675 48.2625 29.2188C46.0531 35.914 21.0783 41.1229 0.216562 45.7812C0.10152 47.1721 0 48.5791 0 50C0 52.6979 0.273376 55.3241 0.680625 57.9062Z" fill="#d6e3e7" fill-rule="evenodd" opacity="1" stroke="none"/>
<path d="M15.3141 13.9688C22.8746 12.8459 30.4606 11.8376 38.0841 10.875C39.9575 10.6385 55.3896 7.37559 69.7022 4.4375C63.5236 1.63789 56.7103 0 49.5 0C36.2103 0 24.206 5.35955 15.3141 13.9688Z" fill="#d6e3e7" fill-rule="evenodd" opacity="1" stroke="none"/>
<path d="M53.3883 139.375L53.5136 139.625C53.4716 139.541 53.4303 139.459 53.3883 139.375Z" fill="#cccccc" fill-opacity="0.716216" fill-rule="evenodd" opacity="1" stroke="none"/>
<path d="M49.349 142.031L48.5975 142.281L48.5975 142.656L49.7247 142.031L49.349 142.031Z" fill="#d9b596" fill-rule="evenodd" opacity="1" stroke="none"/>
<path d="M69.7022 4.4375C55.3896 7.37559 39.9575 10.6385 38.0841 10.875C30.4606 11.8376 22.8746 12.8459 15.3141 13.9688C12.8587 16.346 10.5927 18.9081 8.6625 21.75C31.6089 16.843 55.4419 14.399 78.4266 9.59375C75.6987 7.59731 72.8095 5.84549 69.7022 4.4375Z" fill="#f4f4f4" fill-rule="evenodd" opacity="1" stroke="none"/>
<path d="M85.7278 16.1562C62.5105 16.9345 29.5289 24.7402 23.0175 26.4375C18.6357 27.5797 11.6747 28.1637 4.82625 28.7812C3.66089 31.2794 2.78912 33.9211 2.04188 36.625C22.0654 27.5896 47.4584 24.9375 68.0316 24.9375C68.516 24.9375 73.912 25.0365 76.7559 25.125C50.1726 31.6363 23.1469 45.7103 0.680625 57.9062C0.848286 58.9693 1.09742 59.9917 1.33031 61.0312C24.0523 49.1393 49.6642 43.1861 74.25 36.5C75.9858 36.028 85.9564 33.8918 95.4422 31.625C94.5672 29.3947 93.4567 27.3095 92.2866 25.25C91.7306 24.2715 91.296 23.2167 90.6778 22.2812C89.2214 20.0774 87.503 18.0944 85.7278 16.1562Z" fill="#d9b596" fill-rule="evenodd" opacity="1" stroke="none"/>
<path d="M46.6228 28.8125C45.7163 28.7842 44.7273 28.83 44.55 28.8438C30.599 29.9277 16.6791 36.1109 3.37219 40.0312C2.74391 40.2163 1.75356 40.2145 0.959063 40.3125C0.609315 42.1085 0.370362 43.9218 0.216562 45.7812C21.0783 41.1229 46.0531 35.914 48.2625 29.2188C48.3535 28.9431 47.5294 28.8408 46.6228 28.8125Z" fill="#f4f4f4" fill-rule="evenodd" opacity="1" stroke="none"/>
<path d="M73.2291 40.3438C62.7293 39.7622 27.8217 55.6354 3.99094 69.625C4.29609 70.3463 4.73645 70.9841 5.07375 71.6875C17.6382 65.3609 30.9872 60.1022 42.1678 54.9688C44.9669 53.6836 76.3319 42.0495 76.1372 41.6562C75.7372 40.8482 74.729 40.4268 73.2291 40.3438Z" fill="#c1cad0" fill-rule="evenodd" opacity="1" stroke="none"/>
<path d="M98.1028 40.6562C70.6099 47.3874 23.9532 66.1926 19.1812 68.6562C17.8609 69.3379 12.6316 72.5937 7.27031 75.7812C7.71046 76.5154 8.03195 77.3225 8.50781 78.0312C28.0206 65.6789 51.3093 57.0982 71.4038 51.5625C73.4744 50.9921 86.7883 48.3921 98.7834 45.75C98.6392 44.0191 98.4171 42.3324 98.1028 40.6562Z" fill="#f4f4f4" fill-rule="evenodd" opacity="1" stroke="none"/>
<path d="M91.5441 51.9062C73.0377 53.2487 46.6063 64.9815 36.8156 69.2812C35.5005 69.8588 20.6244 77.2224 12.0038 82.2812C12.4184 82.7721 12.7775 83.307 13.2103 83.7812C15.4744 82.4646 17.8636 80.9936 18.4078 80.7188C39.918 69.855 72.0864 54.5577 98.4431 57.1875C98.6852 55.4931 98.8378 53.7762 98.9072 52.0312C96.658 51.7476 94.1878 51.7145 91.5441 51.9062Z" fill="#d9b596" fill-rule="evenodd" opacity="1" stroke="none"/>
<path d="M96.7416 64.0938C77.772 62.9831 40.4567 76.1413 19.6453 89.6562C20.5319 90.3384 21.3429 91.0971 22.275 91.7188C37.1604 85.2204 67.2094 84.6754 87.6459 81.5312C91.7705 76.4467 94.8493 70.5604 96.7416 64.0938Z" fill="#f4f4f4" fill-rule="evenodd" opacity="1" stroke="none"/>
<path d="M85.2328 84.4375C79.2199 85.3283 71.9666 86.8096 67.9078 87.125C62.9936 87.5068 45.5271 91.5067 31.9275 96.5938C35.2686 97.8804 38.7415 98.9066 42.3844 99.4375C51.4558 97.2965 62.0615 96.094 71.6203 94.5C76.7182 91.9083 81.332 88.5666 85.2328 84.4375Z" fill="#c1cad0" fill-rule="evenodd" opacity="1" stroke="none"/>
</g>
<g clip-path="url(#ArtboardFrame)" id="Layer-1-copy-copy-copy_2" vectornator:layerName="Layer 1 copy copy copy">
<path d="M53.2812 139.375L53.4062 139.625C53.3644 139.541 53.3231 139.459 53.2812 139.375Z" fill="#cccccc" fill-opacity="0.716216" fill-rule="evenodd" opacity="1" stroke="none"/>
<path d="M49.25 142.031L48.5 142.281L48.5 142.656L49.625 142.031L49.25 142.031Z" fill="#d9b596" fill-rule="evenodd" opacity="1" stroke="none"/>
<path d="M50 0C36.5761 0 24.4505 5.35955 15.4688 13.9688C12.9886 16.346 10.6997 18.9081 8.75 21.75C7.24006 23.951 6.02259 26.3458 4.875 28.7812C3.69787 31.2794 2.81729 33.9211 2.0625 36.625C1.71707 37.8624 1.21938 39.0383 0.96875 40.3125C0.615469 42.1085 0.374103 43.9218 0.21875 45.7812C0.102546 47.1721 0 48.5791 0 50C0 52.6979 0.276138 55.3241 0.6875 57.9062C0.856854 58.9693 1.1085 59.9917 1.34375 61.0312C2.01302 63.9888 2.8634 66.8921 4.03125 69.625C4.33949 70.3463 4.7843 70.9841 5.125 71.6875C5.80456 73.0905 6.54065 74.4551 7.34375 75.7812C7.78834 76.5154 8.11308 77.3225 8.59375 78.0312C9.63218 79.5625 10.9276 80.8777 12.125 82.2812C12.5438 82.7721 12.9066 83.307 13.3438 83.7812C15.3314 85.9373 17.5075 87.8765 19.8438 89.6562C20.7393 90.3384 21.5585 91.0971 22.5 91.7188C25.5223 93.7144 28.8169 95.2849 32.25 96.5938C35.6249 97.8804 39.1328 98.9066 42.8125 99.4375C45.1646 99.7769 47.5539 100 50 100C58.0726 100 65.5935 97.8975 72.3438 94.5C77.4932 91.9083 82.1535 88.5667 86.0938 84.4375C86.9676 83.5218 87.7283 82.5112 88.5312 81.5312C92.6975 76.4467 95.8073 70.5604 97.7188 64.0938C98.3892 61.8256 99.0926 59.5775 99.4375 57.1875C99.682 55.4931 99.8361 53.7762 99.9062 52.0312C99.9335 51.354 100 50.6839 100 50C100 48.5686 99.8992 47.1509 99.7812 45.75C99.6356 44.0191 99.4113 42.3324 99.0938 40.6562C98.501 37.527 97.5529 34.5186 96.4062 31.625C95.5224 29.3947 94.4007 27.3095 93.2188 25.25C92.6572 24.2715 92.2182 23.2167 91.5938 22.2812C90.1227 20.0774 88.3868 18.0944 86.5938 16.1562C84.3502 13.7312 81.9 11.5364 79.2188 9.59375C76.4633 7.59731 73.545 5.84549 70.4062 4.4375C64.1653 1.63789 57.2831 0 50 0Z" fill="url(#RadialGradient)" fill-rule="evenodd" opacity="1" stroke="none"/>
</g>
</svg>
